<?xml version="1.0" encoding="utf-8"?><svg version="1.1" id="Layer_1" xmlns="http://www.w3.org/2000/svg" xmlns:xlink="http://www.w3.org/1999/xlink" x="0px" y="0px"	 viewBox="0 0 595.3 841.9" style="enable-background:new 0 0 595.3 841.9;" xml:space="preserve"><style type="text/css">	.st0{fill:none;stroke:#878787;stroke-width:0.25;stroke-miterlimit:10;}</style><g>	<path d="M54.6,236.1h3.9v18.5h9.1v3.3H54.6V236.1z"/>	<path d="M70.6,241.6h3.8v16.4h-3.8V241.6z M72.6,238.7c-0.7,0-1.3-0.2-1.7-0.6c-0.4-0.4-0.7-0.9-0.7-1.6c0-0.6,0.2-1.2,0.7-1.6		c0.4-0.4,1-0.6,1.7-0.6c0.7,0,1.3,0.2,1.7,0.6c0.4,0.4,0.7,0.9,0.7,1.6c0,0.6-0.2,1.2-0.7,1.6C73.8,238.5,73.3,238.7,72.6,238.7z"		/>	<path d="M87,258.3c-0.8,0-1.5-0.2-2.3-0.5c-0.8-0.4-1.5-0.9-2.2-1.6h-0.1l-0.3,1.7h-3v-23.5h3.8v6.1l-0.1,2.7		c0.7-0.6,1.4-1.1,2.2-1.5c0.8-0.4,1.6-0.6,2.5-0.6c1,0,1.9,0.2,2.7,0.6c0.8,0.4,1.5,0.9,2,1.7c0.6,0.7,1,1.6,1.3,2.6		c0.3,1,0.4,2.2,0.4,3.4c0,1.4-0.2,2.6-0.6,3.7c-0.4,1.1-0.9,2-1.5,2.8c-0.6,0.8-1.4,1.3-2.2,1.7C88.8,258.1,88,258.3,87,258.3z		 M86.2,255.2c1.1,0,2-0.5,2.7-1.4c0.7-0.9,1.1-2.3,1.1-4.2c0-1.6-0.3-2.9-0.8-3.8c-0.6-0.9-1.5-1.4-2.7-1.4c-1.2,0-2.4,0.6-3.6,1.8		v7.6c0.6,0.5,1.1,0.9,1.7,1.1C85.2,255.1,85.8,255.2,86.2,255.2z"/>	<path d="M97.6,241.6h3.2l0.3,2.9h0.1c0.6-1.1,1.3-1.9,2.1-2.4c0.8-0.6,1.7-0.8,2.5-0.8c0.8,0,1.4,0.1,1.9,0.3l-0.7,3.3		c-0.3-0.1-0.6-0.2-0.8-0.2c-0.2,0-0.5-0.1-0.9-0.1c-0.6,0-1.3,0.2-2,0.7c-0.7,0.5-1.3,1.4-1.8,2.6v10h-3.8V241.6z"/>	<path d="M116.1,258.3c-1.1,0-2.2-0.2-3.2-0.6c-1-0.4-1.8-0.9-2.6-1.7c-0.7-0.7-1.3-1.6-1.7-2.7c-0.4-1.1-0.6-2.3-0.6-3.6		c0-1.3,0.2-2.5,0.6-3.6c0.4-1.1,1-2,1.7-2.7c0.7-0.7,1.5-1.3,2.4-1.7c0.9-0.4,1.8-0.6,2.8-0.6c1.1,0,2.1,0.2,2.9,0.6		c0.8,0.4,1.5,0.9,2.1,1.6c0.6,0.7,1,1.5,1.3,2.5c0.3,1,0.4,2,0.4,3.1c0,0.4,0,0.7-0.1,1.1c0,0.3-0.1,0.6-0.1,0.8h-10.4		c0.2,1.5,0.7,2.6,1.5,3.4c0.9,0.8,1.9,1.2,3.3,1.2c0.7,0,1.4-0.1,2-0.3c0.6-0.2,1.2-0.5,1.8-0.9l1.3,2.4c-0.8,0.5-1.6,0.9-2.6,1.3		C118.2,258.2,117.2,258.3,116.1,258.3z M119,248.2c0-1.3-0.3-2.3-0.8-3c-0.5-0.7-1.4-1.1-2.5-1.1c-1,0-1.8,0.3-2.6,1		c-0.7,0.7-1.2,1.7-1.4,3H119z"/>	<path d="M126.4,236.1h7c1.1,0,2.2,0.1,3.1,0.3c0.9,0.2,1.8,0.5,2.5,0.9c0.7,0.4,1.2,1,1.6,1.6c0.4,0.7,0.6,1.5,0.6,2.5		c0,1-0.3,2-0.8,2.9c-0.5,0.9-1.3,1.5-2.2,1.8v0.1c1.2,0.3,2.2,0.8,3,1.7c0.8,0.9,1.2,2,1.2,3.5c0,1.1-0.2,2-0.6,2.8		c-0.4,0.8-1,1.5-1.7,2c-0.7,0.5-1.6,0.9-2.6,1.2c-1,0.3-2.1,0.4-3.3,0.4h-7.5V236.1z M133.5,254.9c1.6,0,2.8-0.3,3.7-0.9		c0.9-0.6,1.3-1.5,1.3-2.7c0-1.2-0.4-2-1.3-2.5c-0.8-0.5-2.1-0.8-3.7-0.8h-3.3v6.9H133.5z M133,245.1c1.5,0,2.6-0.3,3.3-0.8		c0.7-0.6,1-1.3,1-2.2c0-1.1-0.4-1.8-1.1-2.3c-0.7-0.4-1.8-0.7-3.2-0.7h-2.8v6H133z"/>	<path d="M145.9,241.6h3.8v16.4h-3.8V241.6z M147.9,238.7c-0.7,0-1.3-0.2-1.7-0.6s-0.7-0.9-0.7-1.6c0-0.6,0.2-1.2,0.7-1.6		c0.4-0.4,1-0.6,1.7-0.6c0.7,0,1.3,0.2,1.7,0.6c0.4,0.4,0.7,0.9,0.7,1.6c0,0.6-0.2,1.2-0.7,1.6S148.5,238.7,147.9,238.7z"/>	<path d="M154.7,234.4h3.8v14.7h0.1l6.1-7.5h4.2l-5.6,6.7l6.2,9.7h-4.2l-4.2-7.1l-2.6,2.9v4.2h-3.8V234.4z"/>	<path d="M178.3,258.3c-1.1,0-2.2-0.2-3.2-0.6c-1-0.4-1.8-0.9-2.6-1.7c-0.7-0.7-1.3-1.6-1.7-2.7c-0.4-1.1-0.6-2.3-0.6-3.6		c0-1.3,0.2-2.5,0.6-3.6c0.4-1.1,1-2,1.7-2.7c0.7-0.7,1.5-1.3,2.4-1.7c0.9-0.4,1.8-0.6,2.8-0.6c1.1,0,2.1,0.2,2.9,0.6		c0.8,0.4,1.5,0.9,2.1,1.6c0.6,0.7,1,1.5,1.3,2.5c0.3,1,0.4,2,0.4,3.1c0,0.4,0,0.7,0,1.1c0,0.3-0.1,0.6-0.1,0.8H174		c0.2,1.5,0.7,2.6,1.5,3.4c0.9,0.8,1.9,1.2,3.3,1.2c0.7,0,1.4-0.1,2-0.3c0.6-0.2,1.2-0.5,1.8-0.9l1.3,2.4c-0.8,0.5-1.6,0.9-2.6,1.3		C180.3,258.2,179.3,258.3,178.3,258.3z M181.2,248.2c0-1.3-0.3-2.3-0.8-3c-0.5-0.7-1.4-1.1-2.5-1.1c-1,0-1.8,0.3-2.6,1		c-0.7,0.7-1.2,1.7-1.4,3H181.2z"/>	<path d="M190.3,258.3c-0.7,0-1.3-0.2-1.8-0.7c-0.5-0.5-0.7-1.1-0.7-1.9c0-0.8,0.2-1.4,0.7-1.9c0.5-0.5,1.1-0.7,1.8-0.7		c0.7,0,1.3,0.2,1.8,0.7c0.5,0.5,0.7,1.1,0.7,1.9c0,0.8-0.2,1.4-0.7,1.9C191.6,258.1,191.1,258.3,190.3,258.3z"/>	<path d="M197.3,241.6h3.8v16.4h-3.8V241.6z M199.3,238.7c-0.7,0-1.3-0.2-1.7-0.6c-0.4-0.4-0.7-0.9-0.7-1.6c0-0.6,0.2-1.2,0.7-1.6		c0.4-0.4,1-0.6,1.7-0.6c0.7,0,1.3,0.2,1.7,0.6c0.4,0.4,0.7,0.9,0.7,1.6c0,0.6-0.2,1.2-0.7,1.6C200.5,238.5,200,238.7,199.3,238.7z"		/>	<path d="M206.1,241.6h3.2l0.3,2.2h0.1c0.7-0.7,1.5-1.3,2.4-1.8c0.9-0.5,1.8-0.8,3-0.8c1.8,0,3,0.6,3.8,1.7c0.8,1.1,1.2,2.7,1.2,4.8		v10.3h-3.8v-9.8c0-1.4-0.2-2.3-0.6-2.9c-0.4-0.6-1.1-0.8-2-0.8c-0.7,0-1.3,0.2-1.9,0.5c-0.5,0.3-1.2,0.8-1.8,1.5v11.4h-3.8V241.6z"		/>	<path d="M233.1,237.4c-0.6-0.3-1.2-0.4-1.8-0.4c-1.4,0-2.1,0.9-2.1,2.8v1.8h3.2v3h-3.2v13.3h-3.8v-13.3h-2.2v-2.9l2.2-0.2v-1.7		c0-0.8,0.1-1.6,0.3-2.3c0.2-0.7,0.5-1.3,1-1.9c0.4-0.5,1-0.9,1.7-1.2c0.7-0.3,1.5-0.4,2.5-0.4c0.6,0,1.1,0.1,1.6,0.2		c0.5,0.1,1,0.2,1.3,0.4L233.1,237.4z"/>	<path d="M241.7,258.3c-1,0-2-0.2-2.9-0.6c-0.9-0.4-1.8-0.9-2.5-1.7c-0.7-0.7-1.3-1.6-1.7-2.7c-0.4-1.1-0.6-2.3-0.6-3.6		c0-1.4,0.2-2.6,0.6-3.6c0.4-1.1,1-2,1.7-2.7c0.7-0.7,1.5-1.3,2.5-1.7c0.9-0.4,1.9-0.6,2.9-0.6c1,0,2,0.2,2.9,0.6		c0.9,0.4,1.8,0.9,2.5,1.7c0.7,0.7,1.3,1.6,1.7,2.7c0.4,1.1,0.6,2.3,0.6,3.6c0,1.4-0.2,2.6-0.6,3.6c-0.4,1.1-1,2-1.7,2.7		c-0.7,0.7-1.5,1.3-2.5,1.7C243.7,258.1,242.7,258.3,241.7,258.3z M241.7,255.2c1.2,0,2.1-0.5,2.8-1.5c0.7-1,1-2.3,1-3.9		c0-1.7-0.3-3-1-4c-0.7-1-1.6-1.5-2.8-1.5c-1.2,0-2.1,0.5-2.8,1.5c-0.7,1-1,2.3-1,4c0,1.6,0.3,3,1,3.9		C239.5,254.7,240.5,255.2,241.7,255.2z"/></g><g>	<path d="M247.8,176.2c5.3-19-2.7-40-17.8-52.2c-16-12.9-35.8-9.3-55-9.1c3.2-6,7.5-12,12.5-16.7c-0.2,0.3-2.7,0.1-3.5,0.1		c0.2-0.2,0.4-0.4,0.6-0.6c-0.3,0.4-1.3,0.1-2.2,0c0.9-1.1,1.9-2.1,2.9-3.1c22.4,11.2,54.7-6.8,45.4-33.7		C226,47.7,211.8,41,198.5,44.7c-14.4,4.1-19.1,18.2-18.2,31.8c0-0.4,0.1-0.8,0.2-1.2c0,1,0.1,2,0.2,2.9c-0.1-0.9,1.3-2.8,1.7-3.5		c0,1.1,0.1,2.2,0.1,3.2c0-0.1,0.1-0.3,0.2-0.5c0.1,1,0.1,2,0.2,3c-0.1-0.6,1.3-5,1.6-5.4c0.1,1.7,0.2,3.4,0.3,5.1		c0,0.1,1.4-4.4,1.2-4.1c0,0.7,0.1,1.5,0.1,2.2c-0.2-2.7,3.6-5.9,4.6-8c3.1-6.4,3.1-12,10.4-15.1c16.6-7,26.5,15.9,15.5,27.2		c-11.4,11.8-27,5.6-38.9-1.5c-17.1-10.2-31.3-15.7-51.3-13.7c0.1,0,0.1,0,0.2,0c-2,0.4-3.9,0.8-5.9,1.2c0.2,0,0.3,0,0.5-0.1		c-2,0.6-3.9,1.6-5.8,2.4c0.1,0,0.2-0.1,0.3-0.1c-1.6,1-3.3,2-4.9,3c0.4-0.2,0.8-0.4,1.2-0.7c-3.7,2.7-6,6.2-8.8,9.6		c0.1-0.2,0.3-0.3,0.4-0.5c-0.9,1.7-1.8,3.4-2.9,5c0.2-0.3,0.3-0.5,0.5-0.8c-4.6,10.1-2.4,20.1,3.6,29c-23,1.4-44.7,18.1-49.8,41.1		c-4.9,22,7.7,47.8,29.2,55.6c22.7,8.2,49.6-1,59-23.9C154,162,143.9,142,124.7,124c11.7,0,23.5-0.1,35.2-0.2		c-9.7,26.9-13.6,66,13.8,84C201.8,226.2,241.3,208.5,247.8,176.2z M112.4,73.7c-2.2,1.7-4.6,4.3-6.5,6.3		C107.5,77.6,109.9,75.1,112.4,73.7z M126.1,67.9c1.2-0.4,2.5-0.5,3.8-0.3c-2.8,0.4-5.9,1.3-8.7,2C123,68.8,124.3,68.2,126.1,67.9z		 M106.7,102.4c-0.2-0.5-0.4-0.9-0.6-1.4c0.6,1.8,1.3,3.7,1.9,5.5c-0.2-0.7-0.4-1.5-0.6-2.2c0.7,1.9,1.6,3.7,2.4,5.4		c-2.3-2.8-4.1-6.1-3.8-9.9C106.3,100.7,106.5,101.5,106.7,102.4z M106.7,102.3c0,0.1,0.1,0.2,0.1,0.4		C106.8,102.6,106.7,102.5,106.7,102.3z M117.3,71.6c0.5-0.1,0.9-0.3,1.4-0.4l-4,2.2c0,0,0.1-0.1,0.1-0.1c-0.2,0.2-0.3,0.3-0.5,0.4		C115.1,72.8,116.1,72.1,117.3,71.6z M105.1,101.1c0.1,0.7,0.3,1.5,0.4,2.2c-1.3-1.3-1.5-2.6-0.5-4c0,0.4,0,0.8,0.1,1.2		c0-0.1-0.1-0.3-0.1-0.4C105,100.5,105.1,100.8,105.1,101.1z M106.8,108.5c0,0,0,0.1,0,0.1L106.8,108.5c0.3,0.5,0.6,1.1,1,1.6		c-1.6-2.1-2.8-3.8-3.5-6.5C105,105.3,105.8,106.9,106.8,108.5z M124.9,71.3c0.3,0.1,0.6,0.2,1,0.2c-1.2,0.4-2.5,0.8-3.7,1.1		C123.1,72,123.8,71.5,124.9,71.3z M103.4,100c0.1,1.1,0.1,2.1,0.2,3.2C102.9,102.2,102.8,101.1,103.4,100z M123,199.3		c-42.4,24.4-78.9-33.5-43.3-64.2c7.1-6.1,18.2-11.5,28-10.9c9.4,0.6,21.4,15.2,26.1,23.6C142.5,163.3,139.6,189.7,123,199.3z		 M164.1,155.2c0.9-10.6,3.2-21.3,7-31.3c16.9,0.3,38.4-4,52.8,7c13.9,10.6,20.3,30.5,14.2,46.8c-7.7,20.7-27.9,31.3-49.4,24.8		C167,195.8,162.4,175.5,164.1,155.2z M171,82.2c4.3,2.5,8.5,5.3,12.8,7.8c-6.1-2.5-11.8-5.8-17.6-8.9		C167.8,81.5,169.4,81.8,171,82.2z M105.5,92.2c-0.2,0.5-0.3,1-0.5,1.5c0.2-1.2,0.6-2.4,1.3-3.4C106.1,91.2,106.5,89.6,105.5,92.2z		 M164.7,80.7c0.6,0.3,1.3,0.7,1.9,1.1c-0.8-0.4-1.7-0.9-2.5-1.3C164.2,80.6,164.4,80.7,164.7,80.7z M157.3,73.5		c-2.1-0.4-3.8-1.2-5.9-1.9c2.9,0.5,5.6,1.4,8.2,2.7C158.8,74,158,73.7,157.3,73.5z M116.4,78c0.1-0.2,0.3-0.3,0.5-0.3		C116.8,77.7,116.6,77.9,116.4,78z M163.2,80.4c0.5,0.2,1,0.4,1.4,0.6c-0.6-0.2-1.2-0.5-1.8-0.7C162.9,80.3,163.1,80.3,163.2,80.4z		 M153.6,71.1c-4.3-1.1-8.8-1.8-13.2-2.6C145.1,68.5,149.3,69.5,153.6,71.1z M134.9,68c0.2,0.1,0.4,0.1,0.5,0.2		c-0.9,0.1-1.9,0.1-2.8-0.1C133.4,67.9,134.2,67.9,134.9,68z M117.4,71.5c1.2-0.8,2.1-1.5,3.5-1.2L117.4,71.5z M167.8,76.4		c-3.9-1.8-7.8-3.8-11.9-5.4C160.1,71.9,164.2,74.3,167.8,76.4z M109.6,75.6c0,0-0.1,0.1-0.1,0.1C109.5,75.7,109.5,75.6,109.6,75.6z		 M110.7,74.7c0.1,0,0.2-0.1,0.3-0.1c-0.4,0.3-0.8,0.6-1.1,0.9L110.7,74.7z M182.4,95.1c0.2-0.2,0.3-0.3,0.5-0.5		c-0.4,0.4-2.6,0.7-3.3,0.8c0.5-0.5,0.9-1,1.4-1.5c-0.1,0.1-0.2,0.2-0.4,0.2c0.3-0.3,0.5-0.6,0.8-0.8c-1.2,1.3-4.4,2.2-5.9,3.5		c-2.6,2.3-4.8,6.2-6.7,9.1c-1.9,2.9-3.6,5.9-5.2,9.1c-8.7,0.1-17.4,0.1-26.2,0.2c-7,0-17.4,2.1-23.1-1.4		c-10.6-6.6-8.8-21.5-2.2-29.8c19-23.8,53.9,1,72.8,10.6C184.2,94.8,183,95,182.4,95.1z M157.2,70.5c-1-0.3-1.9-0.6-2.9-0.9		C155.4,69.6,156.3,69.9,157.2,70.5z M117.3,70.2c1.9-1.1,3.8-1.8,5.9-1.9c-0.9,0.4-1.8,0.7-2.7,0.9c0,0,0.1,0,0.1,0		c-3.5,1.3-6.6,3.3-9.7,5.3C112.7,72.7,114.9,71.2,117.3,70.2z"/></g><g>	<path d="M349.6,236.1h3.9v18.5h9.1v3.3h-12.9V236.1z"/>	<path d="M365.7,241.6h3.8v16.4h-3.8V241.6z M367.6,238.7c-0.7,0-1.3-0.2-1.7-0.6c-0.4-0.4-0.7-0.9-0.7-1.6c0-0.6,0.2-1.2,0.7-1.6		c0.4-0.4,1-0.6,1.7-0.6c0.7,0,1.3,0.2,1.7,0.6c0.4,0.4,0.7,0.9,0.7,1.6c0,0.6-0.2,1.2-0.7,1.6C368.8,238.5,368.3,238.7,367.6,238.7		z"/>	<path d="M382,258.3c-0.8,0-1.5-0.2-2.3-0.5c-0.8-0.4-1.5-0.9-2.2-1.6h-0.1l-0.3,1.7h-3v-23.5h3.8v6.1l-0.1,2.7		c0.7-0.6,1.4-1.1,2.2-1.5c0.8-0.4,1.6-0.6,2.5-0.6c1,0,1.9,0.2,2.7,0.6c0.8,0.4,1.5,0.9,2,1.7c0.6,0.7,1,1.6,1.3,2.6		c0.3,1,0.4,2.2,0.4,3.4c0,1.4-0.2,2.6-0.6,3.7c-0.4,1.1-0.9,2-1.5,2.8c-0.6,0.8-1.4,1.3-2.2,1.7C383.8,258.1,383,258.3,382,258.3z		 M381.2,255.2c1.1,0,2-0.5,2.7-1.4c0.7-0.9,1.1-2.3,1.1-4.2c0-1.6-0.3-2.9-0.8-3.8c-0.6-0.9-1.5-1.4-2.7-1.4		c-1.2,0-2.4,0.6-3.6,1.8v7.6c0.6,0.5,1.1,0.9,1.7,1.1C380.2,255.1,380.8,255.2,381.2,255.2z"/>	<path d="M392.6,241.6h3.2l0.3,2.9h0.1c0.6-1.1,1.3-1.9,2.1-2.4c0.8-0.6,1.7-0.8,2.5-0.8c0.8,0,1.4,0.1,1.9,0.3l-0.7,3.3		c-0.3-0.1-0.6-0.2-0.8-0.2c-0.2,0-0.5-0.1-0.9-0.1c-0.6,0-1.3,0.2-2,0.7c-0.7,0.5-1.3,1.4-1.8,2.6v10h-3.8V241.6z"/>	<path d="M411.1,258.3c-1.1,0-2.2-0.2-3.2-0.6c-1-0.4-1.8-0.9-2.6-1.7c-0.7-0.7-1.3-1.6-1.7-2.7c-0.4-1.1-0.6-2.3-0.6-3.6		c0-1.3,0.2-2.5,0.6-3.6c0.4-1.1,1-2,1.7-2.7c0.7-0.7,1.5-1.3,2.4-1.7c0.9-0.4,1.8-0.6,2.8-0.6c1.1,0,2.1,0.2,2.9,0.6		c0.8,0.4,1.5,0.9,2.1,1.6c0.6,0.7,1,1.5,1.3,2.5c0.3,1,0.4,2,0.4,3.1c0,0.4,0,0.7-0.1,1.1c0,0.3-0.1,0.6-0.1,0.8h-10.4		c0.2,1.5,0.7,2.6,1.5,3.4c0.9,0.8,1.9,1.2,3.3,1.2c0.7,0,1.4-0.1,2-0.3c0.6-0.2,1.2-0.5,1.8-0.9l1.3,2.4c-0.8,0.5-1.6,0.9-2.6,1.3		C413.2,258.2,412.2,258.3,411.1,258.3z M414,248.2c0-1.3-0.3-2.3-0.8-3c-0.5-0.7-1.4-1.1-2.5-1.1c-1,0-1.8,0.3-2.6,1		c-0.7,0.7-1.2,1.7-1.4,3H414z"/>	<path d="M421.4,236.1h7c1.1,0,2.2,0.1,3.1,0.3c0.9,0.2,1.8,0.5,2.5,0.9c0.7,0.4,1.2,1,1.6,1.6c0.4,0.7,0.6,1.5,0.6,2.5		c0,1-0.3,2-0.8,2.9c-0.5,0.9-1.3,1.5-2.2,1.8v0.1c1.2,0.3,2.2,0.8,3,1.7c0.8,0.9,1.2,2,1.2,3.5c0,1.1-0.2,2-0.6,2.8		c-0.4,0.8-1,1.5-1.7,2c-0.7,0.5-1.6,0.9-2.6,1.2c-1,0.3-2.1,0.4-3.3,0.4h-7.5V236.1z M428.5,254.9c1.6,0,2.8-0.3,3.7-0.9		c0.9-0.6,1.3-1.5,1.3-2.7c0-1.2-0.4-2-1.3-2.5c-0.8-0.5-2.1-0.8-3.7-0.8h-3.3v6.9H428.5z M428,245.1c1.5,0,2.6-0.3,3.3-0.8		c0.7-0.6,1-1.3,1-2.2c0-1.1-0.4-1.8-1.1-2.3c-0.7-0.4-1.8-0.7-3.2-0.7h-2.8v6H428z"/>	<path d="M440.9,241.6h3.8v16.4h-3.8V241.6z M442.9,238.7c-0.7,0-1.3-0.2-1.7-0.6c-0.4-0.4-0.7-0.9-0.7-1.6c0-0.6,0.2-1.2,0.7-1.6		c0.4-0.4,1-0.6,1.7-0.6c0.7,0,1.3,0.2,1.7,0.6c0.4,0.4,0.7,0.9,0.7,1.6c0,0.6-0.2,1.2-0.7,1.6C444.1,238.5,443.6,238.7,442.9,238.7		z"/>	<path d="M449.7,234.4h3.8v14.7h0.1l6.1-7.5h4.2l-5.6,6.7l6.2,9.7h-4.2l-4.2-7.1l-2.6,2.9v4.2h-3.8V234.4z"/>	<path d="M473.3,258.3c-1.1,0-2.2-0.2-3.2-0.6c-1-0.4-1.8-0.9-2.6-1.7c-0.7-0.7-1.3-1.6-1.7-2.7c-0.4-1.1-0.6-2.3-0.6-3.6		c0-1.3,0.2-2.5,0.6-3.6c0.4-1.1,1-2,1.7-2.7c0.7-0.7,1.5-1.3,2.4-1.7c0.9-0.4,1.8-0.6,2.8-0.6c1.1,0,2.1,0.2,2.9,0.6		c0.8,0.4,1.5,0.9,2.1,1.6c0.6,0.7,1,1.5,1.3,2.5c0.3,1,0.4,2,0.4,3.1c0,0.4,0,0.7,0,1.1c0,0.3-0.1,0.6-0.1,0.8H469		c0.2,1.5,0.7,2.6,1.5,3.4c0.9,0.8,1.9,1.2,3.3,1.2c0.7,0,1.4-0.1,2-0.3c0.6-0.2,1.2-0.5,1.8-0.9l1.3,2.4c-0.8,0.5-1.6,0.9-2.6,1.3		C475.3,258.2,474.3,258.3,473.3,258.3z M476.2,248.2c0-1.3-0.3-2.3-0.8-3c-0.5-0.7-1.4-1.1-2.5-1.1c-1,0-1.8,0.3-2.6,1		c-0.7,0.7-1.2,1.7-1.4,3H476.2z"/>	<path d="M485.3,258.3c-0.7,0-1.3-0.2-1.8-0.7c-0.5-0.5-0.7-1.1-0.7-1.9c0-0.8,0.2-1.4,0.7-1.9c0.5-0.5,1.1-0.7,1.8-0.7		c0.7,0,1.3,0.2,1.8,0.7c0.5,0.5,0.7,1.1,0.7,1.9c0,0.8-0.2,1.4-0.7,1.9C486.6,258.1,486.1,258.3,485.3,258.3z"/>	<path d="M492.3,241.6h3.8v16.4h-3.8V241.6z M494.3,238.7c-0.7,0-1.3-0.2-1.7-0.6c-0.4-0.4-0.7-0.9-0.7-1.6c0-0.6,0.2-1.2,0.7-1.6		c0.4-0.4,1-0.6,1.7-0.6c0.7,0,1.3,0.2,1.7,0.6c0.4,0.4,0.7,0.9,0.7,1.6c0,0.6-0.2,1.2-0.7,1.6C495.5,238.5,495,238.7,494.3,238.7z"		/>	<path d="M501.1,241.6h3.2l0.3,2.2h0.1c0.7-0.7,1.5-1.3,2.4-1.8c0.9-0.5,1.8-0.8,3-0.8c1.8,0,3,0.6,3.8,1.7c0.8,1.1,1.2,2.7,1.2,4.8		v10.3h-3.8v-9.8c0-1.4-0.2-2.3-0.6-2.9c-0.4-0.6-1.1-0.8-2-0.8c-0.7,0-1.3,0.2-1.9,0.5c-0.5,0.3-1.2,0.8-1.8,1.5v11.4h-3.8V241.6z"		/>	<path d="M528.1,237.4c-0.6-0.3-1.2-0.4-1.8-0.4c-1.4,0-2.1,0.9-2.1,2.8v1.8h3.2v3h-3.2v13.3h-3.8v-13.3h-2.2v-2.9l2.2-0.2v-1.7		c0-0.8,0.1-1.6,0.3-2.3c0.2-0.7,0.5-1.3,1-1.9c0.4-0.5,1-0.9,1.7-1.2c0.7-0.3,1.5-0.4,2.5-0.4c0.6,0,1.1,0.1,1.6,0.2		c0.5,0.1,1,0.2,1.3,0.4L528.1,237.4z"/>	<path d="M536.7,258.3c-1,0-2-0.2-2.9-0.6c-0.9-0.4-1.8-0.9-2.5-1.7c-0.7-0.7-1.3-1.6-1.7-2.7c-0.4-1.1-0.6-2.3-0.6-3.6		c0-1.4,0.2-2.6,0.6-3.6c0.4-1.1,1-2,1.7-2.7c0.7-0.7,1.5-1.3,2.5-1.7c0.9-0.4,1.9-0.6,2.9-0.6s2,0.2,2.9,0.6		c0.9,0.4,1.8,0.9,2.5,1.7c0.7,0.7,1.3,1.6,1.7,2.7c0.4,1.1,0.7,2.3,0.7,3.6c0,1.4-0.2,2.6-0.7,3.6c-0.4,1.1-1,2-1.7,2.7		c-0.7,0.7-1.5,1.3-2.5,1.7C538.7,258.1,537.7,258.3,536.7,258.3z M536.7,255.2c1.2,0,2.1-0.5,2.8-1.5c0.7-1,1-2.3,1-3.9		c0-1.7-0.3-3-1-4c-0.7-1-1.6-1.5-2.8-1.5c-1.2,0-2.1,0.5-2.8,1.5c-0.7,1-1,2.3-1,4c0,1.6,0.3,3,1,3.9		C534.5,254.7,535.5,255.2,536.7,255.2z"/></g><g>	<path d="M542.8,176.2c5.3-19-2.7-40-17.8-52.2c-16-12.9-35.8-9.3-55-9.1c3.2-6,7.5-12,12.5-16.7c-0.2,0.3-2.7,0.1-3.5,0.1		c0.2-0.2,0.4-0.4,0.6-0.6c-0.3,0.4-1.3,0.1-2.2,0c0.9-1.1,1.9-2.1,2.9-3.1c22.4,11.2,54.7-6.8,45.4-33.7		C521,47.7,506.8,41,493.5,44.7c-14.4,4.1-19.1,18.2-18.2,31.8c0-0.4,0.1-0.8,0.2-1.2c0,1,0.1,2,0.2,2.9c-0.1-0.9,1.3-2.8,1.7-3.5		c0,1.1,0.1,2.2,0.1,3.2c0-0.1,0.1-0.3,0.2-0.5c0.1,1,0.1,2,0.2,3c-0.1-0.6,1.3-5,1.6-5.4c0.1,1.7,0.2,3.4,0.3,5.1		c0,0.1,1.4-4.4,1.2-4.1c0,0.7,0.1,1.5,0.1,2.2c-0.2-2.7,3.6-5.9,4.6-8c3.1-6.4,3.1-12,10.4-15.1c16.6-7,26.5,15.9,15.5,27.2		c-11.4,11.8-27,5.6-38.9-1.5c-17.1-10.2-31.3-15.7-51.3-13.7c0.1,0,0.1,0,0.2,0c-2,0.4-3.9,0.8-5.9,1.2c0.2,0,0.3,0,0.5-0.1		c-2,0.6-3.9,1.6-5.8,2.4c0.1,0,0.2-0.1,0.3-0.1c-1.6,1-3.3,2-4.9,3c0.4-0.2,0.8-0.4,1.2-0.7c-3.7,2.7-6,6.2-8.8,9.6		c0.1-0.2,0.3-0.3,0.4-0.5c-0.9,1.7-1.8,3.4-2.9,5c0.2-0.3,0.3-0.5,0.5-0.8c-4.6,10.1-2.4,20.1,3.6,29c-23,1.4-44.7,18.1-49.8,41.1		c-4.9,22,7.7,47.8,29.2,55.6c22.7,8.2,49.6-1,59-23.9C449,162,438.9,142,419.7,124c11.7,0,23.5-0.1,35.2-0.2		c-9.7,26.9-13.6,66,13.8,84C496.8,226.2,536.3,208.5,542.8,176.2z M407.4,73.7c-2.2,1.7-4.6,4.3-6.5,6.3		C402.5,77.6,404.9,75.1,407.4,73.7z M421.1,67.9c1.2-0.4,2.5-0.5,3.8-0.3c-2.8,0.4-5.9,1.3-8.7,2C418,68.8,419.3,68.2,421.1,67.9z		 M401.7,102.4c-0.2-0.5-0.4-0.9-0.6-1.4c0.6,1.8,1.3,3.7,1.9,5.5c-0.2-0.7-0.4-1.5-0.6-2.2c0.7,1.9,1.6,3.7,2.4,5.4		c-2.3-2.8-4.1-6.1-3.8-9.9C401.3,100.7,401.5,101.5,401.7,102.4z M401.7,102.3c0,0.1,0.1,0.2,0.1,0.4		C401.8,102.6,401.7,102.5,401.7,102.3z M412.3,71.6c0.5-0.1,0.9-0.3,1.4-0.4l-4,2.2c0,0,0.1-0.1,0.1-0.1c-0.2,0.2-0.3,0.3-0.5,0.4		C410.1,72.8,411.2,72.1,412.3,71.6z M400.1,101.1c0.1,0.7,0.3,1.5,0.4,2.2c-1.3-1.3-1.5-2.6-0.5-4c0,0.4,0,0.8,0.1,1.2		c0-0.1-0.1-0.3-0.1-0.4C400,100.5,400.1,100.8,400.1,101.1z M401.8,108.5c0,0,0,0.1,0,0.1L401.8,108.5c0.3,0.5,0.6,1.1,1,1.6		c-1.6-2.1-2.8-3.8-3.5-6.5C400,105.3,400.8,106.9,401.8,108.5z M419.9,71.3c0.3,0.1,0.6,0.2,1,0.2c-1.2,0.4-2.5,0.8-3.7,1.1		C418.1,72,418.9,71.5,419.9,71.3z M398.4,100c0.1,1.1,0.1,2.1,0.2,3.2C397.9,102.2,397.8,101.1,398.4,100z M418,199.3		c-42.4,24.4-78.9-33.5-43.3-64.2c7.1-6.1,18.2-11.5,28-10.9c9.4,0.6,21.4,15.2,26.1,23.6C437.5,163.3,434.6,189.7,418,199.3z		 M459.1,155.2c0.9-10.6,3.2-21.3,7-31.3c16.9,0.3,38.4-4,52.8,7c13.9,10.6,20.3,30.5,14.2,46.8c-7.7,20.7-27.9,31.3-49.4,24.8		C462,195.8,457.4,175.5,459.1,155.2z M466,82.2c4.3,2.5,8.5,5.3,12.8,7.8c-6.1-2.5-11.8-5.8-17.6-8.9		C462.8,81.5,464.4,81.8,466,82.2z M400.5,92.2c-0.2,0.5-0.3,1-0.5,1.5c0.2-1.2,0.6-2.4,1.3-3.4C401.1,91.2,401.5,89.6,400.5,92.2z		 M459.7,80.7c0.6,0.3,1.3,0.7,1.9,1.1c-0.8-0.4-1.7-0.9-2.5-1.3C459.2,80.6,459.4,80.7,459.7,80.7z M452.3,73.5		c-2.1-0.4-3.8-1.2-5.9-1.9c2.9,0.5,5.6,1.4,8.2,2.7C453.8,74,453,73.7,452.3,73.5z M411.4,78c0.1-0.2,0.3-0.3,0.5-0.3		C411.8,77.7,411.6,77.9,411.4,78z M458.2,80.4c0.5,0.2,1,0.4,1.4,0.6c-0.6-0.2-1.2-0.5-1.8-0.7C457.9,80.3,458.1,80.3,458.2,80.4z		 M448.6,71.1c-4.3-1.1-8.8-1.8-13.2-2.6C440.1,68.5,444.3,69.5,448.6,71.1z M429.9,68c0.2,0.1,0.4,0.1,0.5,0.2		c-0.9,0.1-1.9,0.1-2.8-0.1C428.4,67.9,429.2,67.9,429.9,68z M412.4,71.5c1.2-0.8,2.1-1.5,3.5-1.2L412.4,71.5z M462.8,76.4		c-3.9-1.8-7.8-3.8-11.9-5.4C455.1,71.9,459.2,74.3,462.8,76.4z M404.6,75.6c0,0-0.1,0.1-0.1,0.1C404.5,75.7,404.5,75.6,404.6,75.6z		 M405.7,74.7c0.1,0,0.2-0.1,0.3-0.1c-0.4,0.3-0.8,0.6-1.1,0.9L405.7,74.7z M477.4,95.1c0.2-0.2,0.3-0.3,0.5-0.5		c-0.4,0.4-2.6,0.7-3.3,0.8c0.5-0.5,0.9-1,1.4-1.5c-0.1,0.1-0.2,0.2-0.4,0.2c0.3-0.3,0.5-0.6,0.8-0.8c-1.2,1.3-4.4,2.2-5.9,3.5		c-2.6,2.3-4.8,6.2-6.7,9.1c-1.9,2.9-3.6,5.9-5.2,9.1c-8.7,0.1-17.4,0.1-26.2,0.2c-7,0-17.4,2.1-23.1-1.4		c-10.6-6.6-8.8-21.5-2.2-29.8c19-23.8,53.9,1,72.8,10.6C479.2,94.8,478,95,477.4,95.1z M452.2,70.5c-1-0.3-1.9-0.6-2.9-0.9		C450.4,69.6,451.3,69.9,452.2,70.5z M412.3,70.2c1.9-1.1,3.8-1.8,5.9-1.9c-0.9,0.4-1.8,0.7-2.7,0.9c0,0,0.1,0,0.1,0		c-3.5,1.3-6.6,3.3-9.7,5.3C407.7,72.7,409.9,71.2,412.3,70.2z"/></g><g>	<path d="M54.6,539.1h3.9v18.5h9.1v3.3H54.6V539.1z"/>	<path d="M70.6,544.6h3.8v16.4h-3.8V544.6z M72.6,541.7c-0.7,0-1.3-0.2-1.7-0.6c-0.4-0.4-0.7-0.9-0.7-1.6c0-0.6,0.2-1.2,0.7-1.6		c0.4-0.4,1-0.6,1.7-0.6c0.7,0,1.3,0.2,1.7,0.6c0.4,0.4,0.7,0.9,0.7,1.6c0,0.6-0.2,1.2-0.7,1.6C73.8,541.5,73.3,541.7,72.6,541.7z"		/>	<path d="M87,561.3c-0.8,0-1.5-0.2-2.3-0.5c-0.8-0.4-1.5-0.9-2.2-1.6h-0.1l-0.3,1.7h-3v-23.5h3.8v6.1l-0.1,2.7		c0.7-0.6,1.4-1.1,2.2-1.5c0.8-0.4,1.6-0.6,2.5-0.6c1,0,1.9,0.2,2.7,0.6c0.8,0.4,1.5,0.9,2,1.7c0.6,0.7,1,1.6,1.3,2.6		c0.3,1,0.4,2.2,0.4,3.4c0,1.4-0.2,2.6-0.6,3.7c-0.4,1.1-0.9,2-1.5,2.8c-0.6,0.8-1.4,1.3-2.2,1.7C88.8,561.1,88,561.3,87,561.3z		 M86.2,558.2c1.1,0,2-0.5,2.7-1.4c0.7-0.9,1.1-2.3,1.1-4.2c0-1.6-0.3-2.9-0.8-3.8c-0.6-0.9-1.5-1.4-2.7-1.4c-1.2,0-2.4,0.6-3.6,1.8		v7.6c0.6,0.5,1.1,0.9,1.7,1.1C85.2,558.1,85.8,558.2,86.2,558.2z"/>	<path d="M97.6,544.6h3.2l0.3,2.9h0.1c0.6-1.1,1.3-1.9,2.1-2.4c0.8-0.6,1.7-0.8,2.5-0.8c0.8,0,1.4,0.1,1.9,0.3l-0.7,3.3		c-0.3-0.1-0.6-0.2-0.8-0.2c-0.2,0-0.5-0.1-0.9-0.1c-0.6,0-1.3,0.2-2,0.7c-0.7,0.5-1.3,1.4-1.8,2.6v10h-3.8V544.6z"/>	<path d="M116.1,561.3c-1.1,0-2.2-0.2-3.2-0.6c-1-0.4-1.8-0.9-2.6-1.7c-0.7-0.7-1.3-1.6-1.7-2.7c-0.4-1.1-0.6-2.3-0.6-3.6		c0-1.3,0.2-2.5,0.6-3.6c0.4-1.1,1-2,1.7-2.7c0.7-0.7,1.5-1.3,2.4-1.7c0.9-0.4,1.8-0.6,2.8-0.6c1.1,0,2.1,0.2,2.9,0.6		c0.8,0.4,1.5,0.9,2.1,1.6c0.6,0.7,1,1.5,1.3,2.5c0.3,1,0.4,2,0.4,3.1c0,0.4,0,0.7-0.1,1.1c0,0.3-0.1,0.6-0.1,0.8h-10.4		c0.2,1.5,0.7,2.6,1.5,3.4c0.9,0.8,1.9,1.2,3.3,1.2c0.7,0,1.4-0.1,2-0.3c0.6-0.2,1.2-0.5,1.8-0.9l1.3,2.4c-0.8,0.5-1.6,0.9-2.6,1.3		C118.2,561.2,117.2,561.3,116.1,561.3z M119,551.2c0-1.3-0.3-2.3-0.8-3c-0.5-0.7-1.4-1.1-2.5-1.1c-1,0-1.8,0.3-2.6,1		c-0.7,0.7-1.2,1.7-1.4,3H119z"/>	<path d="M126.4,539.1h7c1.1,0,2.2,0.1,3.1,0.3c0.9,0.2,1.8,0.5,2.5,0.9c0.7,0.4,1.2,1,1.6,1.6c0.4,0.7,0.6,1.5,0.6,2.5		c0,1-0.3,2-0.8,2.9c-0.5,0.9-1.3,1.5-2.2,1.8v0.1c1.2,0.3,2.2,0.8,3,1.7c0.8,0.9,1.2,2,1.2,3.5c0,1.1-0.2,2-0.6,2.8		c-0.4,0.8-1,1.5-1.7,2c-0.7,0.5-1.6,0.9-2.6,1.2c-1,0.3-2.1,0.4-3.3,0.4h-7.5V539.1z M133.5,557.9c1.6,0,2.8-0.3,3.7-0.9		c0.9-0.6,1.3-1.5,1.3-2.7c0-1.2-0.4-2-1.3-2.5c-0.8-0.5-2.1-0.8-3.7-0.8h-3.3v6.9H133.5z M133,548.1c1.5,0,2.6-0.3,3.3-0.8		c0.7-0.6,1-1.3,1-2.2c0-1.1-0.4-1.8-1.1-2.3c-0.7-0.4-1.8-0.7-3.2-0.7h-2.8v6H133z"/>	<path d="M145.9,544.6h3.8v16.4h-3.8V544.6z M147.9,541.7c-0.7,0-1.3-0.2-1.7-0.6c-0.4-0.4-0.7-0.9-0.7-1.6c0-0.6,0.2-1.2,0.7-1.6		c0.4-0.4,1-0.6,1.7-0.6c0.7,0,1.3,0.2,1.7,0.6c0.4,0.4,0.7,0.9,0.7,1.6c0,0.6-0.2,1.2-0.7,1.6C149.1,541.5,148.5,541.7,147.9,541.7		z"/>	<path d="M154.7,537.4h3.8v14.7h0.1l6.1-7.5h4.2l-5.6,6.7l6.2,9.7h-4.2l-4.2-7.1l-2.6,2.9v4.2h-3.8V537.4z"/>	<path d="M178.3,561.3c-1.1,0-2.2-0.2-3.2-0.6c-1-0.4-1.8-0.9-2.6-1.7c-0.7-0.7-1.3-1.6-1.7-2.7c-0.4-1.1-0.6-2.3-0.6-3.6		c0-1.3,0.2-2.5,0.6-3.6c0.4-1.1,1-2,1.7-2.7c0.7-0.7,1.5-1.3,2.4-1.7c0.9-0.4,1.8-0.6,2.8-0.6c1.1,0,2.1,0.2,2.9,0.6		c0.8,0.4,1.5,0.9,2.1,1.6c0.6,0.7,1,1.5,1.3,2.5c0.3,1,0.4,2,0.4,3.1c0,0.4,0,0.7,0,1.1c0,0.3-0.1,0.6-0.1,0.8H174		c0.2,1.5,0.7,2.6,1.5,3.4c0.9,0.8,1.9,1.2,3.3,1.2c0.7,0,1.4-0.1,2-0.3c0.6-0.2,1.2-0.5,1.8-0.9l1.3,2.4c-0.8,0.5-1.6,0.9-2.6,1.3		C180.3,561.2,179.3,561.3,178.3,561.3z M181.2,551.2c0-1.3-0.3-2.3-0.8-3c-0.5-0.7-1.4-1.1-2.5-1.1c-1,0-1.8,0.3-2.6,1		c-0.7,0.7-1.2,1.7-1.4,3H181.2z"/>	<path d="M190.3,561.3c-0.7,0-1.3-0.2-1.8-0.7c-0.5-0.5-0.7-1.1-0.7-1.9c0-0.8,0.2-1.4,0.7-1.9c0.5-0.5,1.1-0.7,1.8-0.7		c0.7,0,1.3,0.2,1.8,0.7c0.5,0.5,0.7,1.1,0.7,1.9c0,0.8-0.2,1.4-0.7,1.9C191.6,561.1,191.1,561.3,190.3,561.3z"/>	<path d="M197.3,544.6h3.8v16.4h-3.8V544.6z M199.3,541.7c-0.7,0-1.3-0.2-1.7-0.6c-0.4-0.4-0.7-0.9-0.7-1.6c0-0.6,0.2-1.2,0.7-1.6		c0.4-0.4,1-0.6,1.7-0.6c0.7,0,1.3,0.2,1.7,0.6c0.4,0.4,0.7,0.9,0.7,1.6c0,0.6-0.2,1.2-0.7,1.6C200.5,541.5,200,541.7,199.3,541.7z"		/>	<path d="M206.1,544.6h3.2l0.3,2.2h0.1c0.7-0.7,1.5-1.3,2.4-1.8c0.9-0.5,1.8-0.8,3-0.8c1.8,0,3,0.6,3.8,1.7c0.8,1.1,1.2,2.7,1.2,4.8		v10.3h-3.8v-9.8c0-1.4-0.2-2.3-0.6-2.9c-0.4-0.6-1.1-0.8-2-0.8c-0.7,0-1.3,0.2-1.9,0.5c-0.5,0.3-1.2,0.8-1.8,1.5v11.4h-3.8V544.6z"		/>	<path d="M233.1,540.4c-0.6-0.3-1.2-0.4-1.8-0.4c-1.4,0-2.1,0.9-2.1,2.8v1.8h3.2v3h-3.2v13.3h-3.8v-13.3h-2.2v-2.9l2.2-0.2v-1.7		c0-0.8,0.1-1.6,0.3-2.3c0.2-0.7,0.5-1.3,1-1.9c0.4-0.5,1-0.9,1.7-1.2c0.7-0.3,1.5-0.4,2.5-0.4c0.6,0,1.1,0.1,1.6,0.2		c0.5,0.1,1,0.2,1.3,0.4L233.1,540.4z"/>	<path d="M241.7,561.3c-1,0-2-0.2-2.9-0.6c-0.9-0.4-1.8-0.9-2.5-1.7c-0.7-0.7-1.3-1.6-1.7-2.7c-0.4-1.1-0.6-2.3-0.6-3.6		c0-1.4,0.2-2.6,0.6-3.6c0.4-1.1,1-2,1.7-2.7c0.7-0.7,1.5-1.3,2.5-1.7c0.9-0.4,1.9-0.6,2.9-0.6c1,0,2,0.2,2.9,0.6		c0.9,0.4,1.8,0.9,2.5,1.7c0.7,0.7,1.3,1.6,1.7,2.7c0.4,1.1,0.6,2.3,0.6,3.6c0,1.4-0.2,2.6-0.6,3.6c-0.4,1.1-1,2-1.7,2.7		c-0.7,0.7-1.5,1.3-2.5,1.7C243.7,561.1,242.7,561.3,241.7,561.3z M241.7,558.2c1.2,0,2.1-0.5,2.8-1.5c0.7-1,1-2.3,1-3.9		c0-1.7-0.3-3-1-4c-0.7-1-1.6-1.5-2.8-1.5c-1.2,0-2.1,0.5-2.8,1.5c-0.7,1-1,2.3-1,4c0,1.6,0.3,3,1,3.9		C239.5,557.7,240.5,558.2,241.7,558.2z"/></g><g>	<path d="M247.8,479.2c5.3-19-2.7-40-17.8-52.2c-16-12.9-35.8-9.3-55-9.1c3.2-6,7.5-12,12.5-16.7c-0.2,0.3-2.7,0.1-3.5,0.1		c0.2-0.2,0.4-0.4,0.6-0.6c-0.3,0.4-1.3,0.1-2.2,0c0.9-1.1,1.9-2.1,2.9-3.1c22.4,11.2,54.7-6.8,45.4-33.7		c-4.6-13.4-18.8-20.1-32.2-16.3c-14.4,4.1-19.1,18.2-18.2,31.8c0-0.4,0.1-0.8,0.2-1.2c0,1,0.1,2,0.2,2.9c-0.1-0.9,1.3-2.8,1.7-3.5		c0,1.1,0.1,2.2,0.1,3.2c0-0.1,0.1-0.3,0.2-0.5c0.1,1,0.1,2,0.2,3c-0.1-0.6,1.3-5,1.6-5.4c0.1,1.7,0.2,3.4,0.3,5.1		c0,0.1,1.4-4.4,1.2-4.1c0,0.7,0.1,1.5,0.1,2.2c-0.2-2.7,3.6-5.9,4.6-8c3.1-6.4,3.1-12,10.4-15.1c16.6-7,26.5,15.9,15.5,27.2		c-11.4,11.8-27,5.6-38.9-1.5c-17.1-10.2-31.3-15.7-51.3-13.7c0.1,0,0.1,0,0.2,0c-2,0.4-3.9,0.8-5.9,1.2c0.2,0,0.3,0,0.5-0.1		c-2,0.6-3.9,1.6-5.8,2.4c0.1,0,0.2-0.1,0.3-0.1c-1.6,1-3.3,2-4.9,3c0.4-0.2,0.8-0.4,1.2-0.7c-3.7,2.7-6,6.2-8.8,9.6		c0.1-0.2,0.3-0.3,0.4-0.5c-0.9,1.7-1.8,3.4-2.9,5c0.2-0.3,0.3-0.5,0.5-0.8c-4.6,10.1-2.4,20.1,3.6,29c-23,1.4-44.7,18.1-49.8,41.1		c-4.9,22,7.7,47.8,29.2,55.6c22.7,8.2,49.6-1,59-23.9C154,465,143.9,445,124.7,427c11.7,0,23.5-0.1,35.2-0.2		c-9.7,26.9-13.6,66,13.8,84C201.8,529.2,241.3,511.5,247.8,479.2z M112.4,376.7c-2.2,1.7-4.6,4.3-6.5,6.3		C107.5,380.6,109.9,378.1,112.4,376.7z M126.1,370.9c1.2-0.4,2.5-0.5,3.8-0.3c-2.8,0.4-5.9,1.3-8.7,2		C123,371.8,124.3,371.2,126.1,370.9z M106.7,405.4c-0.2-0.5-0.4-0.9-0.6-1.4c0.6,1.8,1.3,3.7,1.9,5.5c-0.2-0.7-0.4-1.5-0.6-2.2		c0.7,1.9,1.6,3.7,2.4,5.4c-2.3-2.8-4.1-6.1-3.8-9.9C106.3,403.7,106.5,404.5,106.7,405.4z M106.7,405.3c0,0.1,0.1,0.2,0.1,0.4		C106.8,405.6,106.7,405.5,106.7,405.3z M117.3,374.6c0.5-0.1,0.9-0.3,1.4-0.4l-4,2.2c0,0,0.1-0.1,0.1-0.1c-0.2,0.2-0.3,0.3-0.5,0.4		C115.1,375.8,116.1,375.1,117.3,374.6z M105.1,404.1c0.1,0.7,0.3,1.5,0.4,2.2c-1.3-1.3-1.5-2.6-0.5-4c0,0.4,0,0.8,0.1,1.2		c0-0.1-0.1-0.3-0.1-0.4C105,403.5,105.1,403.8,105.1,404.1z M106.8,411.5c0,0,0,0.1,0,0.1L106.8,411.5c0.3,0.5,0.6,1.1,1,1.6		c-1.6-2.1-2.8-3.8-3.5-6.5C105,408.3,105.8,409.9,106.8,411.5z M124.9,374.3c0.3,0.1,0.6,0.2,1,0.2c-1.2,0.4-2.5,0.8-3.7,1.1		C123.1,375,123.8,374.5,124.9,374.3z M103.4,403c0.1,1.1,0.1,2.1,0.2,3.2C102.9,405.2,102.8,404.1,103.4,403z M123,502.3		c-42.4,24.4-78.9-33.5-43.3-64.2c7.1-6.1,18.2-11.5,28-10.9c9.4,0.6,21.4,15.2,26.1,23.6C142.5,466.3,139.6,492.7,123,502.3z		 M164.1,458.2c0.9-10.6,3.2-21.3,7-31.3c16.9,0.3,38.4-4,52.8,7c13.9,10.6,20.3,30.5,14.2,46.8c-7.7,20.7-27.9,31.3-49.4,24.8		C167,498.8,162.4,478.5,164.1,458.2z M171,385.2c4.3,2.5,8.5,5.3,12.8,7.8c-6.1-2.5-11.8-5.8-17.6-8.9		C167.8,384.5,169.4,384.8,171,385.2z M105.5,395.2c-0.2,0.5-0.3,1-0.5,1.5c0.2-1.2,0.6-2.4,1.3-3.4		C106.1,394.2,106.5,392.6,105.5,395.2z M164.7,383.7c0.6,0.3,1.3,0.7,1.9,1.1c-0.8-0.4-1.7-0.9-2.5-1.3		C164.2,383.6,164.4,383.7,164.7,383.7z M157.3,376.5c-2.1-0.4-3.8-1.2-5.9-1.9c2.9,0.5,5.6,1.4,8.2,2.7		C158.8,377,158,376.7,157.3,376.5z M116.4,381c0.1-0.2,0.3-0.3,0.5-0.3C116.8,380.7,116.6,380.9,116.4,381z M163.2,383.4		c0.5,0.2,1,0.4,1.4,0.6c-0.6-0.2-1.2-0.5-1.8-0.7C162.9,383.3,163.1,383.3,163.2,383.4z M153.6,374.1c-4.3-1.1-8.8-1.8-13.2-2.6		C145.1,371.5,149.3,372.5,153.6,374.1z M134.9,371c0.2,0.1,0.4,0.1,0.5,0.2c-0.9,0.1-1.9,0.1-2.8-0.1		C133.4,370.9,134.2,370.9,134.9,371z M117.4,374.5c1.2-0.8,2.1-1.5,3.5-1.2L117.4,374.5z M167.8,379.4c-3.9-1.8-7.8-3.8-11.9-5.4		C160.1,374.9,164.2,377.3,167.8,379.4z M109.6,378.6c0,0-0.1,0.1-0.1,0.1C109.5,378.7,109.5,378.6,109.6,378.6z M110.7,377.7		c0.1,0,0.2-0.1,0.3-0.1c-0.4,0.3-0.8,0.6-1.1,0.9L110.7,377.7z M182.4,398.1c0.2-0.2,0.3-0.3,0.5-0.5c-0.4,0.4-2.6,0.7-3.3,0.8		c0.5-0.5,0.9-1,1.4-1.5c-0.1,0.1-0.2,0.2-0.4,0.2c0.3-0.3,0.5-0.6,0.8-0.8c-1.2,1.3-4.4,2.2-5.9,3.5c-2.6,2.3-4.8,6.2-6.7,9.1		c-1.9,2.9-3.6,5.9-5.2,9.1c-8.7,0.1-17.4,0.1-26.2,0.2c-7,0-17.4,2.1-23.1-1.4c-10.6-6.6-8.8-21.5-2.2-29.8		c19-23.8,53.9,1,72.8,10.6C184.2,397.8,183,398,182.4,398.1z M157.2,373.5c-1-0.3-1.9-0.6-2.9-0.9		C155.4,372.6,156.3,372.9,157.2,373.5z M117.3,373.2c1.9-1.1,3.8-1.8,5.9-1.9c-0.9,0.4-1.8,0.7-2.7,0.9c0,0,0.1,0,0.1,0		c-3.5,1.3-6.6,3.3-9.7,5.3C112.7,375.7,114.9,374.2,117.3,373.2z"/></g><g>	<path d="M29.4,783.6h2.8v13.6h6.6v2.4h-9.5V783.6z"/>	<path d="M41.2,787.6H44v12h-2.8V787.6z M42.6,785.5c-0.5,0-0.9-0.1-1.2-0.4c-0.3-0.3-0.5-0.7-0.5-1.1c0-0.5,0.2-0.9,0.5-1.2		c0.3-0.3,0.7-0.5,1.2-0.5c0.5,0,0.9,0.2,1.2,0.5c0.3,0.3,0.5,0.7,0.5,1.2c0,0.5-0.2,0.9-0.5,1.1C43.5,785.3,43.1,785.5,42.6,785.5z		"/>	<path d="M53.2,799.9c-0.6,0-1.1-0.1-1.7-0.4c-0.6-0.3-1.1-0.7-1.6-1.2h-0.1l-0.2,1.3h-2.2v-17.2h2.8v4.4l-0.1,2		c0.5-0.4,1.1-0.8,1.6-1.1c0.6-0.3,1.2-0.4,1.8-0.4c0.7,0,1.4,0.1,2,0.4c0.6,0.3,1.1,0.7,1.5,1.2c0.4,0.5,0.7,1.2,0.9,1.9		c0.2,0.7,0.3,1.6,0.3,2.5c0,1-0.1,1.9-0.4,2.7c-0.3,0.8-0.7,1.5-1.1,2c-0.5,0.6-1,1-1.6,1.3C54.5,799.7,53.9,799.9,53.2,799.9z		 M52.6,797.5c0.8,0,1.5-0.3,2-1c0.5-0.7,0.8-1.7,0.8-3.1c0-1.2-0.2-2.1-0.6-2.8c-0.4-0.7-1.1-1-2-1c-0.8,0-1.7,0.4-2.6,1.3v5.6		c0.4,0.4,0.8,0.6,1.3,0.8C51.9,797.5,52.3,797.5,52.6,797.5z"/>	<path d="M61,787.6h2.3l0.2,2.1h0.1c0.4-0.8,0.9-1.4,1.5-1.8c0.6-0.4,1.2-0.6,1.9-0.6c0.6,0,1,0.1,1.4,0.2l-0.5,2.4		c-0.2-0.1-0.4-0.1-0.6-0.1c-0.2,0-0.4,0-0.7,0c-0.5,0-1,0.2-1.5,0.5c-0.5,0.4-1,1-1.3,1.9v7.3H61V787.6z"/>	<path d="M74.5,799.9c-0.8,0-1.6-0.1-2.3-0.4c-0.7-0.3-1.3-0.7-1.9-1.2c-0.5-0.5-1-1.2-1.3-2c-0.3-0.8-0.5-1.7-0.5-2.6		c0-1,0.2-1.9,0.5-2.6c0.3-0.8,0.7-1.4,1.2-2c0.5-0.5,1.1-1,1.8-1.2c0.7-0.3,1.4-0.4,2.1-0.4c0.8,0,1.5,0.1,2.1,0.4		c0.6,0.3,1.1,0.7,1.6,1.2c0.4,0.5,0.7,1.1,0.9,1.8c0.2,0.7,0.3,1.5,0.3,2.3c0,0.3,0,0.5,0,0.8c0,0.2-0.1,0.4-0.1,0.6h-7.6		c0.1,1.1,0.5,1.9,1.1,2.5c0.6,0.6,1.4,0.9,2.4,0.9c0.5,0,1-0.1,1.5-0.2c0.4-0.2,0.9-0.4,1.3-0.6l1,1.8c-0.6,0.4-1.2,0.7-1.9,0.9		C76,799.7,75.3,799.9,74.5,799.9z M76.7,792.4c0-0.9-0.2-1.7-0.6-2.2c-0.4-0.5-1-0.8-1.8-0.8c-0.7,0-1.3,0.3-1.9,0.8		c-0.5,0.5-0.9,1.2-1,2.2H76.7z"/>	<path d="M82,783.6h5.1c0.8,0,1.6,0.1,2.3,0.2c0.7,0.1,1.3,0.4,1.8,0.7c0.5,0.3,0.9,0.7,1.2,1.2c0.3,0.5,0.4,1.1,0.4,1.9		c0,0.8-0.2,1.5-0.6,2.1c-0.4,0.7-0.9,1.1-1.6,1.3v0.1c0.9,0.2,1.6,0.6,2.2,1.2c0.6,0.6,0.9,1.5,0.9,2.6c0,0.8-0.2,1.5-0.5,2.1		c-0.3,0.6-0.7,1.1-1.3,1.5c-0.5,0.4-1.2,0.7-1.9,0.9c-0.7,0.2-1.6,0.3-2.4,0.3H82V783.6z M87.3,797.4c1.2,0,2.1-0.2,2.7-0.6		c0.6-0.4,1-1.1,1-2c0-0.8-0.3-1.5-0.9-1.8c-0.6-0.4-1.5-0.6-2.7-0.6h-2.4v5.1H87.3z M86.9,790.2c1.1,0,1.9-0.2,2.4-0.6		c0.5-0.4,0.7-1,0.7-1.6c0-0.8-0.3-1.3-0.8-1.7c-0.5-0.3-1.3-0.5-2.3-0.5h-2.1v4.4H86.9z"/>	<path d="M96.4,787.6h2.8v12h-2.8V787.6z M97.8,785.5c-0.5,0-0.9-0.1-1.2-0.4s-0.5-0.7-0.5-1.1c0-0.5,0.2-0.9,0.5-1.2		c0.3-0.3,0.7-0.5,1.2-0.5s0.9,0.2,1.2,0.5c0.3,0.3,0.5,0.7,0.5,1.2c0,0.5-0.2,0.9-0.5,1.1S98.3,785.5,97.8,785.5z"/>	<path d="M102.8,782.3h2.8v10.8h0.1l4.4-5.5h3.1l-4.1,4.9l4.5,7.1h-3.1l-3.1-5.2l-1.9,2.1v3.1h-2.8V782.3z"/>	<path d="M120.1,799.9c-0.8,0-1.6-0.1-2.3-0.4c-0.7-0.3-1.3-0.7-1.9-1.2c-0.5-0.5-1-1.2-1.3-2c-0.3-0.8-0.5-1.7-0.5-2.6		c0-1,0.2-1.9,0.5-2.6c0.3-0.8,0.7-1.4,1.2-2c0.5-0.5,1.1-1,1.8-1.2c0.7-0.3,1.4-0.4,2.1-0.4c0.8,0,1.5,0.1,2.1,0.4		c0.6,0.3,1.1,0.7,1.6,1.2c0.4,0.5,0.7,1.1,0.9,1.8c0.2,0.7,0.3,1.5,0.3,2.3c0,0.3,0,0.5,0,0.8c0,0.2-0.1,0.4-0.1,0.6h-7.6		c0.1,1.1,0.5,1.9,1.1,2.5c0.6,0.6,1.4,0.9,2.4,0.9c0.5,0,1-0.1,1.5-0.2c0.4-0.2,0.9-0.4,1.3-0.6l1,1.8c-0.6,0.4-1.2,0.7-1.9,0.9		C121.6,799.7,120.8,799.9,120.1,799.9z M122.2,792.4c0-0.9-0.2-1.7-0.6-2.2c-0.4-0.5-1-0.8-1.8-0.8c-0.7,0-1.3,0.3-1.9,0.8		c-0.5,0.5-0.9,1.2-1,2.2H122.2z"/>	<path d="M128.9,799.9c-0.5,0-1-0.2-1.3-0.5c-0.4-0.4-0.5-0.8-0.5-1.4c0-0.6,0.2-1,0.5-1.4c0.3-0.4,0.8-0.5,1.3-0.5		c0.5,0,1,0.2,1.3,0.5c0.3,0.4,0.5,0.8,0.5,1.4c0,0.6-0.2,1-0.5,1.4C129.9,799.7,129.4,799.9,128.9,799.9z"/>	<path d="M134,787.6h2.8v12H134V787.6z M135.5,785.5c-0.5,0-0.9-0.1-1.2-0.4c-0.3-0.3-0.5-0.7-0.5-1.1c0-0.5,0.2-0.9,0.5-1.2		c0.3-0.3,0.7-0.5,1.2-0.5c0.5,0,0.9,0.2,1.2,0.5c0.3,0.3,0.5,0.7,0.5,1.2c0,0.5-0.2,0.9-0.5,1.1C136.4,785.3,136,785.5,135.5,785.5		z"/>	<path d="M140.4,787.6h2.3l0.2,1.6h0.1c0.5-0.5,1.1-1,1.7-1.3c0.6-0.4,1.4-0.6,2.2-0.6c1.3,0,2.2,0.4,2.8,1.2c0.6,0.8,0.9,2,0.9,3.5		v7.5h-2.8v-7.2c0-1-0.1-1.7-0.4-2.1c-0.3-0.4-0.8-0.6-1.4-0.6c-0.5,0-1,0.1-1.4,0.4c-0.4,0.3-0.9,0.6-1.4,1.1v8.4h-2.8V787.6z"/>	<path d="M160.3,784.6c-0.4-0.2-0.9-0.3-1.3-0.3c-1,0-1.5,0.7-1.5,2v1.3h2.3v2.2h-2.3v9.8h-2.8v-9.8H153v-2.1l1.6-0.1v-1.2		c0-0.6,0.1-1.2,0.2-1.7c0.1-0.5,0.4-1,0.7-1.4c0.3-0.4,0.7-0.7,1.2-0.9c0.5-0.2,1.1-0.3,1.8-0.3c0.4,0,0.8,0,1.2,0.1		c0.4,0.1,0.7,0.2,1,0.3L160.3,784.6z"/>	<path d="M166.5,799.9c-0.7,0-1.5-0.1-2.1-0.4c-0.7-0.3-1.3-0.7-1.8-1.2c-0.5-0.5-0.9-1.2-1.3-2c-0.3-0.8-0.5-1.7-0.5-2.7		c0-1,0.2-1.9,0.5-2.7c0.3-0.8,0.7-1.4,1.3-2c0.5-0.5,1.1-0.9,1.8-1.2c0.7-0.3,1.4-0.4,2.1-0.4s1.5,0.1,2.2,0.4		c0.7,0.3,1.3,0.7,1.8,1.2c0.5,0.5,0.9,1.2,1.3,2c0.3,0.8,0.5,1.7,0.5,2.7c0,1-0.2,1.9-0.5,2.7c-0.3,0.8-0.7,1.4-1.3,2		c-0.5,0.5-1.1,0.9-1.8,1.2C168,799.7,167.3,799.9,166.5,799.9z M166.5,797.6c0.9,0,1.6-0.4,2.1-1.1c0.5-0.7,0.8-1.7,0.8-2.9		c0-1.2-0.3-2.2-0.8-2.9c-0.5-0.7-1.2-1.1-2.1-1.1s-1.6,0.4-2.1,1.1c-0.5,0.7-0.7,1.7-0.7,2.9c0,1.2,0.2,2.2,0.7,2.9		C165,797.2,165.6,797.6,166.5,797.6z"/></g><g>	<path d="M171,739.7c3.9-13.9-2-29.3-13.1-38.3c-11.7-9.5-26.3-6.8-40.3-6.7c2.3-4.4,5.5-8.8,9.2-12.2c-0.2,0.2-2,0.1-2.6,0.1		c0.1-0.1,0.3-0.3,0.4-0.4c-0.2,0.3-1,0.1-1.6,0c0.7-0.8,1.4-1.5,2.2-2.3c16.4,8.2,40.1-5,33.3-24.7c-3.4-9.8-13.8-14.7-23.6-12		c-10.6,3-14,13.3-13.4,23.3c0-0.3,0-0.6,0.1-0.9c0,0.7,0.1,1.4,0.1,2.1c0-0.6,0.9-2,1.2-2.6c0,0.8,0,1.6,0.1,2.4		c0-0.1,0.1-0.2,0.1-0.3c0,0.7,0.1,1.4,0.2,2.2c0-0.4,1-3.7,1.2-3.9c0,1.3,0.1,2.5,0.2,3.8c0,0.1,1-3.2,0.9-3c0,0.5,0.1,1.1,0.1,1.6		c-0.1-2,2.6-4.3,3.4-5.8c2.3-4.7,2.2-8.8,7.7-11.1c12.2-5.1,19.4,11.7,11.4,19.9c-8.4,8.6-19.8,4.1-28.5-1.1		c-12.5-7.5-22.9-11.5-37.6-10c0,0,0.1,0,0.1,0c-1.4,0.3-2.9,0.6-4.3,0.9c0.1,0,0.2,0,0.4,0c-1.5,0.5-2.8,1.1-4.2,1.8		c0.1,0,0.2-0.1,0.2-0.1c-1.2,0.7-2.4,1.5-3.6,2.2c0.3-0.2,0.6-0.3,0.9-0.5c-2.7,2-4.4,4.5-6.5,7.1c0.1-0.1,0.2-0.2,0.3-0.4		c-0.6,1.3-1.3,2.5-2.1,3.6c0.1-0.2,0.3-0.4,0.4-0.6c-3.4,7.4-1.7,14.7,2.7,21.3c-16.9,1-32.7,13.3-36.5,30.1		c-3.6,16.1,5.6,35,21.4,40.7c16.7,6,36.3-0.7,43.2-17.5c7.9-19.2,0.5-33.8-13.6-47.1c8.6,0,17.2-0.1,25.8-0.1		c-7.1,19.7-10,48.4,10.1,61.5C137.3,776.3,166.2,763.4,171,739.7z M71.8,664.6c-1.6,1.3-3.4,3.1-4.7,4.6		C68.2,667.4,70,665.6,71.8,664.6z M81.9,660.3c0.9-0.3,1.8-0.3,2.8-0.2c-2.1,0.3-4.3,1-6.4,1.5C79.6,661,80.5,660.6,81.9,660.3z		 M67.6,685.6c-0.1-0.3-0.3-0.7-0.4-1c0.5,1.3,0.9,2.7,1.4,4c-0.1-0.5-0.3-1.1-0.4-1.6c0.5,1.4,1.2,2.7,1.8,4		c-1.7-2.1-3-4.5-2.8-7.2C67.3,684.3,67.5,685,67.6,685.6z M67.6,685.6c0,0.1,0.1,0.2,0.1,0.3C67.7,685.7,67.6,685.7,67.6,685.6z		 M75.4,663c0.3-0.1,0.7-0.2,1-0.3l-2.9,1.6c0,0,0.1-0.1,0.1-0.1c-0.1,0.1-0.3,0.2-0.4,0.3C73.8,663.9,74.6,663.4,75.4,663z		 M66.5,684.7c0.1,0.5,0.2,1.1,0.3,1.6c-1-1-1.1-1.9-0.4-2.9c0,0.3,0,0.6,0.1,0.9c0-0.1,0-0.2-0.1-0.3		C66.4,684.2,66.4,684.4,66.5,684.7z M67.7,690.1C67.7,690.1,67.7,690.2,67.7,690.1L67.7,690.1c0.2,0.4,0.5,0.8,0.7,1.1		c-1.2-1.6-2-2.8-2.5-4.8C66.4,687.7,67,688.9,67.7,690.1z M81,662.8c0.2,0.1,0.5,0.1,0.7,0.2c-0.9,0.3-1.8,0.6-2.7,0.8		C79.7,663.3,80.2,663,81,662.8z M65.2,683.8c0,0.8,0.1,1.6,0.2,2.4C64.8,685.4,64.8,684.7,65.2,683.8z M79.6,756.6		c-31.1,17.9-57.8-24.6-31.7-47.1c5.2-4.5,13.3-8.5,20.5-8c6.9,0.4,15.7,11.1,19.1,17.3C93.9,730.2,91.7,749.6,79.6,756.6z		 M109.7,724.3c0.6-7.8,2.3-15.6,5.1-22.9c12.4,0.2,28.1-2.9,38.7,5.1c10.2,7.8,14.8,22.3,10.4,34.3c-5.6,15.1-20.5,22.9-36.2,18.2		C111.8,754,108.5,739.2,109.7,724.3z M114.8,670.8c3.1,1.8,6.2,3.9,9.3,5.7c-4.5-1.8-8.7-4.3-12.9-6.6		C112.4,670.3,113.6,670.5,114.8,670.8z M66.8,678.1c-0.1,0.4-0.2,0.7-0.4,1.1c0.1-0.9,0.4-1.8,0.9-2.5		C67.2,677.4,67.5,676.3,66.8,678.1z M110.1,669.7c0.5,0.2,0.9,0.5,1.4,0.8c-0.6-0.3-1.2-0.6-1.9-0.9		C109.8,669.6,109.9,669.7,110.1,669.7z M104.7,664.4c-1.6-0.3-2.8-0.9-4.3-1.4c2.1,0.3,4.1,1,6,2		C105.8,664.8,105.3,664.6,104.7,664.4z M74.8,667.7c0.1-0.2,0.2-0.2,0.4-0.2C75,667.5,74.9,667.6,74.8,667.7z M109,669.5		c0.4,0.2,0.7,0.3,1.1,0.5c-0.4-0.2-0.9-0.3-1.3-0.5C108.8,669.4,108.9,669.4,109,669.5z M102,662.7c-3.2-0.8-6.4-1.3-9.7-1.9		C95.7,660.8,98.8,661.5,102,662.7z M88.3,660.4c0.1,0,0.3,0.1,0.4,0.1c-0.7,0.1-1.4,0.1-2.1,0C87.2,660.4,87.8,660.3,88.3,660.4z		 M75.4,663c0.9-0.6,1.5-1.1,2.6-0.9L75.4,663z M112.4,666.5c-2.9-1.3-5.7-2.8-8.7-3.9C106.8,663.2,109.7,665,112.4,666.5z		 M69.7,666C69.7,666,69.7,666,69.7,666C69.7,666,69.7,666,69.7,666z M70.5,665.3c0.1,0,0.1-0.1,0.2-0.1c-0.3,0.2-0.6,0.4-0.8,0.7		L70.5,665.3z M123.1,680.2c0.1-0.1,0.2-0.2,0.3-0.3c-0.3,0.3-1.9,0.5-2.4,0.6c0.3-0.4,0.7-0.8,1-1.1c-0.1,0.1-0.2,0.1-0.3,0.2		c0.2-0.2,0.4-0.4,0.6-0.6c-0.8,1-3.2,1.6-4.3,2.5c-1.9,1.7-3.5,4.6-4.9,6.7c-1.4,2.1-2.7,4.3-3.8,6.7c-6.4,0-12.8,0.1-19.2,0.1		c-5.1,0-12.8,1.5-16.9-1c-7.8-4.9-6.5-15.8-1.6-21.8c13.9-17.4,39.5,0.8,53.3,7.8C124.4,680.1,123.5,680.2,123.1,680.2z		 M104.7,662.3c-0.7-0.2-1.4-0.5-2.1-0.7C103.3,661.6,104,661.8,104.7,662.3z M75.4,662c1.4-0.8,2.8-1.3,4.3-1.4		c-0.7,0.3-1.3,0.5-2,0.7c0,0,0,0,0.1,0c-2.6,1-4.8,2.4-7.1,3.9C72,663.8,73.6,662.8,75.4,662z"/></g><g>	<path d="M225,783.6h2.8v13.6h6.6v2.4H225V783.6z"/>	<path d="M236.7,787.6h2.8v12h-2.8V787.6z M238.1,785.5c-0.5,0-0.9-0.1-1.2-0.4c-0.3-0.3-0.5-0.7-0.5-1.1c0-0.5,0.2-0.9,0.5-1.2		c0.3-0.3,0.7-0.5,1.2-0.5c0.5,0,0.9,0.2,1.2,0.5c0.3,0.3,0.5,0.7,0.5,1.2c0,0.5-0.2,0.9-0.5,1.1		C239.1,785.3,238.7,785.5,238.1,785.5z"/>	<path d="M248.7,799.9c-0.6,0-1.1-0.1-1.7-0.4c-0.6-0.3-1.1-0.7-1.6-1.2h-0.1l-0.2,1.3h-2.2v-17.2h2.8v4.4l-0.1,2		c0.5-0.4,1.1-0.8,1.6-1.1c0.6-0.3,1.2-0.4,1.8-0.4c0.7,0,1.4,0.1,2,0.4c0.6,0.3,1.1,0.7,1.5,1.2c0.4,0.5,0.7,1.2,0.9,1.9		c0.2,0.7,0.3,1.6,0.3,2.5c0,1-0.1,1.9-0.4,2.7c-0.3,0.8-0.7,1.5-1.1,2c-0.5,0.6-1,1-1.6,1.3C250.1,799.7,249.4,799.9,248.7,799.9z		 M248.2,797.5c0.8,0,1.5-0.3,2-1c0.5-0.7,0.8-1.7,0.8-3.1c0-1.2-0.2-2.1-0.6-2.8c-0.4-0.7-1.1-1-2-1c-0.8,0-1.7,0.4-2.6,1.3v5.6		c0.4,0.4,0.8,0.6,1.3,0.8C247.4,797.5,247.8,797.5,248.2,797.5z"/>	<path d="M256.5,787.6h2.3l0.2,2.1h0.1c0.4-0.8,0.9-1.4,1.5-1.8c0.6-0.4,1.2-0.6,1.9-0.6c0.6,0,1,0.1,1.4,0.2l-0.5,2.4		c-0.2-0.1-0.4-0.1-0.6-0.1c-0.2,0-0.4,0-0.7,0c-0.5,0-1,0.2-1.5,0.5c-0.5,0.4-1,1-1.3,1.9v7.3h-2.8V787.6z"/>	<path d="M270.1,799.9c-0.8,0-1.6-0.1-2.3-0.4c-0.7-0.3-1.3-0.7-1.9-1.2c-0.5-0.5-1-1.2-1.3-2c-0.3-0.8-0.5-1.7-0.5-2.6		c0-1,0.2-1.9,0.5-2.6c0.3-0.8,0.7-1.4,1.2-2c0.5-0.5,1.1-1,1.8-1.2c0.7-0.3,1.4-0.4,2.1-0.4c0.8,0,1.5,0.1,2.1,0.4		c0.6,0.3,1.1,0.7,1.6,1.2c0.4,0.5,0.7,1.1,0.9,1.8c0.2,0.7,0.3,1.5,0.3,2.3c0,0.3,0,0.5,0,0.8c0,0.2-0.1,0.4-0.1,0.6h-7.6		c0.1,1.1,0.5,1.9,1.1,2.5c0.6,0.6,1.4,0.9,2.4,0.9c0.5,0,1-0.1,1.5-0.2c0.4-0.2,0.9-0.4,1.3-0.6l1,1.8c-0.6,0.4-1.2,0.7-1.9,0.9		C271.6,799.7,270.8,799.9,270.1,799.9z M272.2,792.4c0-0.9-0.2-1.7-0.6-2.2c-0.4-0.5-1-0.8-1.8-0.8c-0.7,0-1.3,0.3-1.9,0.8		c-0.5,0.5-0.9,1.2-1,2.2H272.2z"/>	<path d="M277.6,783.6h5.1c0.8,0,1.6,0.1,2.3,0.2c0.7,0.1,1.3,0.4,1.8,0.7c0.5,0.3,0.9,0.7,1.2,1.2c0.3,0.5,0.4,1.1,0.4,1.9		c0,0.8-0.2,1.5-0.6,2.1c-0.4,0.7-0.9,1.1-1.6,1.3v0.1c0.9,0.2,1.6,0.6,2.2,1.2c0.6,0.6,0.9,1.5,0.9,2.6c0,0.8-0.2,1.5-0.5,2.1		c-0.3,0.6-0.7,1.1-1.3,1.5c-0.5,0.4-1.2,0.7-1.9,0.9c-0.7,0.2-1.6,0.3-2.4,0.3h-5.5V783.6z M282.8,797.4c1.2,0,2.1-0.2,2.7-0.6		c0.6-0.4,1-1.1,1-2c0-0.8-0.3-1.5-0.9-1.8c-0.6-0.4-1.5-0.6-2.7-0.6h-2.4v5.1H282.8z M282.4,790.2c1.1,0,1.9-0.2,2.4-0.6		c0.5-0.4,0.7-1,0.7-1.6c0-0.8-0.3-1.3-0.8-1.7c-0.5-0.3-1.3-0.5-2.3-0.5h-2.1v4.4H282.4z"/>	<path d="M291.9,787.6h2.8v12h-2.8V787.6z M293.3,785.5c-0.5,0-0.9-0.1-1.2-0.4s-0.5-0.7-0.5-1.1c0-0.5,0.2-0.9,0.5-1.2		c0.3-0.3,0.7-0.5,1.2-0.5s0.9,0.2,1.2,0.5c0.3,0.3,0.5,0.7,0.5,1.2c0,0.5-0.2,0.9-0.5,1.1S293.8,785.5,293.3,785.5z"/>	<path d="M298.3,782.3h2.8v10.8h0.1l4.4-5.5h3.1l-4.1,4.9l4.5,7.1H306l-3.1-5.2l-1.9,2.1v3.1h-2.8V782.3z"/>	<path d="M315.6,799.9c-0.8,0-1.6-0.1-2.3-0.4c-0.7-0.3-1.3-0.7-1.9-1.2c-0.5-0.5-1-1.2-1.3-2c-0.3-0.8-0.5-1.7-0.5-2.6		c0-1,0.2-1.9,0.5-2.6c0.3-0.8,0.7-1.4,1.2-2c0.5-0.5,1.1-1,1.8-1.2c0.7-0.3,1.4-0.4,2.1-0.4c0.8,0,1.5,0.1,2.1,0.4		c0.6,0.3,1.1,0.7,1.6,1.2c0.4,0.5,0.7,1.1,0.9,1.8c0.2,0.7,0.3,1.5,0.3,2.3c0,0.3,0,0.5,0,0.8c0,0.2-0.1,0.4-0.1,0.6h-7.6		c0.1,1.1,0.5,1.9,1.1,2.5c0.6,0.6,1.4,0.9,2.4,0.9c0.5,0,1-0.1,1.5-0.2c0.4-0.2,0.9-0.4,1.3-0.6l1,1.8c-0.6,0.4-1.2,0.7-1.9,0.9		C317.1,799.7,316.4,799.9,315.6,799.9z M317.7,792.4c0-0.9-0.2-1.7-0.6-2.2c-0.4-0.5-1-0.8-1.8-0.8c-0.7,0-1.3,0.3-1.9,0.8		c-0.5,0.5-0.9,1.2-1,2.2H317.7z"/>	<path d="M324.4,799.9c-0.5,0-1-0.2-1.3-0.5c-0.4-0.4-0.5-0.8-0.5-1.4c0-0.6,0.2-1,0.5-1.4c0.3-0.4,0.8-0.5,1.3-0.5		c0.5,0,1,0.2,1.3,0.5c0.3,0.4,0.5,0.8,0.5,1.4c0,0.6-0.2,1-0.5,1.4C325.4,799.7,325,799.9,324.4,799.9z"/>	<path d="M329.6,787.6h2.8v12h-2.8V787.6z M331,785.5c-0.5,0-0.9-0.1-1.2-0.4c-0.3-0.3-0.5-0.7-0.5-1.1c0-0.5,0.2-0.9,0.5-1.2		c0.3-0.3,0.7-0.5,1.2-0.5c0.5,0,0.9,0.2,1.2,0.5c0.3,0.3,0.5,0.7,0.5,1.2c0,0.5-0.2,0.9-0.5,1.1C331.9,785.3,331.5,785.5,331,785.5		z"/>	<path d="M336,787.6h2.3l0.2,1.6h0.1c0.5-0.5,1.1-1,1.7-1.3c0.6-0.4,1.4-0.6,2.2-0.6c1.3,0,2.2,0.4,2.8,1.2c0.6,0.8,0.9,2,0.9,3.5		v7.5h-2.8v-7.2c0-1-0.1-1.7-0.4-2.1c-0.3-0.4-0.8-0.6-1.4-0.6c-0.5,0-1,0.1-1.4,0.4c-0.4,0.3-0.9,0.6-1.4,1.1v8.4H336V787.6z"/>	<path d="M355.8,784.6c-0.4-0.2-0.9-0.3-1.3-0.3c-1,0-1.5,0.7-1.5,2v1.3h2.3v2.2h-2.3v9.8h-2.8v-9.8h-1.6v-2.1l1.6-0.1v-1.2		c0-0.6,0.1-1.2,0.2-1.7c0.1-0.5,0.4-1,0.7-1.4c0.3-0.4,0.7-0.7,1.2-0.9c0.5-0.2,1.1-0.3,1.8-0.3c0.4,0,0.8,0,1.2,0.1		c0.4,0.1,0.7,0.2,1,0.3L355.8,784.6z"/>	<path d="M362,799.9c-0.7,0-1.5-0.1-2.1-0.4c-0.7-0.3-1.3-0.7-1.8-1.2c-0.5-0.5-0.9-1.2-1.3-2c-0.3-0.8-0.5-1.7-0.5-2.7		c0-1,0.2-1.9,0.5-2.7c0.3-0.8,0.7-1.4,1.3-2c0.5-0.5,1.1-0.9,1.8-1.2c0.7-0.3,1.4-0.4,2.1-0.4c0.7,0,1.5,0.1,2.2,0.4		c0.7,0.3,1.3,0.7,1.8,1.2c0.5,0.5,0.9,1.2,1.3,2c0.3,0.8,0.5,1.7,0.5,2.7c0,1-0.2,1.9-0.5,2.7c-0.3,0.8-0.7,1.4-1.3,2		c-0.5,0.5-1.1,0.9-1.8,1.2C363.5,799.7,362.8,799.9,362,799.9z M362,797.6c0.9,0,1.6-0.4,2.1-1.1c0.5-0.7,0.8-1.7,0.8-2.9		c0-1.2-0.3-2.2-0.8-2.9c-0.5-0.7-1.2-1.1-2.1-1.1c-0.9,0-1.6,0.4-2.1,1.1c-0.5,0.7-0.7,1.7-0.7,2.9c0,1.2,0.2,2.2,0.7,2.9		C360.5,797.2,361.2,797.6,362,797.6z"/></g><g>	<path d="M366.6,739.7c3.9-13.9-2-29.3-13.1-38.3c-11.7-9.5-26.3-6.8-40.3-6.7c2.3-4.4,5.5-8.8,9.2-12.2c-0.2,0.2-2,0.1-2.6,0.1		c0.1-0.1,0.3-0.3,0.4-0.4c-0.2,0.3-1,0.1-1.6,0c0.7-0.8,1.4-1.5,2.2-2.3c16.4,8.2,40.1-5,33.3-24.7c-3.4-9.8-13.8-14.7-23.6-12		c-10.6,3-14,13.3-13.4,23.3c0-0.3,0-0.6,0.1-0.9c0,0.7,0.1,1.4,0.1,2.1c0-0.6,0.9-2,1.2-2.6c0,0.8,0,1.6,0.1,2.4		c0-0.1,0.1-0.2,0.1-0.3c0,0.7,0.1,1.4,0.2,2.2c0-0.4,1-3.7,1.2-3.9c0,1.3,0.1,2.5,0.2,3.8c0,0.1,1-3.2,0.9-3c0,0.5,0.1,1.1,0.1,1.6		c-0.1-2,2.6-4.3,3.4-5.8c2.3-4.7,2.2-8.8,7.7-11.1c12.2-5.1,19.4,11.7,11.4,19.9c-8.4,8.6-19.8,4.1-28.5-1.1		c-12.5-7.5-22.9-11.5-37.6-10c0,0,0.1,0,0.1,0c-1.4,0.3-2.9,0.6-4.3,0.9c0.1,0,0.2,0,0.4,0c-1.5,0.5-2.8,1.1-4.2,1.8		c0.1,0,0.2-0.1,0.2-0.1c-1.2,0.7-2.4,1.5-3.6,2.2c0.3-0.2,0.6-0.3,0.9-0.5c-2.7,2-4.4,4.5-6.5,7.1c0.1-0.1,0.2-0.2,0.3-0.4		c-0.6,1.3-1.3,2.5-2.1,3.6c0.1-0.2,0.3-0.4,0.4-0.6c-3.4,7.4-1.7,14.7,2.7,21.3c-16.9,1-32.7,13.3-36.5,30.1		c-3.6,16.1,5.6,35,21.4,40.7c16.7,6,36.3-0.7,43.2-17.5c7.9-19.2,0.5-33.8-13.6-47.1c8.6,0,17.2-0.1,25.8-0.1		c-7.1,19.7-10,48.4,10.1,61.5C332.8,776.3,361.8,763.4,366.6,739.7z M267.3,664.6c-1.6,1.3-3.4,3.1-4.7,4.6		C263.7,667.4,265.5,665.6,267.3,664.6z M277.4,660.3c0.9-0.3,1.8-0.3,2.8-0.2c-2.1,0.3-4.3,1-6.4,1.5		C275.1,661,276,660.6,277.4,660.3z M263.2,685.6c-0.1-0.3-0.3-0.7-0.4-1c0.5,1.3,0.9,2.7,1.4,4c-0.1-0.5-0.3-1.1-0.4-1.6		c0.5,1.4,1.2,2.7,1.8,4c-1.7-2.1-3-4.5-2.8-7.2C262.8,684.3,263,685,263.2,685.6z M263.2,685.6c0,0.1,0.1,0.2,0.1,0.3		C263.2,685.7,263.2,685.7,263.2,685.6z M270.9,663c0.3-0.1,0.7-0.2,1-0.3l-2.9,1.6c0,0,0.1-0.1,0.1-0.1c-0.1,0.1-0.3,0.2-0.4,0.3		C269.3,663.9,270.1,663.4,270.9,663z M262,684.7c0.1,0.5,0.2,1.1,0.3,1.6c-1-1-1.1-1.9-0.4-2.9c0,0.3,0,0.6,0.1,0.9		c0-0.1,0-0.2-0.1-0.3C261.9,684.2,262,684.4,262,684.7z M263.2,690.1C263.3,690.1,263.3,690.2,263.2,690.1L263.2,690.1		c0.2,0.4,0.5,0.8,0.7,1.1c-1.2-1.6-2-2.8-2.5-4.8C261.9,687.7,262.5,688.9,263.2,690.1z M276.5,662.8c0.2,0.1,0.5,0.1,0.7,0.2		c-0.9,0.3-1.8,0.6-2.7,0.8C275.2,663.3,275.7,663,276.5,662.8z M260.7,683.8c0,0.8,0.1,1.6,0.2,2.4		C260.3,685.4,260.3,684.7,260.7,683.8z M275.1,756.6c-31.1,17.9-57.8-24.6-31.7-47.1c5.2-4.5,13.3-8.5,20.5-8		c6.9,0.4,15.7,11.1,19.1,17.3C289.4,730.2,287.2,749.6,275.1,756.6z M305.2,724.3c0.6-7.8,2.3-15.6,5.1-22.9		c12.4,0.2,28.1-2.9,38.7,5.1c10.2,7.8,14.8,22.3,10.4,34.3c-5.6,15.1-20.5,22.9-36.2,18.2C307.3,754,304,739.2,305.2,724.3z		 M310.3,670.8c3.1,1.8,6.2,3.9,9.3,5.7c-4.5-1.8-8.7-4.3-12.9-6.6C307.9,670.3,309.1,670.5,310.3,670.8z M262.3,678.1		c-0.1,0.4-0.2,0.7-0.4,1.1c0.1-0.9,0.4-1.8,0.9-2.5C262.7,677.4,263,676.3,262.3,678.1z M305.6,669.7c0.5,0.2,0.9,0.5,1.4,0.8		c-0.6-0.3-1.2-0.6-1.9-0.9C305.3,669.6,305.5,669.7,305.6,669.7z M300.2,664.4c-1.6-0.3-2.8-0.9-4.3-1.4c2.1,0.3,4.1,1,6,2		C301.3,664.8,300.8,664.6,300.2,664.4z M270.3,667.7c0.1-0.2,0.2-0.2,0.4-0.2C270.5,667.5,270.4,667.6,270.3,667.7z M304.5,669.5		c0.4,0.2,0.7,0.3,1.1,0.5c-0.4-0.2-0.9-0.3-1.3-0.5C304.4,669.4,304.4,669.4,304.5,669.5z M297.5,662.7c-3.2-0.8-6.4-1.3-9.7-1.9		C291.3,660.8,294.3,661.5,297.5,662.7z M283.8,660.4c0.1,0,0.3,0.1,0.4,0.1c-0.7,0.1-1.4,0.1-2.1,0		C282.7,660.4,283.3,660.3,283.8,660.4z M271,663c0.9-0.6,1.5-1.1,2.6-0.9L271,663z M307.9,666.5c-2.9-1.3-5.7-2.8-8.7-3.9		C302.3,663.2,305.3,665,307.9,666.5z M265.2,666C265.2,666,265.2,666,265.2,666C265.2,666,265.2,666,265.2,666z M266,665.3		c0.1,0,0.1-0.1,0.2-0.1c-0.3,0.2-0.6,0.4-0.8,0.7L266,665.3z M318.6,680.2c0.1-0.1,0.2-0.2,0.3-0.3c-0.3,0.3-1.9,0.5-2.4,0.6		c0.3-0.4,0.7-0.8,1-1.1c-0.1,0.1-0.2,0.1-0.3,0.2c0.2-0.2,0.4-0.4,0.6-0.6c-0.8,1-3.2,1.6-4.3,2.5c-1.9,1.7-3.5,4.6-4.9,6.7		c-1.4,2.1-2.7,4.3-3.8,6.7c-6.4,0-12.8,0.1-19.2,0.1c-5.1,0-12.8,1.5-16.9-1c-7.8-4.9-6.5-15.8-1.6-21.8		c13.9-17.4,39.5,0.8,53.3,7.8C319.9,680.1,319,680.2,318.6,680.2z M300.2,662.3c-0.7-0.2-1.4-0.5-2.1-0.7		C298.8,661.6,299.5,661.8,300.2,662.3z M270.9,662c1.4-0.8,2.8-1.3,4.3-1.4c-0.7,0.3-1.3,0.5-2,0.7c0,0,0,0,0.1,0		c-2.6,1-4.8,2.4-7.1,3.9C267.6,663.8,269.1,662.8,270.9,662z"/></g><g>	<path d="M425.4,783.6h2.8v13.6h6.6v2.4h-9.5V783.6z"/>	<path d="M437.2,787.6h2.8v12h-2.8V787.6z M438.6,785.5c-0.5,0-0.9-0.1-1.2-0.4c-0.3-0.3-0.5-0.7-0.5-1.1c0-0.5,0.2-0.9,0.5-1.2		c0.3-0.3,0.7-0.5,1.2-0.5c0.5,0,0.9,0.2,1.2,0.5c0.3,0.3,0.5,0.7,0.5,1.2c0,0.5-0.2,0.9-0.5,1.1		C439.5,785.3,439.1,785.5,438.6,785.5z"/>	<path d="M449.2,799.9c-0.6,0-1.1-0.1-1.7-0.4c-0.6-0.3-1.1-0.7-1.6-1.2h-0.1l-0.2,1.3h-2.2v-17.2h2.8v4.4l-0.1,2		c0.5-0.4,1.1-0.8,1.6-1.1c0.6-0.3,1.2-0.4,1.8-0.4c0.7,0,1.4,0.1,2,0.4c0.6,0.3,1.1,0.7,1.5,1.2c0.4,0.5,0.7,1.2,0.9,1.9		c0.2,0.7,0.3,1.6,0.3,2.5c0,1-0.1,1.9-0.4,2.7c-0.3,0.8-0.7,1.5-1.1,2c-0.5,0.6-1,1-1.6,1.3C450.5,799.7,449.9,799.9,449.2,799.9z		 M448.6,797.5c0.8,0,1.5-0.3,2-1c0.5-0.7,0.8-1.7,0.8-3.1c0-1.2-0.2-2.1-0.6-2.8c-0.4-0.7-1.1-1-2-1c-0.8,0-1.7,0.4-2.6,1.3v5.6		c0.4,0.4,0.8,0.6,1.3,0.8C447.9,797.5,448.2,797.5,448.6,797.5z"/>	<path d="M457,787.6h2.3l0.2,2.1h0.1c0.4-0.8,0.9-1.4,1.5-1.8c0.6-0.4,1.2-0.6,1.9-0.6c0.6,0,1,0.1,1.4,0.2l-0.5,2.4		c-0.2-0.1-0.4-0.1-0.6-0.1c-0.2,0-0.4,0-0.7,0c-0.5,0-1,0.2-1.5,0.5c-0.5,0.4-1,1-1.3,1.9v7.3H457V787.6z"/>	<path d="M470.5,799.9c-0.8,0-1.6-0.1-2.3-0.4c-0.7-0.3-1.3-0.7-1.9-1.2c-0.5-0.5-1-1.2-1.3-2c-0.3-0.8-0.5-1.7-0.5-2.6		c0-1,0.2-1.9,0.5-2.6c0.3-0.8,0.7-1.4,1.2-2c0.5-0.5,1.1-1,1.8-1.2c0.7-0.3,1.4-0.4,2.1-0.4c0.8,0,1.5,0.1,2.1,0.4		c0.6,0.3,1.1,0.7,1.6,1.2c0.4,0.5,0.7,1.1,0.9,1.8c0.2,0.7,0.3,1.5,0.3,2.3c0,0.3,0,0.5,0,0.8c0,0.2-0.1,0.4-0.1,0.6h-7.6		c0.1,1.1,0.5,1.9,1.1,2.5c0.6,0.6,1.4,0.9,2.4,0.9c0.5,0,1-0.1,1.5-0.2c0.4-0.2,0.9-0.4,1.3-0.6l1,1.8c-0.6,0.4-1.2,0.7-1.9,0.9		C472,799.7,471.3,799.9,470.5,799.9z M472.6,792.4c0-0.9-0.2-1.7-0.6-2.2c-0.4-0.5-1-0.8-1.8-0.8c-0.7,0-1.3,0.3-1.9,0.8		c-0.5,0.5-0.9,1.2-1,2.2H472.6z"/>	<path d="M478,783.6h5.1c0.8,0,1.6,0.1,2.3,0.2c0.7,0.1,1.3,0.4,1.8,0.7c0.5,0.3,0.9,0.7,1.2,1.2c0.3,0.5,0.4,1.1,0.4,1.9		c0,0.8-0.2,1.5-0.6,2.1c-0.4,0.7-0.9,1.1-1.6,1.3v0.1c0.9,0.2,1.6,0.6,2.2,1.2c0.6,0.6,0.9,1.5,0.9,2.6c0,0.8-0.2,1.5-0.5,2.1		c-0.3,0.6-0.7,1.1-1.3,1.5c-0.5,0.4-1.2,0.7-1.9,0.9c-0.7,0.2-1.6,0.3-2.4,0.3H478V783.6z M483.2,797.4c1.2,0,2.1-0.2,2.7-0.6		c0.6-0.4,1-1.1,1-2c0-0.8-0.3-1.5-0.9-1.8c-0.6-0.4-1.5-0.6-2.7-0.6h-2.4v5.1H483.2z M482.9,790.2c1.1,0,1.9-0.2,2.4-0.6		c0.5-0.4,0.7-1,0.7-1.6c0-0.8-0.3-1.3-0.8-1.7c-0.5-0.3-1.3-0.5-2.3-0.5h-2.1v4.4H482.9z"/>	<path d="M492.3,787.6h2.8v12h-2.8V787.6z M493.8,785.5c-0.5,0-0.9-0.1-1.2-0.4s-0.5-0.7-0.5-1.1c0-0.5,0.2-0.9,0.5-1.2		c0.3-0.3,0.7-0.5,1.2-0.5s0.9,0.2,1.2,0.5c0.3,0.3,0.5,0.7,0.5,1.2c0,0.5-0.2,0.9-0.5,1.1S494.3,785.5,493.8,785.5z"/>	<path d="M498.7,782.3h2.8v10.8h0.1l4.4-5.5h3.1l-4.1,4.9l4.5,7.1h-3.1l-3.1-5.2l-1.9,2.1v3.1h-2.8V782.3z"/>	<path d="M516,799.9c-0.8,0-1.6-0.1-2.3-0.4c-0.7-0.3-1.3-0.7-1.9-1.2c-0.5-0.5-1-1.2-1.3-2c-0.3-0.8-0.5-1.7-0.5-2.6		c0-1,0.2-1.9,0.5-2.6c0.3-0.8,0.7-1.4,1.2-2c0.5-0.5,1.1-1,1.8-1.2c0.7-0.3,1.4-0.4,2.1-0.4c0.8,0,1.5,0.1,2.1,0.4		c0.6,0.3,1.1,0.7,1.6,1.2c0.4,0.5,0.7,1.1,0.9,1.8c0.2,0.7,0.3,1.5,0.3,2.3c0,0.3,0,0.5,0,0.8c0,0.2-0.1,0.4-0.1,0.6h-7.6		c0.1,1.1,0.5,1.9,1.1,2.5c0.6,0.6,1.4,0.9,2.4,0.9c0.5,0,1-0.1,1.5-0.2c0.4-0.2,0.9-0.4,1.3-0.6l1,1.8c-0.6,0.4-1.2,0.7-1.9,0.9		C517.5,799.7,516.8,799.9,516,799.9z M518.2,792.4c0-0.9-0.2-1.7-0.6-2.2c-0.4-0.5-1-0.8-1.8-0.8c-0.7,0-1.3,0.3-1.9,0.8		c-0.5,0.5-0.9,1.2-1,2.2H518.2z"/>	<path d="M524.9,799.9c-0.5,0-1-0.2-1.3-0.5c-0.4-0.4-0.5-0.8-0.5-1.4c0-0.6,0.2-1,0.5-1.4c0.3-0.4,0.8-0.5,1.3-0.5		c0.5,0,1,0.2,1.3,0.5c0.3,0.4,0.5,0.8,0.5,1.4c0,0.6-0.2,1-0.5,1.4C525.8,799.7,525.4,799.9,524.9,799.9z"/>	<path d="M530,787.6h2.8v12H530V787.6z M531.4,785.5c-0.5,0-0.9-0.1-1.2-0.4c-0.3-0.3-0.5-0.7-0.5-1.1c0-0.5,0.2-0.9,0.5-1.2		c0.3-0.3,0.7-0.5,1.2-0.5c0.5,0,0.9,0.2,1.2,0.5c0.3,0.3,0.5,0.7,0.5,1.2c0,0.5-0.2,0.9-0.5,1.1		C532.4,785.3,531.9,785.5,531.4,785.5z"/>	<path d="M536.4,787.6h2.3l0.2,1.6h0.1c0.5-0.5,1.1-1,1.7-1.3c0.6-0.4,1.4-0.6,2.2-0.6c1.3,0,2.2,0.4,2.8,1.2c0.6,0.8,0.9,2,0.9,3.5		v7.5h-2.8v-7.2c0-1-0.1-1.7-0.4-2.1c-0.3-0.4-0.8-0.6-1.4-0.6c-0.5,0-1,0.1-1.4,0.4c-0.4,0.3-0.9,0.6-1.4,1.1v8.4h-2.8V787.6z"/>	<path d="M556.2,784.6c-0.4-0.2-0.9-0.3-1.3-0.3c-1,0-1.5,0.7-1.5,2v1.3h2.3v2.2h-2.3v9.8h-2.8v-9.8H549v-2.1l1.6-0.1v-1.2		c0-0.6,0.1-1.2,0.2-1.7c0.1-0.5,0.4-1,0.7-1.4c0.3-0.4,0.7-0.7,1.2-0.9c0.5-0.2,1.1-0.3,1.8-0.3c0.4,0,0.8,0,1.2,0.1		c0.4,0.1,0.7,0.2,1,0.3L556.2,784.6z"/>	<path d="M562.5,799.9c-0.7,0-1.5-0.1-2.1-0.4c-0.7-0.3-1.3-0.7-1.8-1.2c-0.5-0.5-0.9-1.2-1.3-2c-0.3-0.8-0.5-1.7-0.5-2.7		c0-1,0.2-1.9,0.5-2.7c0.3-0.8,0.7-1.4,1.3-2c0.5-0.5,1.1-0.9,1.8-1.2c0.7-0.3,1.4-0.4,2.1-0.4c0.7,0,1.5,0.1,2.2,0.4		c0.7,0.3,1.3,0.7,1.8,1.2c0.5,0.5,0.9,1.2,1.3,2c0.3,0.8,0.5,1.7,0.5,2.7c0,1-0.2,1.9-0.5,2.7c-0.3,0.8-0.7,1.4-1.3,2		c-0.5,0.5-1.1,0.9-1.8,1.2C564,799.7,563.2,799.9,562.5,799.9z M562.5,797.6c0.9,0,1.6-0.4,2.1-1.1c0.5-0.7,0.8-1.7,0.8-2.9		c0-1.2-0.3-2.2-0.8-2.9c-0.5-0.7-1.2-1.1-2.1-1.1c-0.9,0-1.6,0.4-2.1,1.1c-0.5,0.7-0.7,1.7-0.7,2.9c0,1.2,0.2,2.2,0.7,2.9		C560.9,797.2,561.6,797.6,562.5,797.6z"/></g><g>	<path d="M567,739.7c3.9-13.9-2-29.3-13.1-38.3c-11.7-9.5-26.3-6.8-40.3-6.7c2.3-4.4,5.5-8.8,9.2-12.2c-0.2,0.2-2,0.1-2.6,0.1		c0.1-0.1,0.3-0.3,0.4-0.4c-0.2,0.3-1,0.1-1.6,0c0.7-0.8,1.4-1.5,2.2-2.3c16.4,8.2,40.1-5,33.3-24.7c-3.4-9.8-13.8-14.7-23.6-12		c-10.6,3-14,13.3-13.4,23.3c0-0.3,0-0.6,0.1-0.9c0,0.7,0.1,1.4,0.1,2.1c0-0.6,0.9-2,1.2-2.6c0,0.8,0,1.6,0.1,2.4		c0-0.1,0.1-0.2,0.1-0.3c0,0.7,0.1,1.4,0.2,2.2c0-0.4,1-3.7,1.2-3.9c0,1.3,0.1,2.5,0.2,3.8c0,0.1,1-3.2,0.9-3c0,0.5,0.1,1.1,0.1,1.6		c-0.1-2,2.6-4.3,3.4-5.8c2.3-4.7,2.2-8.8,7.7-11.1c12.2-5.1,19.4,11.7,11.4,19.9c-8.4,8.6-19.8,4.1-28.5-1.1		c-12.5-7.5-22.9-11.5-37.6-10c0,0,0.1,0,0.1,0c-1.4,0.3-2.9,0.6-4.3,0.9c0.1,0,0.2,0,0.4,0c-1.5,0.5-2.8,1.1-4.2,1.8		c0.1,0,0.2-0.1,0.2-0.1c-1.2,0.7-2.4,1.5-3.6,2.2c0.3-0.2,0.6-0.3,0.9-0.5c-2.7,2-4.4,4.5-6.5,7.1c0.1-0.1,0.2-0.2,0.3-0.4		c-0.6,1.3-1.3,2.5-2.1,3.6c0.1-0.2,0.3-0.4,0.4-0.6c-3.4,7.4-1.7,14.7,2.7,21.3c-16.9,1-32.7,13.3-36.5,30.1		c-3.6,16.1,5.6,35,21.4,40.7c16.7,6,36.3-0.7,43.2-17.5c7.9-19.2,0.5-33.8-13.6-47.1c8.6,0,17.2-0.1,25.8-0.1		c-7.1,19.7-10,48.4,10.1,61.5C533.2,776.3,562.2,763.4,567,739.7z M467.7,664.6c-1.6,1.3-3.4,3.1-4.7,4.6		C464.1,667.4,465.9,665.6,467.7,664.6z M477.8,660.3c0.9-0.3,1.8-0.3,2.8-0.2c-2.1,0.3-4.3,1-6.4,1.5		C475.5,661,476.5,660.6,477.8,660.3z M463.6,685.6c-0.1-0.3-0.3-0.7-0.4-1c0.5,1.3,0.9,2.7,1.4,4c-0.1-0.5-0.3-1.1-0.4-1.6		c0.5,1.4,1.2,2.7,1.8,4c-1.7-2.1-3-4.5-2.8-7.2C463.3,684.3,463.5,685,463.6,685.6z M463.6,685.6c0,0.1,0.1,0.2,0.1,0.3		C463.6,685.7,463.6,685.7,463.6,685.6z M471.4,663c0.3-0.1,0.7-0.2,1-0.3l-2.9,1.6c0,0,0.1-0.1,0.1-0.1c-0.1,0.1-0.3,0.2-0.4,0.3		C469.8,663.9,470.5,663.4,471.4,663z M462.4,684.7c0.1,0.5,0.2,1.1,0.3,1.6c-1-1-1.1-1.9-0.4-2.9c0,0.3,0,0.6,0.1,0.9		c0-0.1,0-0.2-0.1-0.3C462.4,684.2,462.4,684.4,462.4,684.7z M463.7,690.1C463.7,690.1,463.7,690.2,463.7,690.1L463.7,690.1		c0.2,0.4,0.5,0.8,0.7,1.1c-1.2-1.6-2-2.8-2.5-4.8C462.3,687.7,463,688.9,463.7,690.1z M476.9,662.8c0.2,0.1,0.5,0.1,0.7,0.2		c-0.9,0.3-1.8,0.6-2.7,0.8C475.6,663.3,476.2,663,476.9,662.8z M461.2,683.8c0,0.8,0.1,1.6,0.2,2.4		C460.8,685.4,460.7,684.7,461.2,683.8z M475.5,756.6c-31.1,17.9-57.8-24.6-31.7-47.1c5.2-4.5,13.3-8.5,20.5-8		c6.9,0.4,15.7,11.1,19.1,17.3C489.9,730.2,487.7,749.6,475.5,756.6z M505.7,724.3c0.6-7.8,2.3-15.6,5.1-22.9		c12.4,0.2,28.1-2.9,38.7,5.1c10.2,7.8,14.8,22.3,10.4,34.3c-5.6,15.1-20.5,22.9-36.2,18.2C507.8,754,504.4,739.2,505.7,724.3z		 M510.7,670.8c3.1,1.8,6.2,3.9,9.3,5.7c-4.5-1.8-8.7-4.3-12.9-6.6C508.3,670.3,509.5,670.5,510.7,670.8z M462.7,678.1		c-0.1,0.4-0.2,0.7-0.4,1.1c0.1-0.9,0.4-1.8,0.9-2.5C463.1,677.4,463.4,676.3,462.7,678.1z M506.1,669.7c0.5,0.2,0.9,0.5,1.4,0.8		c-0.6-0.3-1.2-0.6-1.9-0.9C505.7,669.6,505.9,669.7,506.1,669.7z M500.7,664.4c-1.6-0.3-2.8-0.9-4.3-1.4c2.1,0.3,4.1,1,6,2		C501.8,664.8,501.2,664.6,500.7,664.4z M470.7,667.7c0.1-0.2,0.2-0.2,0.4-0.2C471,667.5,470.9,667.6,470.7,667.7z M505,669.5		c0.4,0.2,0.7,0.3,1.1,0.5c-0.4-0.2-0.9-0.3-1.3-0.5C504.8,669.4,504.9,669.4,505,669.5z M498,662.7c-3.2-0.8-6.4-1.3-9.7-1.9		C491.7,660.8,494.8,661.5,498,662.7z M484.3,660.4c0.1,0,0.3,0.1,0.4,0.1c-0.7,0.1-1.4,0.1-2.1,0		C483.2,660.4,483.7,660.3,484.3,660.4z M471.4,663c0.9-0.6,1.5-1.1,2.6-0.9L471.4,663z M508.4,666.5c-2.9-1.3-5.7-2.8-8.7-3.9		C502.7,663.2,505.7,665,508.4,666.5z M465.7,666C465.7,666,465.6,666,465.7,666C465.6,666,465.7,666,465.7,666z M466.5,665.3		c0.1,0,0.1-0.1,0.2-0.1c-0.3,0.2-0.6,0.4-0.8,0.7L466.5,665.3z M519.1,680.2c0.1-0.1,0.2-0.2,0.3-0.3c-0.3,0.3-1.9,0.5-2.4,0.6		c0.3-0.4,0.7-0.8,1-1.1c-0.1,0.1-0.2,0.1-0.3,0.2c0.2-0.2,0.4-0.4,0.6-0.6c-0.8,1-3.2,1.6-4.3,2.5c-1.9,1.7-3.5,4.6-4.9,6.7		c-1.4,2.1-2.7,4.3-3.8,6.7c-6.4,0-12.8,0.1-19.2,0.1c-5.1,0-12.8,1.5-16.9-1c-7.8-4.9-6.5-15.8-1.6-21.8		c13.9-17.4,39.5,0.8,53.3,7.8C520.4,680.1,519.5,680.2,519.1,680.2z M500.6,662.3c-0.7-0.2-1.4-0.5-2.1-0.7		C499.3,661.6,500,661.8,500.6,662.3z M471.4,662c1.4-0.8,2.8-1.3,4.3-1.4c-0.7,0.3-1.3,0.5-2,0.7c0,0,0,0,0.1,0		c-2.6,1-4.8,2.4-7.1,3.9C468,663.8,469.6,662.8,471.4,662z"/></g><g>	<path d="M349.6,539.1h3.9v18.5h9.1v3.3h-12.9V539.1z"/>	<path d="M365.7,544.6h3.8v16.4h-3.8V544.6z M367.6,541.7c-0.7,0-1.3-0.2-1.7-0.6c-0.4-0.4-0.7-0.9-0.7-1.6c0-0.6,0.2-1.2,0.7-1.6		c0.4-0.4,1-0.6,1.7-0.6c0.7,0,1.3,0.2,1.7,0.6c0.4,0.4,0.7,0.9,0.7,1.6c0,0.6-0.2,1.2-0.7,1.6C368.8,541.5,368.3,541.7,367.6,541.7		z"/>	<path d="M382,561.3c-0.8,0-1.5-0.2-2.3-0.5c-0.8-0.4-1.5-0.9-2.2-1.6h-0.1l-0.3,1.7h-3v-23.5h3.8v6.1l-0.1,2.7		c0.7-0.6,1.4-1.1,2.2-1.5c0.8-0.4,1.6-0.6,2.5-0.6c1,0,1.9,0.2,2.7,0.6c0.8,0.4,1.5,0.9,2,1.7c0.6,0.7,1,1.6,1.3,2.6		c0.3,1,0.4,2.2,0.4,3.4c0,1.4-0.2,2.6-0.6,3.7c-0.4,1.1-0.9,2-1.5,2.8c-0.6,0.8-1.4,1.3-2.2,1.7C383.8,561.1,383,561.3,382,561.3z		 M381.2,558.2c1.1,0,2-0.5,2.7-1.4c0.7-0.9,1.1-2.3,1.1-4.2c0-1.6-0.3-2.9-0.8-3.8c-0.6-0.9-1.5-1.4-2.7-1.4		c-1.2,0-2.4,0.6-3.6,1.8v7.6c0.6,0.5,1.1,0.9,1.7,1.1C380.2,558.1,380.8,558.2,381.2,558.2z"/>	<path d="M392.6,544.6h3.2l0.3,2.9h0.1c0.6-1.1,1.3-1.9,2.1-2.4c0.8-0.6,1.7-0.8,2.5-0.8c0.8,0,1.4,0.1,1.9,0.3l-0.7,3.3		c-0.3-0.1-0.6-0.2-0.8-0.2c-0.2,0-0.5-0.1-0.9-0.1c-0.6,0-1.3,0.2-2,0.7c-0.7,0.5-1.3,1.4-1.8,2.6v10h-3.8V544.6z"/>	<path d="M411.1,561.3c-1.1,0-2.2-0.2-3.2-0.6c-1-0.4-1.8-0.9-2.6-1.7c-0.7-0.7-1.3-1.6-1.7-2.7c-0.4-1.1-0.6-2.3-0.6-3.6		c0-1.3,0.2-2.5,0.6-3.6c0.4-1.1,1-2,1.7-2.7c0.7-0.7,1.5-1.3,2.4-1.7c0.9-0.4,1.8-0.6,2.8-0.6c1.1,0,2.1,0.2,2.9,0.6		c0.8,0.4,1.5,0.9,2.1,1.6c0.6,0.7,1,1.5,1.3,2.5c0.3,1,0.4,2,0.4,3.1c0,0.4,0,0.7-0.1,1.1c0,0.3-0.1,0.6-0.1,0.8h-10.4		c0.2,1.5,0.7,2.6,1.5,3.4c0.9,0.8,1.9,1.2,3.3,1.2c0.7,0,1.4-0.1,2-0.3c0.6-0.2,1.2-0.5,1.8-0.9l1.3,2.4c-0.8,0.5-1.6,0.9-2.6,1.3		C413.2,561.2,412.2,561.3,411.1,561.3z M414,551.2c0-1.3-0.3-2.3-0.8-3c-0.5-0.7-1.4-1.1-2.5-1.1c-1,0-1.8,0.3-2.6,1		c-0.7,0.7-1.2,1.7-1.4,3H414z"/>	<path d="M421.4,539.1h7c1.1,0,2.2,0.1,3.1,0.3c0.9,0.2,1.8,0.5,2.5,0.9c0.7,0.4,1.2,1,1.6,1.6c0.4,0.7,0.6,1.5,0.6,2.5		c0,1-0.3,2-0.8,2.9c-0.5,0.9-1.3,1.5-2.2,1.8v0.1c1.2,0.3,2.2,0.8,3,1.7c0.8,0.9,1.2,2,1.2,3.5c0,1.1-0.2,2-0.6,2.8		c-0.4,0.8-1,1.5-1.7,2c-0.7,0.5-1.6,0.9-2.6,1.2c-1,0.3-2.1,0.4-3.3,0.4h-7.5V539.1z M428.5,557.9c1.6,0,2.8-0.3,3.7-0.9		c0.9-0.6,1.3-1.5,1.3-2.7c0-1.2-0.4-2-1.3-2.5c-0.8-0.5-2.1-0.8-3.7-0.8h-3.3v6.9H428.5z M428,548.1c1.5,0,2.6-0.3,3.3-0.8		c0.7-0.6,1-1.3,1-2.2c0-1.1-0.4-1.8-1.1-2.3c-0.7-0.4-1.8-0.7-3.2-0.7h-2.8v6H428z"/>	<path d="M440.9,544.6h3.8v16.4h-3.8V544.6z M442.9,541.7c-0.7,0-1.3-0.2-1.7-0.6c-0.4-0.4-0.7-0.9-0.7-1.6c0-0.6,0.2-1.2,0.7-1.6		c0.4-0.4,1-0.6,1.7-0.6c0.7,0,1.3,0.2,1.7,0.6c0.4,0.4,0.7,0.9,0.7,1.6c0,0.6-0.2,1.2-0.7,1.6C444.1,541.5,443.6,541.7,442.9,541.7		z"/>	<path d="M449.7,537.4h3.8v14.7h0.1l6.1-7.5h4.2l-5.6,6.7l6.2,9.7h-4.2l-4.2-7.1l-2.6,2.9v4.2h-3.8V537.4z"/>	<path d="M473.3,561.3c-1.1,0-2.2-0.2-3.2-0.6c-1-0.4-1.8-0.9-2.6-1.7c-0.7-0.7-1.3-1.6-1.7-2.7c-0.4-1.1-0.6-2.3-0.6-3.6		c0-1.3,0.2-2.5,0.6-3.6c0.4-1.1,1-2,1.7-2.7c0.7-0.7,1.5-1.3,2.4-1.7c0.9-0.4,1.8-0.6,2.8-0.6c1.1,0,2.1,0.2,2.9,0.6		c0.8,0.4,1.5,0.9,2.1,1.6c0.6,0.7,1,1.5,1.3,2.5c0.3,1,0.4,2,0.4,3.1c0,0.4,0,0.7,0,1.1c0,0.3-0.1,0.6-0.1,0.8H469		c0.2,1.5,0.7,2.6,1.5,3.4c0.9,0.8,1.9,1.2,3.3,1.2c0.7,0,1.4-0.1,2-0.3c0.6-0.2,1.2-0.5,1.8-0.9l1.3,2.4c-0.8,0.5-1.6,0.9-2.6,1.3		C475.3,561.2,474.3,561.3,473.3,561.3z M476.2,551.2c0-1.3-0.3-2.3-0.8-3c-0.5-0.7-1.4-1.1-2.5-1.1c-1,0-1.8,0.3-2.6,1		c-0.7,0.7-1.2,1.7-1.4,3H476.2z"/>	<path d="M485.3,561.3c-0.7,0-1.3-0.2-1.8-0.7c-0.5-0.5-0.7-1.1-0.7-1.9c0-0.8,0.2-1.4,0.7-1.9c0.5-0.5,1.1-0.7,1.8-0.7		c0.7,0,1.3,0.2,1.8,0.7c0.5,0.5,0.7,1.1,0.7,1.9c0,0.8-0.2,1.4-0.7,1.9C486.6,561.1,486.1,561.3,485.3,561.3z"/>	<path d="M492.3,544.6h3.8v16.4h-3.8V544.6z M494.3,541.7c-0.7,0-1.3-0.2-1.7-0.6c-0.4-0.4-0.7-0.9-0.7-1.6c0-0.6,0.2-1.2,0.7-1.6		c0.4-0.4,1-0.6,1.7-0.6c0.7,0,1.3,0.2,1.7,0.6c0.4,0.4,0.7,0.9,0.7,1.6c0,0.6-0.2,1.2-0.7,1.6C495.5,541.5,495,541.7,494.3,541.7z"		/>	<path d="M501.1,544.6h3.2l0.3,2.2h0.1c0.7-0.7,1.5-1.3,2.4-1.8c0.9-0.5,1.8-0.8,3-0.8c1.8,0,3,0.6,3.8,1.7c0.8,1.1,1.2,2.7,1.2,4.8		v10.3h-3.8v-9.8c0-1.4-0.2-2.3-0.6-2.9c-0.4-0.6-1.1-0.8-2-0.8c-0.7,0-1.3,0.2-1.9,0.5c-0.5,0.3-1.2,0.8-1.8,1.5v11.4h-3.8V544.6z"		/>	<path d="M528.1,540.4c-0.6-0.3-1.2-0.4-1.8-0.4c-1.4,0-2.1,0.9-2.1,2.8v1.8h3.2v3h-3.2v13.3h-3.8v-13.3h-2.2v-2.9l2.2-0.2v-1.7		c0-0.8,0.1-1.6,0.3-2.3c0.2-0.7,0.5-1.3,1-1.9c0.4-0.5,1-0.9,1.7-1.2c0.7-0.3,1.5-0.4,2.5-0.4c0.6,0,1.1,0.1,1.6,0.2		c0.5,0.1,1,0.2,1.3,0.4L528.1,540.4z"/>	<path d="M536.7,561.3c-1,0-2-0.2-2.9-0.6c-0.9-0.4-1.8-0.9-2.5-1.7c-0.7-0.7-1.3-1.6-1.7-2.7c-0.4-1.1-0.6-2.3-0.6-3.6		c0-1.4,0.2-2.6,0.6-3.6c0.4-1.1,1-2,1.7-2.7c0.7-0.7,1.5-1.3,2.5-1.7c0.9-0.4,1.9-0.6,2.9-0.6s2,0.2,2.9,0.6		c0.9,0.4,1.8,0.9,2.5,1.7c0.7,0.7,1.3,1.6,1.7,2.7c0.4,1.1,0.7,2.3,0.7,3.6c0,1.4-0.2,2.6-0.7,3.6c-0.4,1.1-1,2-1.7,2.7		c-0.7,0.7-1.5,1.3-2.5,1.7C538.7,561.1,537.7,561.3,536.7,561.3z M536.7,558.2c1.2,0,2.1-0.5,2.8-1.5c0.7-1,1-2.3,1-3.9		c0-1.7-0.3-3-1-4c-0.7-1-1.6-1.5-2.8-1.5c-1.2,0-2.1,0.5-2.8,1.5c-0.7,1-1,2.3-1,4c0,1.6,0.3,3,1,3.9		C534.5,557.7,535.5,558.2,536.7,558.2z"/></g><g>	<path d="M542.8,479.2c5.3-19-2.7-40-17.8-52.2c-16-12.9-35.8-9.3-55-9.1c3.2-6,7.5-12,12.5-16.7c-0.2,0.3-2.7,0.1-3.5,0.1		c0.2-0.2,0.4-0.4,0.6-0.6c-0.3,0.4-1.3,0.1-2.2,0c0.9-1.1,1.9-2.1,2.9-3.1c22.4,11.2,54.7-6.8,45.4-33.7		c-4.6-13.4-18.8-20.1-32.2-16.3c-14.4,4.1-19.1,18.2-18.2,31.8c0-0.4,0.1-0.8,0.2-1.2c0,1,0.1,2,0.2,2.9c-0.1-0.9,1.3-2.8,1.7-3.5		c0,1.1,0.1,2.2,0.1,3.2c0-0.1,0.1-0.3,0.2-0.5c0.1,1,0.1,2,0.2,3c-0.1-0.6,1.3-5,1.6-5.4c0.1,1.7,0.2,3.4,0.3,5.1		c0,0.1,1.4-4.4,1.2-4.1c0,0.7,0.1,1.5,0.1,2.2c-0.2-2.7,3.6-5.9,4.6-8c3.1-6.4,3.1-12,10.4-15.1c16.6-7,26.5,15.9,15.5,27.2		c-11.4,11.8-27,5.6-38.9-1.5c-17.1-10.2-31.3-15.7-51.3-13.7c0.1,0,0.1,0,0.2,0c-2,0.4-3.9,0.8-5.9,1.2c0.2,0,0.3,0,0.5-0.1		c-2,0.6-3.9,1.6-5.8,2.4c0.1,0,0.2-0.1,0.3-0.1c-1.6,1-3.3,2-4.9,3c0.4-0.2,0.8-0.4,1.2-0.7c-3.7,2.7-6,6.2-8.8,9.6		c0.1-0.2,0.3-0.3,0.4-0.5c-0.9,1.7-1.8,3.4-2.9,5c0.2-0.3,0.3-0.5,0.5-0.8c-4.6,10.1-2.4,20.1,3.6,29c-23,1.4-44.7,18.1-49.8,41.1		c-4.9,22,7.7,47.8,29.2,55.6c22.7,8.2,49.6-1,59-23.9C449,465,438.9,445,419.7,427c11.7,0,23.5-0.1,35.2-0.2		c-9.7,26.9-13.6,66,13.8,84C496.8,529.2,536.3,511.5,542.8,479.2z M407.4,376.7c-2.2,1.7-4.6,4.3-6.5,6.3		C402.5,380.6,404.9,378.1,407.4,376.7z M421.1,370.9c1.2-0.4,2.5-0.5,3.8-0.3c-2.8,0.4-5.9,1.3-8.7,2		C418,371.8,419.3,371.2,421.1,370.9z M401.7,405.4c-0.2-0.5-0.4-0.9-0.6-1.4c0.6,1.8,1.3,3.7,1.9,5.5c-0.2-0.7-0.4-1.5-0.6-2.2		c0.7,1.9,1.6,3.7,2.4,5.4c-2.3-2.8-4.1-6.1-3.8-9.9C401.3,403.7,401.5,404.5,401.7,405.4z M401.7,405.3c0,0.1,0.1,0.2,0.1,0.4		C401.8,405.6,401.7,405.5,401.7,405.3z M412.3,374.6c0.5-0.1,0.9-0.3,1.4-0.4l-4,2.2c0,0,0.1-0.1,0.1-0.1c-0.2,0.2-0.3,0.3-0.5,0.4		C410.1,375.8,411.2,375.1,412.3,374.6z M400.1,404.1c0.1,0.7,0.3,1.5,0.4,2.2c-1.3-1.3-1.5-2.6-0.5-4c0,0.4,0,0.8,0.1,1.2		c0-0.1-0.1-0.3-0.1-0.4C400,403.5,400.1,403.8,400.1,404.1z M401.8,411.5c0,0,0,0.1,0,0.1L401.8,411.5c0.3,0.5,0.6,1.1,1,1.6		c-1.6-2.1-2.8-3.8-3.5-6.5C400,408.3,400.8,409.9,401.8,411.5z M419.9,374.3c0.3,0.1,0.6,0.2,1,0.2c-1.2,0.4-2.5,0.8-3.7,1.1		C418.1,375,418.9,374.5,419.9,374.3z M398.4,403c0.1,1.1,0.1,2.1,0.2,3.2C397.9,405.2,397.8,404.1,398.4,403z M418,502.3		c-42.4,24.4-78.9-33.5-43.3-64.2c7.1-6.1,18.2-11.5,28-10.9c9.4,0.6,21.4,15.2,26.1,23.6C437.5,466.3,434.6,492.7,418,502.3z		 M459.1,458.2c0.9-10.6,3.2-21.3,7-31.3c16.9,0.3,38.4-4,52.8,7c13.9,10.6,20.3,30.5,14.2,46.8c-7.7,20.7-27.9,31.3-49.4,24.8		C462,498.8,457.4,478.5,459.1,458.2z M466,385.2c4.3,2.5,8.5,5.3,12.8,7.8c-6.1-2.5-11.8-5.8-17.6-8.9		C462.8,384.5,464.4,384.8,466,385.2z M400.5,395.2c-0.2,0.5-0.3,1-0.5,1.5c0.2-1.2,0.6-2.4,1.3-3.4		C401.1,394.2,401.5,392.6,400.5,395.2z M459.7,383.7c0.6,0.3,1.3,0.7,1.9,1.1c-0.8-0.4-1.7-0.9-2.5-1.3		C459.2,383.6,459.4,383.7,459.7,383.7z M452.3,376.5c-2.1-0.4-3.8-1.2-5.9-1.9c2.9,0.5,5.6,1.4,8.2,2.7		C453.8,377,453,376.7,452.3,376.5z M411.4,381c0.1-0.2,0.3-0.3,0.5-0.3C411.8,380.7,411.6,380.9,411.4,381z M458.2,383.4		c0.5,0.2,1,0.4,1.4,0.6c-0.6-0.2-1.2-0.5-1.8-0.7C457.9,383.3,458.1,383.3,458.2,383.4z M448.6,374.1c-4.3-1.1-8.8-1.8-13.2-2.6		C440.1,371.5,444.3,372.5,448.6,374.1z M429.9,371c0.2,0.1,0.4,0.1,0.5,0.2c-0.9,0.1-1.9,0.1-2.8-0.1		C428.4,370.9,429.2,370.9,429.9,371z M412.4,374.5c1.2-0.8,2.1-1.5,3.5-1.2L412.4,374.5z M462.8,379.4c-3.9-1.8-7.8-3.8-11.9-5.4		C455.1,374.9,459.2,377.3,462.8,379.4z M404.6,378.6c0,0-0.1,0.1-0.1,0.1C404.5,378.7,404.5,378.6,404.6,378.6z M405.7,377.7		c0.1,0,0.2-0.1,0.3-0.1c-0.4,0.3-0.8,0.6-1.1,0.9L405.7,377.7z M477.4,398.1c0.2-0.2,0.3-0.3,0.5-0.5c-0.4,0.4-2.6,0.7-3.3,0.8		c0.5-0.5,0.9-1,1.4-1.5c-0.1,0.1-0.2,0.2-0.4,0.2c0.3-0.3,0.5-0.6,0.8-0.8c-1.2,1.3-4.4,2.2-5.9,3.5c-2.6,2.3-4.8,6.2-6.7,9.1		c-1.9,2.9-3.6,5.9-5.2,9.1c-8.7,0.1-17.4,0.1-26.2,0.2c-7,0-17.4,2.1-23.1-1.4c-10.6-6.6-8.8-21.5-2.2-29.8		c19-23.8,53.9,1,72.8,10.6C479.2,397.8,478,398,477.4,398.1z M452.2,373.5c-1-0.3-1.9-0.6-2.9-0.9		C450.4,372.6,451.3,372.9,452.2,373.5z M412.3,373.2c1.9-1.1,3.8-1.8,5.9-1.9c-0.9,0.4-1.8,0.7-2.7,0.9c0,0,0.1,0,0.1,0		c-3.5,1.3-6.6,3.3-9.7,5.3C407.7,375.7,409.9,374.2,412.3,373.2z"/></g><line class="st0" x1="297.6" y1="292.8" x2="297.6" y2="321.2"/><line class="st0" x1="311.8" y1="307" x2="283.5" y2="307"/><line class="st0" x1="198.4" y1="607" x2="198.4" y2="621.2"/><line class="st0" x1="297.6" y1="592.8" x2="297.6" y2="607"/><line class="st0" x1="311.8" y1="607" x2="283.5" y2="607"/><line class="st0" x1="212.6" y1="607" x2="184.2" y2="607"/><line class="st0" x1="396.8" y1="607" x2="396.8" y2="621.2"/><line class="st0" x1="411" y1="607" x2="382.7" y2="607"/><line class="st0" x1="296.2" y1="2" x2="296.2" y2="16.2"/><line class="st0" x1="14.2" y1="307" x2="0" y2="307"/><line class="st0" x1="595.3" y1="307" x2="581.1" y2="307"/><line class="st0" x1="15" y1="607" x2="0.8" y2="607"/><line class="st0" x1="596.1" y1="607" x2="582" y2="607"/><line class="st0" x1="198.4" y1="827" x2="198.4" y2="841.2"/><line class="st0" x1="396.8" y1="827" x2="396.8" y2="841.2"/></svg>