<svg id="6f6479b4-3c80-4c0c-9991-d288c3bea36b" data-name="Layer 1" xmlns="http://www.w3.org/2000/svg" viewBox="0 0 595.28 841.89"><defs><style>.adfbdda2-8a2f-4956-bb39-db460214307b{fill:#1d1d1b;}.\30 140e582-bd91-427f-ae0b-0443ac3b14d7,.\38 00375b6-3734-4c2c-8d60-1c78621042b0{fill:none;stroke:#b2b2b2;stroke-miterlimit:10;stroke-width:0.25px;}.\30 140e582-bd91-427f-ae0b-0443ac3b14d7{stroke-dasharray:11.9 11.9;}.\33 d9428c4-ad32-4ff3-97b6-3a2b28ada183{fill:#b2b2b2;}</style></defs><title>librebike-sticker-3pcs</title><path class="adfbdda2-8a2f-4956-bb39-db460214307b" d="M99.77,557.15v-9.63h46.18V524.92h8.14v32.23Z"/><path class="adfbdda2-8a2f-4956-bb39-db460214307b" d="M106.16,512.3a6.09,6.09,0,0,1-1.5,4.24,5,5,0,0,1-3.9,1.66,5.13,5.13,0,0,1-3.95-1.66,6.61,6.61,0,0,1,0-8.47,5.14,5.14,0,0,1,3.95-1.66,5,5,0,0,1,3.9,1.66A6.1,6.1,0,0,1,106.16,512.3Zm7.14,4.82v-9.55h40.78v9.55Z"/><path class="adfbdda2-8a2f-4956-bb39-db460214307b" d="M155.09,476.25a13.1,13.1,0,0,1-1.37,5.69,19.81,19.81,0,0,1-3.95,5.44v.25l4.32.83V496H95.45v-9.55h15.12l6.81.25a23.8,23.8,0,0,1-3.65-5.61,14.52,14.52,0,0,1-1.41-6.19,15.4,15.4,0,0,1,1.45-6.81,14.11,14.11,0,0,1,4.15-5.07,19.12,19.12,0,0,1,6.52-3.16A31.49,31.49,0,0,1,133,458.8a28,28,0,0,1,9.34,1.45,21.7,21.7,0,0,1,6.94,3.86,16.63,16.63,0,0,1,4.32,5.57A15.15,15.15,0,0,1,155.09,476.25Zm-7.89,2a8.32,8.32,0,0,0-3.53-6.81q-3.53-2.74-10.51-2.74-6.15,0-9.55,2.08t-3.41,6.73q0,4.32,4.57,9h19a13.17,13.17,0,0,0,2.66-4.28A11.9,11.9,0,0,0,147.2,478.24Z"/><path class="adfbdda2-8a2f-4956-bb39-db460214307b" d="M113.31,449.83v-7.89l7.23-.66v-.33a17.11,17.11,0,0,1-6.11-5.23,11.5,11.5,0,0,1-1.29-11l8.31,1.66a17.87,17.87,0,0,0-.5,2,12.86,12.86,0,0,0-.17,2.24,8.9,8.9,0,0,0,1.87,5.07q1.87,2.66,6.52,4.57h24.92v9.55Z"/><path class="adfbdda2-8a2f-4956-bb39-db460214307b" d="M155.09,403.74a21.17,21.17,0,0,1-1.45,7.89,18.73,18.73,0,0,1-4.19,6.4,19.12,19.12,0,0,1-6.69,4.28,24.67,24.67,0,0,1-9,1.54,24.21,24.21,0,0,1-9-1.58,20.58,20.58,0,0,1-6.73-4.2,18.58,18.58,0,0,1-4.24-6,17.19,17.19,0,0,1-1.5-7,17.76,17.76,0,0,1,1.41-7.31,14.28,14.28,0,0,1,4-5.27,17.55,17.55,0,0,1,6.15-3.2,26.92,26.92,0,0,1,7.81-1.08q1.41,0,2.66.13a17.82,17.82,0,0,1,2,.29v25.92a13.16,13.16,0,0,0,8.43-3.86,11.59,11.59,0,0,0,2.95-8.18,15,15,0,0,0-.79-4.94,21.89,21.89,0,0,0-2.2-4.53l6-3.24a29.31,29.31,0,0,1,3.16,6.48A22.53,22.53,0,0,1,155.09,403.74Zm-25.25-7.23a12.1,12.1,0,0,0-7.43,2q-2.7,2-2.7,6.27a9,9,0,0,0,2.57,6.4,12.21,12.21,0,0,0,7.56,3.41Z"/><path class="adfbdda2-8a2f-4956-bb39-db460214307b" d="M99.77,378.24V360.88a39.76,39.76,0,0,1,.71-7.77,19.71,19.71,0,0,1,2.24-6.15,11,11,0,0,1,4.11-4.07,12.68,12.68,0,0,1,6.31-1.45,13.79,13.79,0,0,1,7.23,2,10.27,10.27,0,0,1,4.57,5.56h.33a14,14,0,0,1,4.19-7.43q3.2-2.95,8.68-2.95a14.93,14.93,0,0,1,7.06,1.58,14.24,14.24,0,0,1,5,4.36,19.23,19.23,0,0,1,2.95,6.6,34.18,34.18,0,0,1,1,8.31v18.77Zm22.43-16.53q0-5.73-2.08-8.27a6.83,6.83,0,0,0-5.56-2.53q-4,0-5.65,2.66t-1.66,8v7.06h15Zm24.42-1.25q0-6-2.2-9.22T137.64,348q-4.32,0-6.27,3.16t-2,9.3v8.14h17.19Z"/><path class="adfbdda2-8a2f-4956-bb39-db460214307b" d="M106.16,324.66a6.09,6.09,0,0,1-1.5,4.24,5,5,0,0,1-3.9,1.66,5.13,5.13,0,0,1-3.95-1.66,6.61,6.61,0,0,1,0-8.47,5.14,5.14,0,0,1,3.95-1.66,5,5,0,0,1,3.9,1.66A6.1,6.1,0,0,1,106.16,324.66Zm7.14,4.82v-9.55h40.78v9.55Z"/><path class="adfbdda2-8a2f-4956-bb39-db460214307b" d="M95.45,307.72v-9.39h36.63v-.25L113.31,283V272.5l16.61,14,24.17-15.37v10.38L136.4,291.94l7.31,6.4h10.38v9.39Z"/><path class="adfbdda2-8a2f-4956-bb39-db460214307b" d="M155.09,248.83a21.17,21.17,0,0,1-1.45,7.89,18.72,18.72,0,0,1-4.19,6.4,19.12,19.12,0,0,1-6.69,4.28,24.67,24.67,0,0,1-9,1.54,24.19,24.19,0,0,1-9-1.58,20.56,20.56,0,0,1-6.73-4.19,18.57,18.57,0,0,1-4.24-6,17.19,17.19,0,0,1-1.5-7,17.76,17.76,0,0,1,1.41-7.31,14.29,14.29,0,0,1,4-5.27,17.56,17.56,0,0,1,6.15-3.2,26.91,26.91,0,0,1,7.81-1.08q1.41,0,2.66.12a17.9,17.9,0,0,1,2,.29v25.92a13.16,13.16,0,0,0,8.43-3.86,11.59,11.59,0,0,0,2.95-8.18,15,15,0,0,0-.79-4.94,21.89,21.89,0,0,0-2.2-4.53l6-3.24a29.33,29.33,0,0,1,3.16,6.48A22.54,22.54,0,0,1,155.09,248.83Zm-25.25-7.23a12.1,12.1,0,0,0-7.43,2q-2.7,2-2.7,6.27a9,9,0,0,0,2.57,6.4,12.21,12.21,0,0,0,7.56,3.41Z"/><path class="adfbdda2-8a2f-4956-bb39-db460214307b" d="M155.09,218.76a6,6,0,0,1-1.83,4.44,7,7,0,0,1-9.3,0,6,6,0,0,1-1.83-4.44,5.83,5.83,0,0,1,1.83-4.4,7.07,7.07,0,0,1,9.3,0A5.83,5.83,0,0,1,155.09,218.76Z"/><path class="adfbdda2-8a2f-4956-bb39-db460214307b" d="M106.16,196.5a6.09,6.09,0,0,1-1.5,4.24,5,5,0,0,1-3.9,1.66,5.13,5.13,0,0,1-3.95-1.66,6.61,6.61,0,0,1,0-8.47,5.14,5.14,0,0,1,3.95-1.66,5,5,0,0,1,3.9,1.66A6.1,6.1,0,0,1,106.16,196.5Zm7.14,4.82v-9.55h40.78v9.55Z"/><path class="adfbdda2-8a2f-4956-bb39-db460214307b" d="M113.31,179.55v-7.89l5.48-.66v-.33a32.37,32.37,0,0,1-4.57-5.94,14.22,14.22,0,0,1-1.91-7.43q0-6.56,4.19-9.55t12-3h25.58v9.55H129.75q-5.07,0-7.14,1.5t-2.08,4.9a8.59,8.59,0,0,0,1.29,4.69A29.91,29.91,0,0,0,125.6,170h28.49v9.55Z"/><path class="adfbdda2-8a2f-4956-bb39-db460214307b" d="M103,112.19a11,11,0,0,0-1,4.49q0,5.15,6.89,5.15h4.4v-8h7.56v8h33.23v9.55H120.86v5.48h-7.14l-.42-5.48h-4.24a21.88,21.88,0,0,1-5.86-.75,12,12,0,0,1-4.65-2.41,11.15,11.15,0,0,1-3-4.19,15.79,15.79,0,0,1-1.08-6.19,20.41,20.41,0,0,1,1.41-7.48Z"/><path class="adfbdda2-8a2f-4956-bb39-db460214307b" d="M155.09,90.84a19.3,19.3,0,0,1-1.41,7.31,18.17,18.17,0,0,1-4.15,6.19,19.85,19.85,0,0,1-6.73,4.28,26.76,26.76,0,0,1-18.11,0,19.85,19.85,0,0,1-6.73-4.28,18.81,18.81,0,0,1-5.65-13.5,19.15,19.15,0,0,1,1.45-7.35A18.18,18.18,0,0,1,118,77.3,20.77,20.77,0,0,1,124.69,73a26.11,26.11,0,0,1,18.11,0,20.77,20.77,0,0,1,6.73,4.28,17.68,17.68,0,0,1,4.15,6.19A19.62,19.62,0,0,1,155.09,90.84Zm-7.81,0a8.15,8.15,0,0,0-3.7-7.06q-3.7-2.57-9.84-2.58t-9.93,2.58a8.16,8.16,0,0,0-3.7,7.06,8.05,8.05,0,0,0,3.7,7q3.7,2.53,9.93,2.53t9.84-2.53A8,8,0,0,0,147.28,90.84Z"/><path class="adfbdda2-8a2f-4956-bb39-db460214307b" d="M139,593.26c-17.28-4.82-36.29,2.48-47.42,16.19-11.75,14.48-8.4,32.54-8.26,49.94A57.06,57.06,0,0,1,68.16,648c.25.23.13,2.43.09,3.21-.17-.17-.35-.33-.52-.5.33.28.13,1.21,0,2q-1.44-1.29-2.8-2.67c10.21-20.31-6.18-49.62-30.56-41.23-12.14,4.18-18.24,17.09-14.84,29.2,3.68,13.1,16.49,17.32,28.89,16.56a3,3,0,0,1-1.09-.18c.89,0,1.78-.09,2.66-.15-.78.06-2.5-1.17-3.17-1.52,1,0,2-.06,2.95-.12a1,1,0,0,1-.43-.16q1.34-.08,2.69-.2a23.15,23.15,0,0,1-4.88-1.46c1.55,0,3.11-.16,4.67-.31a26,26,0,0,0-3.75-1.06l2-.12c-2.49.17-5.32-3.26-7.24-4.2-5.77-2.82-10.88-2.78-13.69-9.48-6.32-15.07,14.44-24,24.65-14.12,10.71,10.37,5.08,24.49-1.38,35.31-9.25,15.5-14.26,28.37-12.4,46.55v-.14q.56,2.66,1.13,5.31l-.06-.45a55.55,55.55,0,0,0,2.17,5.26l-.11-.3q1.39,2.24,2.75,4.49l-.6-1.08c2.44,3.34,5.63,5.44,8.75,8l-.44-.39a46,46,0,0,1,4.51,2.59l-.72-.47c9.17,4.22,18.27,2.15,26.35-3.28,1.26,20.9,16.42,40.56,37.28,45.25,20,4.49,43.36-7,50.44-26.51,7.48-20.63-.92-45-21.74-53.55-23.8-9.74-41.93-.57-58.29,16.89,0-10.66-.09-21.32-.16-32,24.4,8.82,59.91,12.33,76.24-12.54C184.29,635.08,168.25,599.2,139,593.26Zm-93.09,123a57,57,0,0,0,5.71,5.86A17.87,17.87,0,0,1,45.88,716.22Zm-5.27-12.48a8.41,8.41,0,0,1-.29-3.41c.39,2.57,1.18,5.38,1.82,7.88A18.72,18.72,0,0,1,40.61,703.74Zm31.28,17.62-1.28.55,5-1.74-2,.54c1.69-.67,3.34-1.45,4.93-2.21C76,720.62,73,722.21,69.59,722Q70.73,721.62,71.89,721.36Zm0,0,.33-.12A.43.43,0,0,1,71.87,721.35Zm-27.93-9.61-.35-1.25,2,3.65-.12-.12a1.86,1.86,0,0,1,.33.5A9.26,9.26,0,0,1,43.94,711.74Zm26.83,11.05c.68-.1,1.36-.23,2-.34q-1.78,1.77-3.59.48.55,0,1.09-.08l-.38.08Zm6.72-1.55.12,0-.11,0q.72-.42,1.4-.89A15.22,15.22,0,0,1,73,723.5,25.29,25.29,0,0,0,77.48,721.25Zm-33.82-16.4.21-.87c.32,1.13.7,2.24,1,3.39A10.75,10.75,0,0,1,43.66,704.85Zm26.08,19.53c1-.06,1.95-.12,2.93-.22A2.55,2.55,0,0,1,69.74,724.38Zm90.13-17.81c22.17,38.53-30.43,71.61-58.3,39.29-5.57-6.46-10.48-16.52-9.94-25.37.52-8.51,13.8-19.42,21.46-23.72C127.22,688.84,151.21,691.52,159.87,706.57Zm-40-37.33a105.3,105.3,0,0,1-28.42-6.32c.23-15.37-3.63-34.87,6.33-48,9.62-12.65,27.67-18.39,42.48-12.9,18.75,7,28.4,25.36,22.49,44.85C156.7,666.67,138.28,670.77,119.83,669.24ZM53.62,663c2.29-3.9,4.79-7.67,7.07-11.58-2.24,5.53-5.31,10.75-8.12,16Zm9,59.44c.45.16.89.31,1.34.44a7.85,7.85,0,0,1-3.12-1.14C61.79,722,60.34,721.58,62.66,722.42ZM52.25,668.74a12.29,12.29,0,0,1,1-1.68c-.4.76-.79,1.54-1.17,2.3Zm-6.56,6.71a37.76,37.76,0,0,1-1.76,5.36,24.54,24.54,0,0,1,2.48-7.45C46.15,674.06,45.91,674.76,45.69,675.46Zm4,37.07a.51.51,0,0,1-.31-.45A2.07,2.07,0,0,1,49.74,712.52Zm2.19-42.42c.19-.43.36-.87.56-1.31l-.64,1.63Zm-8.38,8.69c-1,3.93-1.67,8-2.4,12A34.62,34.62,0,0,1,43.54,678.8Zm-2.83,16.93.18-.49a10.44,10.44,0,0,1-.06,2.56A5.05,5.05,0,0,1,40.71,695.73Zm3.19,16c-.7-1.09-1.4-1.91-1.1-3.21Zm4.4-45.81c-1.65,3.58-3.45,7.11-4.86,10.79C44.21,672.88,46.44,669.21,48.3,665.87Zm-.7,52.91.09.09A.4.4,0,0,1,47.6,718.78Zm-.84-1-.13-.23c.26.35.53.7.81,1Zm18.51-65.12-.43-.42c.39.36.65,2.35.77,3-.47-.43-.94-.85-1.4-1.3a.76.76,0,0,1,.21.38c-.25-.24-.51-.45-.75-.69,1.2,1,2,4,3.16,5.31,2.11,2.39,5.67,4.39,8.29,6.09a76.51,76.51,0,0,0,8.24,4.69q.09,11.88.17,23.76c0,6.34,1.92,15.82-1.29,20.94-6,9.6-19.55,8-27,2-21.58-17.26,1-49,9.65-66.07A22.32,22.32,0,0,1,65.28,652.66ZM43,675.5q-.45,1.31-.83,2.63A4.44,4.44,0,0,1,43,675.5Zm-.3,36.23a12.21,12.21,0,0,1-1.77-5.36,20.93,20.93,0,0,1,.85,2.49l0-.09a49.9,49.9,0,0,0,4.84,8.82A18.54,18.54,0,0,1,42.71,711.73Z"/><path class="adfbdda2-8a2f-4956-bb39-db460214307b" d="M294.77,557.15v-9.63h46.18V524.92h8.14v32.23Z"/><path class="adfbdda2-8a2f-4956-bb39-db460214307b" d="M301.16,512.3a6.09,6.09,0,0,1-1.5,4.24,5,5,0,0,1-3.9,1.66,5.13,5.13,0,0,1-3.95-1.66,6.61,6.61,0,0,1,0-8.47,5.14,5.14,0,0,1,3.95-1.66,5,5,0,0,1,3.9,1.66A6.09,6.09,0,0,1,301.16,512.3Zm7.14,4.82v-9.55h40.78v9.55Z"/><path class="adfbdda2-8a2f-4956-bb39-db460214307b" d="M350.09,476.25a13.1,13.1,0,0,1-1.37,5.69,19.79,19.79,0,0,1-3.95,5.44v.25l4.32.83V496H290.45v-9.55h15.12l6.81.25a23.83,23.83,0,0,1-3.65-5.61,14.51,14.51,0,0,1-1.41-6.19,15.4,15.4,0,0,1,1.45-6.81,14.12,14.12,0,0,1,4.15-5.07,19.11,19.11,0,0,1,6.52-3.16A31.5,31.5,0,0,1,328,458.8a27.94,27.94,0,0,1,9.34,1.45,21.68,21.68,0,0,1,6.94,3.86,16.63,16.63,0,0,1,4.32,5.57A15.17,15.17,0,0,1,350.09,476.25Zm-7.89,2a8.32,8.32,0,0,0-3.53-6.81q-3.53-2.74-10.51-2.74-6.15,0-9.55,2.08t-3.41,6.73q0,4.32,4.57,9h19a13.17,13.17,0,0,0,2.66-4.28A11.88,11.88,0,0,0,342.2,478.24Z"/><path class="adfbdda2-8a2f-4956-bb39-db460214307b" d="M308.31,449.83v-7.89l7.23-.66v-.33a17.11,17.11,0,0,1-6.11-5.23,11.5,11.5,0,0,1-1.29-11l8.31,1.66a17.75,17.75,0,0,0-.5,2,12.86,12.86,0,0,0-.17,2.24,8.9,8.9,0,0,0,1.87,5.07q1.87,2.66,6.52,4.57h24.92v9.55Z"/><path class="adfbdda2-8a2f-4956-bb39-db460214307b" d="M350.09,403.74a21.16,21.16,0,0,1-1.45,7.89,18.74,18.74,0,0,1-4.19,6.4,19.12,19.12,0,0,1-6.69,4.28,24.68,24.68,0,0,1-9,1.54,24.2,24.2,0,0,1-9-1.58,20.57,20.57,0,0,1-6.73-4.2,18.57,18.57,0,0,1-4.24-6,17.18,17.18,0,0,1-1.5-7,17.75,17.75,0,0,1,1.41-7.31,14.28,14.28,0,0,1,4-5.27,17.56,17.56,0,0,1,6.15-3.2,26.92,26.92,0,0,1,7.81-1.08q1.42,0,2.66.13a17.8,17.8,0,0,1,2,.29v25.92a13.16,13.16,0,0,0,8.43-3.86,11.59,11.59,0,0,0,2.95-8.18,15,15,0,0,0-.79-4.94,21.84,21.84,0,0,0-2.2-4.53l6-3.24a29.31,29.31,0,0,1,3.16,6.48A22.52,22.52,0,0,1,350.09,403.74Zm-25.25-7.23a12.1,12.1,0,0,0-7.44,2q-2.7,2-2.7,6.27a9.05,9.05,0,0,0,2.58,6.4,12.21,12.21,0,0,0,7.56,3.41Z"/><path class="adfbdda2-8a2f-4956-bb39-db460214307b" d="M294.77,378.24V360.88a39.76,39.76,0,0,1,.71-7.77,19.71,19.71,0,0,1,2.24-6.15,11,11,0,0,1,4.11-4.07,12.68,12.68,0,0,1,6.31-1.45,13.79,13.79,0,0,1,7.23,2,10.27,10.27,0,0,1,4.57,5.56h.33a14,14,0,0,1,4.19-7.43q3.2-2.95,8.68-2.95a14.93,14.93,0,0,1,7.06,1.58,14.23,14.23,0,0,1,5,4.36,19.23,19.23,0,0,1,2.95,6.6,34.21,34.21,0,0,1,1,8.31v18.77Zm22.43-16.53q0-5.73-2.08-8.27a6.83,6.83,0,0,0-5.57-2.53q-4,0-5.65,2.66t-1.66,8v7.06h15Zm24.42-1.25q0-6-2.2-9.22T332.64,348q-4.32,0-6.27,3.16t-2,9.3v8.14h17.19Z"/><path class="adfbdda2-8a2f-4956-bb39-db460214307b" d="M301.16,324.66a6.09,6.09,0,0,1-1.5,4.24,5,5,0,0,1-3.9,1.66,5.13,5.13,0,0,1-3.95-1.66,6.61,6.61,0,0,1,0-8.47,5.14,5.14,0,0,1,3.95-1.66,5,5,0,0,1,3.9,1.66A6.09,6.09,0,0,1,301.16,324.66Zm7.14,4.82v-9.55h40.78v9.55Z"/><path class="adfbdda2-8a2f-4956-bb39-db460214307b" d="M290.45,307.72v-9.39h36.63v-.25L308.31,283V272.5l16.61,14,24.17-15.37v10.38L331.4,291.94l7.31,6.4h10.38v9.39Z"/><path class="adfbdda2-8a2f-4956-bb39-db460214307b" d="M350.09,248.83a21.16,21.16,0,0,1-1.45,7.89,18.73,18.73,0,0,1-4.19,6.4,19.12,19.12,0,0,1-6.69,4.28,24.68,24.68,0,0,1-9,1.54,24.18,24.18,0,0,1-9-1.58,20.56,20.56,0,0,1-6.73-4.19,18.56,18.56,0,0,1-4.24-6,17.17,17.17,0,0,1-1.5-7,17.75,17.75,0,0,1,1.41-7.31,14.29,14.29,0,0,1,4-5.27,17.56,17.56,0,0,1,6.15-3.2,26.9,26.9,0,0,1,7.81-1.08q1.42,0,2.66.12a17.88,17.88,0,0,1,2,.29v25.92a13.16,13.16,0,0,0,8.43-3.86,11.59,11.59,0,0,0,2.95-8.18,15,15,0,0,0-.79-4.94,21.84,21.84,0,0,0-2.2-4.53l6-3.24a29.33,29.33,0,0,1,3.16,6.48A22.53,22.53,0,0,1,350.09,248.83Zm-25.25-7.23a12.1,12.1,0,0,0-7.44,2q-2.7,2-2.7,6.27a9.05,9.05,0,0,0,2.58,6.4,12.21,12.21,0,0,0,7.56,3.41Z"/><path class="adfbdda2-8a2f-4956-bb39-db460214307b" d="M350.09,218.76a6,6,0,0,1-1.83,4.44,7,7,0,0,1-9.3,0,6,6,0,0,1-1.83-4.44,5.83,5.83,0,0,1,1.83-4.4,7.08,7.08,0,0,1,9.3,0A5.83,5.83,0,0,1,350.09,218.76Z"/><path class="adfbdda2-8a2f-4956-bb39-db460214307b" d="M301.16,196.5a6.09,6.09,0,0,1-1.5,4.24,5,5,0,0,1-3.9,1.66,5.13,5.13,0,0,1-3.95-1.66,6.61,6.61,0,0,1,0-8.47,5.14,5.14,0,0,1,3.95-1.66,5,5,0,0,1,3.9,1.66A6.09,6.09,0,0,1,301.16,196.5Zm7.14,4.82v-9.55h40.78v9.55Z"/><path class="adfbdda2-8a2f-4956-bb39-db460214307b" d="M308.31,179.55v-7.89l5.48-.66v-.33a32.41,32.41,0,0,1-4.57-5.94,14.22,14.22,0,0,1-1.91-7.43q0-6.56,4.2-9.55t12-3h25.58v9.55H324.75q-5.07,0-7.14,1.5t-2.08,4.9a8.58,8.58,0,0,0,1.29,4.69A29.82,29.82,0,0,0,320.6,170h28.49v9.55Z"/><path class="adfbdda2-8a2f-4956-bb39-db460214307b" d="M298,112.19a11,11,0,0,0-1,4.49q0,5.15,6.89,5.15h4.4v-8h7.56v8h33.23v9.55H315.86v5.48h-7.14l-.42-5.48h-4.24a21.87,21.87,0,0,1-5.86-.75,12,12,0,0,1-4.65-2.41,11.15,11.15,0,0,1-3-4.19,15.79,15.79,0,0,1-1.08-6.19,20.41,20.41,0,0,1,1.41-7.48Z"/><path class="adfbdda2-8a2f-4956-bb39-db460214307b" d="M350.09,90.84a19.3,19.3,0,0,1-1.41,7.31,18.17,18.17,0,0,1-4.15,6.19,19.85,19.85,0,0,1-6.73,4.28,26.76,26.76,0,0,1-18.11,0,19.85,19.85,0,0,1-6.73-4.28,18.82,18.82,0,0,1-5.65-13.5,19.15,19.15,0,0,1,1.45-7.35A18.19,18.19,0,0,1,313,77.3,20.77,20.77,0,0,1,319.69,73a26.11,26.11,0,0,1,18.11,0,20.77,20.77,0,0,1,6.73,4.28,17.67,17.67,0,0,1,4.15,6.19A19.62,19.62,0,0,1,350.09,90.84Zm-7.81,0a8.15,8.15,0,0,0-3.7-7.06q-3.69-2.57-9.84-2.58t-9.93,2.58a8.16,8.16,0,0,0-3.7,7.06,8.05,8.05,0,0,0,3.7,7q3.7,2.53,9.93,2.53t9.84-2.53A8,8,0,0,0,342.28,90.84Z"/><path class="adfbdda2-8a2f-4956-bb39-db460214307b" d="M334,593.26c-17.28-4.82-36.29,2.48-47.42,16.19-11.75,14.48-8.4,32.54-8.26,49.94A57.06,57.06,0,0,1,263.16,648c.25.23.13,2.43.09,3.21-.17-.17-.35-.33-.52-.5.33.28.13,1.21,0,2q-1.44-1.29-2.8-2.67c10.21-20.31-6.18-49.62-30.56-41.23-12.14,4.18-18.24,17.09-14.84,29.2,3.68,13.1,16.49,17.32,28.89,16.56a3,3,0,0,1-1.09-.18c.89,0,1.78-.09,2.66-.15-.78.06-2.5-1.17-3.17-1.52,1,0,2-.06,2.95-.12a1,1,0,0,1-.43-.16q1.34-.08,2.69-.2a23.15,23.15,0,0,1-4.88-1.46c1.55,0,3.11-.16,4.67-.31a26,26,0,0,0-3.75-1.06l2-.12c-2.49.17-5.32-3.26-7.24-4.2-5.77-2.82-10.88-2.78-13.69-9.48-6.32-15.07,14.44-24,24.65-14.12,10.71,10.37,5.08,24.49-1.38,35.31-9.25,15.5-14.26,28.37-12.4,46.55v-.14q.56,2.66,1.13,5.31l-.06-.45a55.55,55.55,0,0,0,2.17,5.26l-.11-.3q1.39,2.24,2.75,4.49l-.6-1.08c2.44,3.34,5.63,5.44,8.75,8l-.44-.39a46,46,0,0,1,4.51,2.59l-.72-.47c9.17,4.22,18.27,2.15,26.35-3.28,1.26,20.9,16.42,40.56,37.28,45.25,20,4.49,43.36-7,50.44-26.51,7.48-20.63-.92-45-21.74-53.55-23.8-9.74-41.93-.57-58.29,16.89,0-10.66-.09-21.32-.16-32,24.4,8.82,59.91,12.33,76.24-12.54C379.29,635.08,363.25,599.2,334,593.26Zm-93.09,123a57,57,0,0,0,5.71,5.86A17.87,17.87,0,0,1,240.88,716.22Zm-5.27-12.48a8.41,8.41,0,0,1-.29-3.41c.39,2.57,1.18,5.38,1.82,7.88A18.72,18.72,0,0,1,235.61,703.74Zm31.28,17.62-1.28.55,5-1.74-2,.54c1.69-.67,3.34-1.45,4.93-2.21-2.56,2.12-5.55,3.71-8.94,3.48Q265.73,721.62,266.89,721.36Zm0,0,.33-.12A.43.43,0,0,1,266.87,721.35Zm-27.93-9.61-.35-1.25,2,3.65-.12-.12a1.86,1.86,0,0,1,.33.5A9.26,9.26,0,0,1,238.94,711.74Zm26.83,11.05c.68-.1,1.36-.23,2-.34q-1.78,1.77-3.59.48.55,0,1.09-.08l-.38.08Zm6.72-1.55.12,0-.11,0q.72-.42,1.4-.89A15.22,15.22,0,0,1,268,723.5,25.29,25.29,0,0,0,272.48,721.25Zm-33.82-16.4.21-.87c.32,1.13.7,2.24,1,3.39A10.75,10.75,0,0,1,238.66,704.85Zm26.08,19.53c1-.06,1.95-.12,2.93-.22A2.55,2.55,0,0,1,264.74,724.38Zm90.13-17.81c22.17,38.53-30.43,71.61-58.3,39.29-5.57-6.46-10.48-16.52-9.94-25.37.52-8.51,13.8-19.42,21.46-23.72C322.22,688.84,346.21,691.52,354.87,706.57Zm-40-37.33a105.3,105.3,0,0,1-28.42-6.32c.23-15.37-3.63-34.87,6.33-48,9.62-12.65,27.67-18.39,42.48-12.9,18.75,7,28.4,25.36,22.49,44.85C351.7,666.67,333.28,670.77,314.83,669.24ZM248.62,663c2.29-3.9,4.79-7.67,7.07-11.58-2.24,5.53-5.31,10.75-8.12,16Zm9,59.44c.45.16.89.31,1.34.44a7.85,7.85,0,0,1-3.12-1.14C256.79,722,255.34,721.58,257.66,722.42Zm-10.41-53.67a12.29,12.29,0,0,1,1-1.68c-.4.76-.79,1.54-1.17,2.3Zm-6.56,6.71a37.76,37.76,0,0,1-1.76,5.36,24.54,24.54,0,0,1,2.48-7.45C241.15,674.06,240.91,674.76,240.69,675.46Zm4,37.07a.51.51,0,0,1-.31-.45A2.07,2.07,0,0,1,244.74,712.52Zm2.19-42.42c.19-.43.36-.87.56-1.31l-.64,1.63Zm-8.38,8.69c-1,3.93-1.67,8-2.4,12A34.62,34.62,0,0,1,238.54,678.8Zm-2.83,16.93.18-.49a10.44,10.44,0,0,1-.06,2.56A5.05,5.05,0,0,1,235.71,695.73Zm3.19,16c-.7-1.09-1.4-1.91-1.1-3.21Zm4.4-45.81c-1.65,3.58-3.45,7.11-4.86,10.79C239.21,672.88,241.44,669.21,243.3,665.87Zm-.7,52.91.09.09A.4.4,0,0,1,242.6,718.78Zm-.84-1-.13-.23c.26.35.53.7.81,1Zm18.51-65.12-.43-.42c.39.36.65,2.35.77,3-.47-.43-.94-.85-1.4-1.3a.76.76,0,0,1,.21.38c-.25-.24-.51-.45-.75-.69,1.2,1,2,4,3.16,5.31,2.11,2.39,5.67,4.39,8.29,6.09a76.51,76.51,0,0,0,8.24,4.69q.09,11.88.17,23.76c0,6.34,1.92,15.82-1.29,20.94-6,9.6-19.55,8-27,2-21.58-17.26,1-49,9.65-66.07A22.32,22.32,0,0,1,260.28,652.66ZM238,675.5q-.45,1.31-.83,2.63A4.44,4.44,0,0,1,238,675.5Zm-.3,36.23a12.21,12.21,0,0,1-1.77-5.36,20.93,20.93,0,0,1,.85,2.49l0-.09a49.9,49.9,0,0,0,4.84,8.82A18.54,18.54,0,0,1,237.71,711.73Z"/><path class="adfbdda2-8a2f-4956-bb39-db460214307b" d="M489.77,557.15v-9.63h46.18V524.92h8.14v32.23Z"/><path class="adfbdda2-8a2f-4956-bb39-db460214307b" d="M496.16,512.3a6.09,6.09,0,0,1-1.5,4.24,5,5,0,0,1-3.9,1.66,5.13,5.13,0,0,1-3.95-1.66,6.61,6.61,0,0,1,0-8.47,5.14,5.14,0,0,1,3.95-1.66,5,5,0,0,1,3.9,1.66A6.09,6.09,0,0,1,496.16,512.3Zm7.14,4.82v-9.55h40.78v9.55Z"/><path class="adfbdda2-8a2f-4956-bb39-db460214307b" d="M545.09,476.25a13.1,13.1,0,0,1-1.37,5.69,19.79,19.79,0,0,1-3.95,5.44v.25l4.32.83V496H485.45v-9.55h15.12l6.81.25a23.83,23.83,0,0,1-3.65-5.61,14.51,14.51,0,0,1-1.41-6.19,15.4,15.4,0,0,1,1.45-6.81,14.12,14.12,0,0,1,4.15-5.07,19.11,19.11,0,0,1,6.52-3.16A31.5,31.5,0,0,1,523,458.8a27.94,27.94,0,0,1,9.34,1.45,21.68,21.68,0,0,1,6.94,3.86,16.63,16.63,0,0,1,4.32,5.57A15.17,15.17,0,0,1,545.09,476.25Zm-7.89,2a8.32,8.32,0,0,0-3.53-6.81q-3.53-2.74-10.51-2.74-6.15,0-9.55,2.08t-3.41,6.73q0,4.32,4.57,9h19a13.17,13.17,0,0,0,2.66-4.28A11.88,11.88,0,0,0,537.2,478.24Z"/><path class="adfbdda2-8a2f-4956-bb39-db460214307b" d="M503.31,449.83v-7.89l7.23-.66v-.33a17.11,17.11,0,0,1-6.11-5.23,11.5,11.5,0,0,1-1.29-11l8.31,1.66a17.75,17.75,0,0,0-.5,2,12.86,12.86,0,0,0-.17,2.24,8.9,8.9,0,0,0,1.87,5.07q1.87,2.66,6.52,4.57h24.92v9.55Z"/><path class="adfbdda2-8a2f-4956-bb39-db460214307b" d="M545.09,403.74a21.16,21.16,0,0,1-1.45,7.89,18.74,18.74,0,0,1-4.19,6.4,19.12,19.12,0,0,1-6.69,4.28,24.68,24.68,0,0,1-9,1.54,24.2,24.2,0,0,1-9-1.58,20.57,20.57,0,0,1-6.73-4.2,18.57,18.57,0,0,1-4.24-6,17.18,17.18,0,0,1-1.5-7,17.75,17.75,0,0,1,1.41-7.31,14.28,14.28,0,0,1,4-5.27,17.56,17.56,0,0,1,6.15-3.2,26.92,26.92,0,0,1,7.81-1.08q1.42,0,2.66.13a17.8,17.8,0,0,1,2,.29v25.92a13.16,13.16,0,0,0,8.43-3.86,11.59,11.59,0,0,0,2.95-8.18,15,15,0,0,0-.79-4.94,21.84,21.84,0,0,0-2.2-4.53l6-3.24a29.31,29.31,0,0,1,3.16,6.48A22.52,22.52,0,0,1,545.09,403.74Zm-25.25-7.23a12.1,12.1,0,0,0-7.44,2q-2.7,2-2.7,6.27a9.05,9.05,0,0,0,2.58,6.4,12.21,12.21,0,0,0,7.56,3.41Z"/><path class="adfbdda2-8a2f-4956-bb39-db460214307b" d="M489.77,378.24V360.88a39.68,39.68,0,0,1,.71-7.77,19.71,19.71,0,0,1,2.24-6.15,11,11,0,0,1,4.11-4.07,12.68,12.68,0,0,1,6.31-1.45,13.79,13.79,0,0,1,7.23,2,10.27,10.27,0,0,1,4.57,5.56h.33a14,14,0,0,1,4.19-7.43q3.2-2.95,8.68-2.95a14.93,14.93,0,0,1,7.06,1.58,14.23,14.23,0,0,1,5,4.36,19.23,19.23,0,0,1,2.95,6.6,34.21,34.21,0,0,1,1,8.31v18.77Zm22.43-16.53q0-5.73-2.08-8.27a6.83,6.83,0,0,0-5.57-2.53q-4,0-5.65,2.66t-1.66,8v7.06h15Zm24.42-1.25q0-6-2.2-9.22T527.64,348q-4.32,0-6.27,3.16t-2,9.3v8.14h17.19Z"/><path class="adfbdda2-8a2f-4956-bb39-db460214307b" d="M496.16,324.66a6.09,6.09,0,0,1-1.5,4.24,5,5,0,0,1-3.9,1.66,5.13,5.13,0,0,1-3.95-1.66,6.61,6.61,0,0,1,0-8.47,5.14,5.14,0,0,1,3.95-1.66,5,5,0,0,1,3.9,1.66A6.09,6.09,0,0,1,496.16,324.66Zm7.14,4.82v-9.55h40.78v9.55Z"/><path class="adfbdda2-8a2f-4956-bb39-db460214307b" d="M485.45,307.72v-9.39h36.63v-.25L503.31,283V272.5l16.61,14,24.17-15.37v10.38L526.4,291.94l7.31,6.4h10.38v9.39Z"/><path class="adfbdda2-8a2f-4956-bb39-db460214307b" d="M545.09,248.83a21.16,21.16,0,0,1-1.45,7.89,18.73,18.73,0,0,1-4.19,6.4,19.12,19.12,0,0,1-6.69,4.28,24.68,24.68,0,0,1-9,1.54,24.18,24.18,0,0,1-9-1.58,20.56,20.56,0,0,1-6.73-4.19,18.56,18.56,0,0,1-4.24-6,17.17,17.17,0,0,1-1.5-7,17.75,17.75,0,0,1,1.41-7.31,14.29,14.29,0,0,1,4-5.27,17.56,17.56,0,0,1,6.15-3.2,26.9,26.9,0,0,1,7.81-1.08q1.42,0,2.66.12a17.88,17.88,0,0,1,2,.29v25.92a13.16,13.16,0,0,0,8.43-3.86,11.59,11.59,0,0,0,2.95-8.18,15,15,0,0,0-.79-4.94,21.84,21.84,0,0,0-2.2-4.53l6-3.24a29.33,29.33,0,0,1,3.16,6.48A22.53,22.53,0,0,1,545.09,248.83Zm-25.25-7.23a12.1,12.1,0,0,0-7.44,2q-2.7,2-2.7,6.27a9.05,9.05,0,0,0,2.58,6.4,12.21,12.21,0,0,0,7.56,3.41Z"/><path class="adfbdda2-8a2f-4956-bb39-db460214307b" d="M545.09,218.76a6,6,0,0,1-1.83,4.44,7,7,0,0,1-9.3,0,6,6,0,0,1-1.83-4.44,5.83,5.83,0,0,1,1.83-4.4,7.08,7.08,0,0,1,9.3,0A5.83,5.83,0,0,1,545.09,218.76Z"/><path class="adfbdda2-8a2f-4956-bb39-db460214307b" d="M496.16,196.5a6.09,6.09,0,0,1-1.5,4.24,5,5,0,0,1-3.9,1.66,5.13,5.13,0,0,1-3.95-1.66,6.61,6.61,0,0,1,0-8.47,5.14,5.14,0,0,1,3.95-1.66,5,5,0,0,1,3.9,1.66A6.09,6.09,0,0,1,496.16,196.5Zm7.14,4.82v-9.55h40.78v9.55Z"/><path class="adfbdda2-8a2f-4956-bb39-db460214307b" d="M503.31,179.55v-7.89l5.48-.66v-.33a32.41,32.41,0,0,1-4.57-5.94,14.22,14.22,0,0,1-1.91-7.43q0-6.56,4.2-9.55t12-3h25.58v9.55H519.75q-5.07,0-7.14,1.5t-2.08,4.9a8.58,8.58,0,0,0,1.29,4.69A29.82,29.82,0,0,0,515.6,170h28.49v9.55Z"/><path class="adfbdda2-8a2f-4956-bb39-db460214307b" d="M493,112.19a11,11,0,0,0-1,4.49q0,5.15,6.89,5.15h4.4v-8h7.56v8h33.23v9.55H510.86v5.48h-7.14l-.42-5.48h-4.24a21.88,21.88,0,0,1-5.86-.75,12,12,0,0,1-4.65-2.41,11.15,11.15,0,0,1-3-4.19,15.79,15.79,0,0,1-1.08-6.19,20.41,20.41,0,0,1,1.41-7.48Z"/><path class="adfbdda2-8a2f-4956-bb39-db460214307b" d="M545.09,90.84a19.3,19.3,0,0,1-1.41,7.31,18.17,18.17,0,0,1-4.15,6.19,19.85,19.85,0,0,1-6.73,4.28,26.76,26.76,0,0,1-18.11,0,19.85,19.85,0,0,1-6.73-4.28,18.82,18.82,0,0,1-5.65-13.5,19.15,19.15,0,0,1,1.45-7.35A18.19,18.19,0,0,1,508,77.3,20.77,20.77,0,0,1,514.69,73a26.11,26.11,0,0,1,18.11,0,20.77,20.77,0,0,1,6.73,4.28,17.67,17.67,0,0,1,4.15,6.19A19.62,19.62,0,0,1,545.09,90.84Zm-7.81,0a8.15,8.15,0,0,0-3.7-7.06q-3.69-2.57-9.84-2.58t-9.93,2.58a8.16,8.16,0,0,0-3.7,7.06,8.05,8.05,0,0,0,3.7,7q3.7,2.53,9.93,2.53t9.84-2.53A8,8,0,0,0,537.28,90.84Z"/><path class="adfbdda2-8a2f-4956-bb39-db460214307b" d="M529,593.26c-17.28-4.82-36.29,2.48-47.42,16.19-11.75,14.48-8.4,32.54-8.26,49.94A57.06,57.06,0,0,1,458.16,648c.25.23.13,2.43.09,3.21-.17-.17-.35-.33-.52-.5.33.28.13,1.21,0,2q-1.44-1.29-2.8-2.67c10.21-20.31-6.18-49.62-30.56-41.23-12.14,4.18-18.24,17.09-14.84,29.2,3.68,13.1,16.49,17.32,28.89,16.56a3,3,0,0,1-1.09-.18c.89,0,1.78-.09,2.66-.15-.78.06-2.5-1.17-3.17-1.52,1,0,2-.06,2.95-.12a1,1,0,0,1-.43-.16q1.34-.08,2.69-.2a23.15,23.15,0,0,1-4.88-1.46c1.55,0,3.11-.16,4.67-.31a26,26,0,0,0-3.75-1.06l2-.12c-2.49.17-5.32-3.26-7.24-4.2-5.77-2.82-10.88-2.78-13.69-9.48-6.32-15.07,14.44-24,24.65-14.12,10.71,10.37,5.08,24.49-1.38,35.31-9.25,15.5-14.26,28.37-12.4,46.55v-.14q.56,2.66,1.13,5.31l-.06-.45a55.55,55.55,0,0,0,2.17,5.26l-.11-.3q1.39,2.24,2.75,4.49l-.6-1.08c2.44,3.34,5.63,5.44,8.75,8l-.44-.39a46,46,0,0,1,4.51,2.59l-.72-.47c9.17,4.22,18.27,2.15,26.35-3.28,1.26,20.9,16.42,40.56,37.28,45.25,20,4.49,43.36-7,50.44-26.51,7.48-20.63-.92-45-21.74-53.55-23.8-9.74-41.93-.57-58.29,16.89,0-10.66-.09-21.32-.16-32,24.4,8.82,59.91,12.33,76.24-12.54C574.29,635.08,558.25,599.2,529,593.26Zm-93.09,123a57,57,0,0,0,5.71,5.86A17.87,17.87,0,0,1,435.88,716.22Zm-5.27-12.48a8.41,8.41,0,0,1-.29-3.41c.39,2.57,1.18,5.38,1.82,7.88A18.72,18.72,0,0,1,430.61,703.74Zm31.28,17.62-1.28.55,5-1.74-2,.54c1.69-.67,3.34-1.45,4.93-2.21-2.56,2.12-5.55,3.71-8.94,3.48Q460.73,721.62,461.89,721.36Zm0,0,.33-.12A.43.43,0,0,1,461.87,721.35Zm-27.93-9.61-.35-1.25,2,3.65-.12-.12a1.86,1.86,0,0,1,.33.5A9.26,9.26,0,0,1,433.94,711.74Zm26.83,11.05c.68-.1,1.36-.23,2-.34q-1.78,1.77-3.59.48.55,0,1.09-.08l-.38.08Zm6.72-1.55.12,0-.11,0q.72-.42,1.4-.89A15.22,15.22,0,0,1,463,723.5,25.29,25.29,0,0,0,467.48,721.25Zm-33.82-16.4.21-.87c.32,1.13.7,2.24,1,3.39A10.75,10.75,0,0,1,433.66,704.85Zm26.08,19.53c1-.06,1.95-.12,2.93-.22A2.55,2.55,0,0,1,459.74,724.38Zm90.13-17.81c22.17,38.53-30.43,71.61-58.3,39.29-5.57-6.46-10.48-16.52-9.94-25.37.52-8.51,13.8-19.42,21.46-23.72C517.22,688.84,541.21,691.52,549.87,706.57Zm-40-37.33a105.3,105.3,0,0,1-28.42-6.32c.23-15.37-3.63-34.87,6.33-48,9.62-12.65,27.67-18.39,42.48-12.9,18.75,7,28.4,25.36,22.49,44.85C546.7,666.67,528.28,670.77,509.83,669.24ZM443.62,663c2.29-3.9,4.79-7.67,7.07-11.58-2.24,5.53-5.31,10.75-8.12,16Zm9,59.44c.45.16.89.31,1.34.44a7.85,7.85,0,0,1-3.12-1.14C451.79,722,450.34,721.58,452.66,722.42Zm-10.41-53.67a12.29,12.29,0,0,1,1-1.68c-.4.76-.79,1.54-1.17,2.3Zm-6.56,6.71a37.76,37.76,0,0,1-1.76,5.36,24.54,24.54,0,0,1,2.48-7.45C436.15,674.06,435.91,674.76,435.69,675.46Zm4,37.07a.51.51,0,0,1-.31-.45A2.07,2.07,0,0,1,439.74,712.52Zm2.19-42.42c.19-.43.36-.87.56-1.31l-.64,1.63Zm-8.38,8.69c-1,3.93-1.67,8-2.4,12A34.62,34.62,0,0,1,433.54,678.8Zm-2.83,16.93.18-.49a10.44,10.44,0,0,1-.06,2.56A5.05,5.05,0,0,1,430.71,695.73Zm3.19,16c-.7-1.09-1.4-1.91-1.1-3.21Zm4.4-45.81c-1.65,3.58-3.45,7.11-4.86,10.79C434.21,672.88,436.44,669.21,438.3,665.87Zm-.7,52.91.09.09A.4.4,0,0,1,437.6,718.78Zm-.84-1-.13-.23c.26.35.53.7.81,1Zm18.51-65.12-.43-.42c.39.36.65,2.35.77,3-.47-.43-.94-.85-1.4-1.3a.76.76,0,0,1,.21.38c-.25-.24-.51-.45-.75-.69,1.2,1,2,4,3.16,5.31,2.11,2.39,5.67,4.39,8.29,6.09a76.51,76.51,0,0,0,8.24,4.69q.09,11.88.17,23.76c0,6.34,1.92,15.82-1.29,20.94-6,9.6-19.55,8-27,2-21.58-17.26,1-49,9.65-66.07A22.32,22.32,0,0,1,455.28,652.66ZM433,675.5q-.45,1.31-.83,2.63A4.44,4.44,0,0,1,433,675.5Zm-.3,36.23a12.21,12.21,0,0,1-1.77-5.36,20.93,20.93,0,0,1,.85,2.49l0-.09a49.9,49.9,0,0,0,4.84,8.82A18.54,18.54,0,0,1,432.71,711.73Z"/><line class="800375b6-3734-4c2c-8d60-1c78621042b0" x1="198.43" x2="198.43" y2="6"/><line class="0140e582-bd91-427f-ae0b-0443ac3b14d7" x1="198.43" y1="17.9" x2="198.43" y2="821.4"/><line class="800375b6-3734-4c2c-8d60-1c78621042b0" x1="198.43" y1="827.35" x2="198.43" y2="833.35"/><path class="3d9428c4-ad32-4ff3-97b6-3a2b28ada183" d="M201.35,833.59l-1.66-7c1.74,1.21,2.25,2.91,2.85,4.83l.66,2.12c.06.21.16,1,.38,1.05a6.32,6.32,0,0,1,1.95,1.27c.28.3.62,1,1.09.81s.6-.62,1.1-.72a2.07,2.07,0,0,1,2,.93,1.49,1.49,0,0,1-.37,2.07c-1.06.68-2.14-.17-2.73-1a5.78,5.78,0,0,0-1.51-1.68,4.92,4.92,0,0,0-1-.52c-.42-.15-.58-.22-.81.11-.86,1.25.23,2.57.78,3.6a1.59,1.59,0,0,1-2.45,2,1.75,1.75,0,0,1-.61-1.95,1.55,1.55,0,0,1,.76-.8c.33-.17.87-.13,1-.51s-.48-1.59-.61-2c-.3-1-.29-1-1.25-1.32l-2.13-.82c-.22-.09-.82-.18-.82-.45v-1.29C199.11,832.65,200.22,833.1,201.35,833.59Zm6.29,2.93c-1.39.63,0,2.5,1.17,2.15C210.41,838.19,208.94,835.91,207.64,836.52Zm-3.9,3.32c-.63-1.4-2.87-.84-2.23.68S204.49,841.4,203.73,839.84Z"/><line class="800375b6-3734-4c2c-8d60-1c78621042b0" x1="395.43" x2="395.43" y2="6"/><line class="0140e582-bd91-427f-ae0b-0443ac3b14d7" x1="395.43" y1="17.9" x2="395.43" y2="821.4"/><line class="800375b6-3734-4c2c-8d60-1c78621042b0" x1="395.43" y1="827.35" x2="395.43" y2="833.35"/><path class="3d9428c4-ad32-4ff3-97b6-3a2b28ada183" d="M398.35,833.59l-1.66-7c1.74,1.21,2.25,2.91,2.85,4.83l.66,2.12c.06.21.16,1,.38,1.05a6.32,6.32,0,0,1,1.95,1.27c.28.3.62,1,1.09.81s.6-.62,1.1-.72a2.07,2.07,0,0,1,2,.93,1.49,1.49,0,0,1-.37,2.07c-1.06.68-2.14-.17-2.73-1a5.78,5.78,0,0,0-1.51-1.68,4.92,4.92,0,0,0-1-.52c-.42-.15-.58-.22-.81.11-.86,1.25.23,2.57.78,3.6a1.59,1.59,0,0,1-2.45,2,1.75,1.75,0,0,1-.61-1.95,1.55,1.55,0,0,1,.76-.8c.33-.17.87-.13,1-.51s-.48-1.59-.61-2c-.3-1-.29-1-1.25-1.32l-2.13-.82c-.22-.09-.82-.18-.82-.45v-1.29C396.11,832.65,397.22,833.1,398.35,833.59Zm6.29,2.93c-1.39.63,0,2.5,1.17,2.15C407.41,838.19,405.94,835.91,404.64,836.52Zm-3.9,3.32c-.63-1.4-2.87-.84-2.23.68S401.49,841.4,400.73,839.84Z"/></svg>