<?xml version="1.0" encoding="utf-8"?><svg version="1.1" id="Layer_1" xmlns="http://www.w3.org/2000/svg" xmlns:xlink="http://www.w3.org/1999/xlink" x="0px" y="0px"	 viewBox="0 0 595.3 841.9" style="enable-background:new 0 0 595.3 841.9;" xml:space="preserve"><g>	<path d="M160.2,280v9.6H114v22.6h-8.1V280H160.2z"/>	<path d="M146.7,320.1v9.6h-40.8v-9.6H146.7z M153.8,324.9c0-1.7,0.5-3.1,1.5-4.2c1-1.1,2.3-1.7,3.9-1.7c1.6,0,2.9,0.6,3.9,1.7		c1,1.1,1.5,2.5,1.5,4.2c0,1.7-0.5,3.1-1.5,4.2c-1,1.1-2.3,1.7-3.9,1.7c-1.6,0-2.9-0.6-3.9-1.7C154.3,328,153.8,326.6,153.8,324.9z"		/>	<path d="M104.9,360.9c0-1.9,0.5-3.8,1.4-5.7c0.9-1.9,2.2-3.7,3.9-5.4v-0.2l-4.3-0.8v-7.6h58.6v9.6h-15.1l-6.8-0.2		c1.5,1.7,2.7,3.6,3.7,5.6c0.9,2,1.4,4.1,1.4,6.2c0,2.5-0.5,4.8-1.5,6.8c-1,2-2.4,3.7-4.2,5.1c-1.8,1.4-4,2.4-6.5,3.2		c-2.5,0.7-5.4,1.1-8.6,1.1c-3.5,0-6.6-0.5-9.3-1.5s-5.1-2.3-6.9-3.9c-1.9-1.6-3.3-3.5-4.3-5.6C105.4,365.4,104.9,363.2,104.9,360.9		z M112.8,358.9c0,2.7,1.2,5,3.5,6.8c2.4,1.8,5.9,2.7,10.5,2.7c4.1,0,7.3-0.7,9.6-2.1c2.3-1.4,3.4-3.6,3.4-6.7c0-2.9-1.5-5.9-4.6-9		h-19c-1.3,1.4-2.2,2.9-2.7,4.3C113,356.4,112.8,357.7,112.8,358.9z"/>	<path d="M146.7,387.3v7.9l-7.2,0.7v0.3c2.7,1.4,4.7,3.2,6.1,5.2c1.4,2,2.1,4.2,2.1,6.3c0,1.9-0.3,3.5-0.8,4.7l-8.3-1.7		c0.2-0.7,0.4-1.4,0.5-2c0.1-0.6,0.2-1.4,0.2-2.2c0-1.6-0.6-3.3-1.9-5.1c-1.2-1.8-3.4-3.3-6.5-4.6h-24.9v-9.6H146.7z"/>	<path d="M104.9,433.4c0-2.8,0.5-5.5,1.5-7.9c1-2.4,2.4-4.6,4.2-6.4c1.8-1.8,4.1-3.3,6.7-4.3c2.6-1,5.6-1.5,9-1.5		c3.3,0,6.3,0.5,9,1.6c2.7,1.1,4.9,2.5,6.7,4.2c1.8,1.7,3.2,3.8,4.2,6c1,2.3,1.5,4.6,1.5,7c0,2.8-0.5,5.2-1.4,7.3		c-0.9,2.1-2.3,3.9-4,5.3c-1.7,1.4-3.8,2.5-6.1,3.2c-2.4,0.7-5,1.1-7.8,1.1c-0.9,0-1.8,0-2.7-0.1s-1.5-0.2-2-0.3v-25.9		c-3.7,0.4-6.5,1.7-8.4,3.9c-2,2.1-2.9,4.9-2.9,8.2c0,1.8,0.3,3.4,0.8,4.9c0.5,1.5,1.3,3,2.2,4.5l-6,3.2c-1.3-1.9-2.3-4.1-3.2-6.5		S104.9,436,104.9,433.4z M130.1,440.7c3.2,0,5.6-0.7,7.4-2c1.8-1.4,2.7-3.4,2.7-6.3c0-2.4-0.9-4.6-2.6-6.4c-1.7-1.8-4.2-3-7.6-3.4		V440.7z"/>	<path d="M160.2,458.9v17.4c0,2.8-0.2,5.4-0.7,7.8c-0.5,2.4-1.2,4.4-2.2,6.1c-1,1.7-2.4,3.1-4.1,4.1c-1.7,1-3.8,1.5-6.3,1.5		c-2.6,0-5-0.7-7.2-2c-2.2-1.3-3.7-3.2-4.6-5.6h-0.3c-0.7,3-2.1,5.5-4.2,7.4c-2.1,2-5,2.9-8.7,2.9c-2.7,0-5.1-0.5-7.1-1.6		c-2-1.1-3.7-2.5-5-4.4c-1.3-1.9-2.3-4.1-2.9-6.6c-0.6-2.5-1-5.3-1-8.3v-18.8H160.2z M113.4,476.7c0,4,0.7,7.1,2.2,9.2		c1.5,2.2,3.7,3.2,6.8,3.2c2.9,0,5-1.1,6.3-3.2c1.3-2.1,2-5.2,2-9.3v-8.1h-17.2V476.7z M137.8,475.5c0,3.8,0.7,6.6,2.1,8.3		c1.4,1.7,3.2,2.5,5.6,2.5c2.7,0,4.5-0.9,5.6-2.7c1.1-1.8,1.7-4.4,1.7-8v-7.1h-15V475.5z"/>	<path d="M146.7,507.7v9.6h-40.8v-9.6H146.7z M153.8,512.5c0-1.7,0.5-3.1,1.5-4.2s2.3-1.7,3.9-1.7c1.6,0,2.9,0.6,3.9,1.7		c1,1.1,1.5,2.5,1.5,4.2s-0.5,3.1-1.5,4.2c-1,1.1-2.3,1.7-3.9,1.7c-1.6,0-2.9-0.6-3.9-1.7S153.8,514.2,153.8,512.5z"/>	<path d="M164.5,529.5v9.4h-36.6v0.2l18.8,15.1v10.5l-16.6-14l-24.2,15.4v-10.4l17.7-10.5l-7.3-6.4h-10.4v-9.4H164.5z"/>	<path d="M104.9,588.3c0-2.8,0.5-5.5,1.5-7.9c1-2.4,2.4-4.6,4.2-6.4c1.8-1.8,4.1-3.3,6.7-4.3c2.6-1,5.6-1.5,9-1.5		c3.3,0,6.3,0.5,9,1.6c2.7,1.1,4.9,2.5,6.7,4.2c1.8,1.7,3.2,3.8,4.2,6c1,2.3,1.5,4.6,1.5,7c0,2.8-0.5,5.2-1.4,7.3		c-0.9,2.1-2.3,3.9-4,5.3c-1.7,1.4-3.8,2.5-6.1,3.2c-2.4,0.7-5,1.1-7.8,1.1c-0.9,0-1.8,0-2.7-0.1s-1.5-0.2-2-0.3v-25.9		c-3.7,0.4-6.5,1.7-8.4,3.9c-2,2.1-2.9,4.9-2.9,8.2c0,1.8,0.3,3.4,0.8,4.9c0.5,1.5,1.3,3,2.2,4.5l-6,3.2c-1.3-1.9-2.3-4.1-3.2-6.5		C105.3,593.4,104.9,590.9,104.9,588.3z M130.1,595.6c3.2,0,5.6-0.7,7.4-2c1.8-1.4,2.7-3.4,2.7-6.3c0-2.4-0.9-4.6-2.6-6.4		c-1.7-1.8-4.2-3-7.6-3.4V595.6z"/>	<path d="M104.9,618.4c0-1.8,0.6-3.3,1.8-4.4c1.2-1.2,2.8-1.8,4.7-1.8c1.9,0,3.4,0.6,4.7,1.8c1.2,1.2,1.8,2.7,1.8,4.4		c0,1.8-0.6,3.2-1.8,4.4c-1.2,1.2-2.8,1.7-4.7,1.7c-1.9,0-3.4-0.6-4.7-1.7C105.5,621.7,104.9,620.2,104.9,618.4z"/>	<path d="M146.7,635.9v9.6h-40.8v-9.6H146.7z M153.8,640.7c0-1.7,0.5-3.1,1.5-4.2c1-1.1,2.3-1.7,3.9-1.7c1.6,0,2.9,0.6,3.9,1.7		c1,1.1,1.5,2.5,1.5,4.2c0,1.7-0.5,3.1-1.5,4.2c-1,1.1-2.3,1.7-3.9,1.7c-1.6,0-2.9-0.6-3.9-1.7C154.3,643.8,153.8,642.4,153.8,640.7		z"/>	<path d="M146.7,657.6v7.9l-5.5,0.7v0.3c1.8,1.8,3.3,3.8,4.6,5.9c1.3,2.1,1.9,4.6,1.9,7.4c0,4.4-1.4,7.6-4.2,9.6c-2.8,2-6.8,3-12,3		h-25.6v-9.6h24.3c3.4,0,5.8-0.5,7.1-1.5c1.4-1,2.1-2.6,2.1-4.9c0-1.8-0.4-3.3-1.3-4.7c-0.9-1.4-2.1-2.9-3.8-4.6h-28.5v-9.6H146.7z"		/>	<path d="M157,725c0.7-1.5,1-3,1-4.5c0-3.4-2.3-5.1-6.9-5.1h-4.4v8h-7.6v-8h-33.2v-9.6h33.2v-5.5h7.1l0.4,5.5h4.2		c2.1,0,4.1,0.2,5.9,0.7c1.8,0.5,3.3,1.3,4.7,2.4c1.3,1.1,2.3,2.5,3,4.2c0.7,1.7,1.1,3.8,1.1,6.2c0,1.4-0.1,2.8-0.4,4.1		c-0.3,1.3-0.6,2.4-1,3.4L157,725z"/>	<path d="M104.9,746.3c0-2.5,0.5-5,1.4-7.3c0.9-2.3,2.3-4.4,4.2-6.2c1.8-1.8,4.1-3.2,6.7-4.3c2.7-1.1,5.7-1.6,9.1-1.6		c3.4,0,6.4,0.5,9.1,1.6c2.7,1.1,4.9,2.5,6.7,4.3c1.8,1.8,3.2,3.9,4.2,6.2c1,2.3,1.5,4.8,1.5,7.3s-0.5,5-1.5,7.4		c-1,2.4-2.4,4.4-4.2,6.2c-1.8,1.8-4.1,3.2-6.7,4.3c-2.7,1.1-5.7,1.6-9.1,1.6c-3.4,0-6.4-0.5-9.1-1.6c-2.7-1.1-4.9-2.5-6.7-4.3		c-1.8-1.8-3.2-3.8-4.2-6.2C105.4,751.3,104.9,748.9,104.9,746.3z M112.7,746.3c0,3,1.2,5.3,3.7,7.1c2.5,1.7,5.7,2.6,9.8,2.6		c4.2,0,7.5-0.9,9.9-2.6c2.5-1.7,3.7-4.1,3.7-7.1s-1.2-5.3-3.7-7c-2.5-1.7-5.8-2.5-9.9-2.5c-4.1,0-7.4,0.8-9.8,2.5		C113.9,741,112.7,743.3,112.7,746.3z"/></g><g>	<path d="M121,243.9c17.3,4.8,36.3-2.5,47.4-16.2c11.8-14.5,8.4-32.5,8.3-49.9c5.5,2.9,10.9,6.8,15.1,11.3c-0.2-0.2-0.1-2.4-0.1-3.2		c0.2,0.2,0.4,0.3,0.5,0.5c-0.3-0.3-0.1-1.2,0-2c1,0.9,1.9,1.8,2.8,2.7c-10.2,20.3,6.2,49.6,30.6,41.2c12.1-4.2,18.2-17.1,14.8-29.2		c-3.7-13.1-16.5-17.3-28.9-16.6c0.3,0,0.7,0.1,1.1,0.2c-0.9,0-1.8,0.1-2.7,0.2c0.8-0.1,2.5,1.2,3.2,1.5c-1,0-2,0.1-2.9,0.1		c0.1,0,0.3,0.1,0.4,0.2c-0.9,0.1-1.8,0.1-2.7,0.2c0.6-0.1,4.5,1.2,4.9,1.5c-1.6,0-3.1,0.2-4.7,0.3c-0.1,0,4,1.3,3.7,1.1		c-0.7,0-1.3,0.1-2,0.1c2.5-0.2,5.3,3.3,7.2,4.2c5.8,2.8,10.9,2.8,13.7,9.5c6.3,15.1-14.4,24-24.7,14.1		c-10.7-10.4-5.1-24.5,1.4-35.3c9.3-15.5,14.3-28.4,12.4-46.6c0,0,0,0.1,0,0.1c-0.4-1.8-0.8-3.5-1.1-5.3c0,0.2,0,0.3,0.1,0.5		c-0.6-1.8-1.4-3.5-2.2-5.3c0,0.1,0.1,0.2,0.1,0.3c-0.9-1.5-1.8-3-2.8-4.5c0.2,0.4,0.4,0.7,0.6,1.1c-2.4-3.3-5.6-5.4-8.8-8		c0.1,0.1,0.3,0.3,0.4,0.4c-1.6-0.8-3.1-1.6-4.5-2.6c0.2,0.2,0.5,0.3,0.7,0.5c-9.2-4.2-18.3-2.2-26.4,3.3		c-1.3-20.9-16.4-40.6-37.3-45.2c-20-4.5-43.4,7-50.4,26.5c-7.5,20.6,0.9,45,21.7,53.5c23.8,9.7,41.9,0.6,58.3-16.9		c0,10.7,0.1,21.3,0.2,32c-24.4-8.8-59.9-12.3-76.2,12.5C75.7,202.1,91.7,238,121,243.9z M214.1,120.9c-1.6-2-3.9-4.2-5.7-5.9		C210.6,116.5,212.8,118.7,214.1,120.9z M219.4,133.4c0.3,1.1,0.4,2.3,0.3,3.4c-0.4-2.6-1.2-5.4-1.8-7.9		C218.5,130.6,219.1,131.8,219.4,133.4z M188.1,115.8c0.4-0.2,0.9-0.4,1.3-0.6c-1.7,0.6-3.3,1.2-5,1.7c0.7-0.2,1.3-0.4,2-0.5		c-1.7,0.7-3.3,1.5-4.9,2.2c2.6-2.1,5.5-3.7,8.9-3.5C189.6,115.4,188.9,115.6,188.1,115.8z M188.1,115.8c-0.1,0-0.2,0.1-0.3,0.1		C187.9,115.8,188,115.8,188.1,115.8z M216,125.4c0.1,0.4,0.2,0.8,0.3,1.3l-2-3.7c0,0,0.1,0.1,0.1,0.1c-0.1-0.1-0.2-0.3-0.3-0.5		C215,123.4,215.6,124.4,216,125.4z M189.2,114.4c-0.7,0.1-1.4,0.2-2,0.3c1.2-1.2,2.4-1.3,3.6-0.5c-0.4,0-0.7,0-1.1,0.1		c0.1,0,0.3-0.1,0.4-0.1C189.8,114.3,189.5,114.3,189.2,114.4z M182.5,115.9c0,0-0.1,0-0.1,0L182.5,115.9c-0.5,0.3-1,0.6-1.4,0.9		c1.9-1.5,3.5-2.5,5.9-3.2C185.4,114.2,184,115,182.5,115.9z M216.3,132.3c-0.1,0.3-0.1,0.6-0.2,0.9c-0.3-1.1-0.7-2.2-1-3.4		C215.7,130.7,216,131.4,216.3,132.3z M190.2,112.8c-1,0.1-1.9,0.1-2.9,0.2C188.2,112.3,189.2,112.2,190.2,112.8z M100.1,130.6		C77.9,92.1,130.5,59,158.4,91.3c5.6,6.5,10.5,16.5,9.9,25.4c-0.5,8.5-13.8,19.4-21.5,23.7C132.8,148.3,108.8,145.6,100.1,130.6z		 M140.1,167.9c9.7,0.8,19.3,2.9,28.4,6.3c-0.2,15.4,3.6,34.9-6.3,48c-9.6,12.6-27.7,18.4-42.5,12.9c-18.7-7-28.4-25.4-22.5-44.8		C103.3,170.5,121.7,166.4,140.1,167.9z M206.4,174.2c-2.3,3.9-4.8,7.7-7.1,11.6c2.2-5.5,5.3-10.7,8.1-16		C207.1,171.2,206.7,172.7,206.4,174.2z M197.3,114.7c-0.5-0.2-0.9-0.3-1.3-0.4c1.1,0.2,2.2,0.5,3.1,1.1		C198.2,115.2,199.6,115.6,197.3,114.7z M207.7,168.4c-0.3,0.6-0.6,1.1-1,1.7c0.4-0.8,0.8-1.5,1.2-2.3		C207.8,168,207.8,168.2,207.7,168.4z M214.3,161.7c0.4-1.9,1.1-3.4,1.8-5.4c-0.4,2.6-1.3,5.1-2.5,7.4		C213.8,163.1,214.1,162.4,214.3,161.7z M210.2,124.6c0.2,0.1,0.3,0.3,0.3,0.5C210.4,125,210.3,124.8,210.2,124.6z M208.1,167.1		c-0.2,0.4-0.4,0.9-0.6,1.3c0.2-0.5,0.4-1.1,0.6-1.6C208.1,166.8,208.1,167,208.1,167.1z M216.4,158.4c1-3.9,1.7-8,2.4-12		C218.8,150.6,217.9,154.4,216.4,158.4z M219.3,141.4c-0.1,0.2-0.1,0.3-0.2,0.5c-0.1-0.8-0.1-1.7,0.1-2.6		C219.3,140.1,219.4,140.7,219.3,141.4z M216.1,125.5c0.7,1.1,1.4,1.9,1.1,3.2L216.1,125.5z M211.7,171.3c1.7-3.6,3.4-7.1,4.9-10.8		C215.8,164.3,213.5,168,211.7,171.3z M212.4,118.4C212.3,118.4,212.3,118.3,212.4,118.4C212.3,118.3,212.4,118.4,212.4,118.4z		 M213.2,119.4c0,0.1,0.1,0.2,0.1,0.2c-0.3-0.3-0.5-0.7-0.8-1L213.2,119.4z M194.7,184.5c0.1,0.1,0.3,0.3,0.4,0.4		c-0.4-0.4-0.6-2.4-0.8-3c0.5,0.4,0.9,0.9,1.4,1.3c-0.1-0.1-0.2-0.2-0.2-0.4c0.2,0.2,0.5,0.5,0.7,0.7c-1.2-1-2-4-3.2-5.3		c-2.1-2.4-5.7-4.4-8.3-6.1c-2.7-1.7-5.4-3.3-8.2-4.7c-0.1-7.9-0.1-15.8-0.2-23.8c0-6.3-1.9-15.8,1.3-20.9c6-9.6,19.6-8,27-2		c21.6,17.3-1,49-9.6,66.1C194.9,186.1,194.8,185,194.7,184.5z M217,161.7c0.3-0.9,0.6-1.7,0.8-2.6C217.8,160,217.5,160.9,217,161.7		z M217.3,125.4c1,1.7,1.6,3.5,1.8,5.4c-0.3-0.8-0.6-1.6-0.8-2.5c0,0,0,0.1,0,0.1c-1.2-3.2-3-6-4.8-8.8		C215,121.3,216.3,123.2,217.3,125.4z"/></g><g>	<path d="M436.8,557.2v-9.6h46.2v-22.6h8.1v32.2H436.8z"/>	<path d="M443.2,512.3c0,1.7-0.5,3.1-1.5,4.2c-1,1.1-2.3,1.7-3.9,1.7s-2.9-0.6-3.9-1.7c-1-1.1-1.5-2.5-1.5-4.2		c0-1.7,0.5-3.1,1.5-4.2c1-1.1,2.3-1.7,3.9-1.7s2.9,0.6,3.9,1.7C442.7,509.2,443.2,510.6,443.2,512.3z M450.3,517.1v-9.6h40.8v9.6		H450.3z"/>	<path d="M492.1,476.2c0,1.9-0.5,3.8-1.4,5.7c-0.9,1.9-2.2,3.7-3.9,5.4v0.2l4.3,0.8v7.6h-58.6v-9.6h15.1l6.8,0.2		c-1.5-1.7-2.7-3.6-3.7-5.6c-0.9-2-1.4-4.1-1.4-6.2c0-2.5,0.5-4.8,1.5-6.8c1-2,2.4-3.7,4.2-5.1c1.8-1.4,4-2.4,6.5-3.2		c2.5-0.7,5.4-1.1,8.6-1.1c3.5,0,6.6,0.5,9.3,1.5c2.7,1,5.1,2.3,6.9,3.9c1.9,1.6,3.3,3.5,4.3,5.6C491.6,471.8,492.1,474,492.1,476.2		z M484.2,478.2c0-2.7-1.2-5-3.5-6.8s-5.9-2.7-10.5-2.7c-4.1,0-7.3,0.7-9.6,2.1c-2.3,1.4-3.4,3.6-3.4,6.7c0,2.9,1.5,5.9,4.6,9h19		c1.3-1.4,2.2-2.9,2.7-4.3C483.9,480.8,484.2,479.5,484.2,478.2z"/>	<path d="M450.3,449.8v-7.9l7.2-0.7v-0.3c-2.7-1.4-4.7-3.2-6.1-5.2c-1.4-2-2.1-4.2-2.1-6.3c0-1.9,0.3-3.5,0.8-4.7l8.3,1.7		c-0.2,0.7-0.4,1.4-0.5,2c-0.1,0.6-0.2,1.4-0.2,2.2c0,1.6,0.6,3.3,1.9,5.1c1.2,1.8,3.4,3.3,6.5,4.6h24.9v9.6H450.3z"/>	<path d="M492.1,403.7c0,2.8-0.5,5.5-1.5,7.9c-1,2.4-2.4,4.6-4.2,6.4c-1.8,1.8-4.1,3.3-6.7,4.3c-2.6,1-5.6,1.5-9,1.5		c-3.3,0-6.3-0.5-9-1.6c-2.7-1.1-4.9-2.5-6.7-4.2s-3.2-3.8-4.2-6c-1-2.3-1.5-4.6-1.5-7c0-2.8,0.5-5.2,1.4-7.3c0.9-2.1,2.3-3.9,4-5.3		c1.7-1.4,3.8-2.5,6.1-3.2c2.4-0.7,5-1.1,7.8-1.1c0.9,0,1.8,0,2.7,0.1c0.8,0.1,1.5,0.2,2,0.3v25.9c3.7-0.4,6.5-1.7,8.4-3.9		c2-2.1,2.9-4.9,2.9-8.2c0-1.8-0.3-3.4-0.8-4.9c-0.5-1.5-1.3-3-2.2-4.5l6-3.2c1.3,1.9,2.3,4.1,3.2,6.5S492.1,401.1,492.1,403.7z		 M466.8,396.5c-3.2,0-5.6,0.7-7.4,2c-1.8,1.4-2.7,3.4-2.7,6.3c0,2.4,0.9,4.6,2.6,6.4c1.7,1.8,4.2,3,7.6,3.4V396.5z"/>	<path d="M436.8,378.2v-17.4c0-2.8,0.2-5.4,0.7-7.8c0.5-2.4,1.2-4.4,2.2-6.1c1-1.7,2.4-3.1,4.1-4.1c1.7-1,3.8-1.5,6.3-1.5		c2.6,0,5,0.7,7.2,2c2.2,1.3,3.7,3.2,4.6,5.6h0.3c0.7-3,2.1-5.5,4.2-7.4c2.1-2,5-2.9,8.7-2.9c2.7,0,5.1,0.5,7.1,1.6		c2,1.1,3.7,2.5,5,4.4c1.3,1.9,2.3,4.1,2.9,6.6c0.6,2.5,1,5.3,1,8.3v18.8H436.8z M459.2,361.7c0-3.8-0.7-6.6-2.1-8.3		c-1.4-1.7-3.2-2.5-5.6-2.5c-2.7,0-4.5,0.9-5.6,2.7c-1.1,1.8-1.7,4.4-1.7,8v7.1h15V361.7z M483.6,360.5c0-4-0.7-7.1-2.2-9.2		c-1.5-2.2-3.7-3.2-6.8-3.2c-2.9,0-5,1.1-6.3,3.2c-1.3,2.1-2,5.2-2,9.3v8.1h17.2V360.5z"/>	<path d="M443.2,324.7c0,1.7-0.5,3.1-1.5,4.2c-1,1.1-2.3,1.7-3.9,1.7s-2.9-0.6-3.9-1.7c-1-1.1-1.5-2.5-1.5-4.2		c0-1.7,0.5-3.1,1.5-4.2c1-1.1,2.3-1.7,3.9-1.7s2.9,0.6,3.9,1.7C442.7,321.5,443.2,322.9,443.2,324.7z M450.3,329.5v-9.6h40.8v9.6		H450.3z"/>	<path d="M432.4,307.7v-9.4h36.6v-0.2L450.3,283v-10.5l16.6,14l24.2-15.4v10.4l-17.7,10.5l7.3,6.4h10.4v9.4H432.4z"/>	<path d="M492.1,248.8c0,2.8-0.5,5.5-1.5,7.9c-1,2.4-2.4,4.6-4.2,6.4c-1.8,1.8-4.1,3.3-6.7,4.3c-2.6,1-5.6,1.5-9,1.5		c-3.3,0-6.3-0.5-9-1.6c-2.7-1.1-4.9-2.5-6.7-4.2c-1.8-1.7-3.2-3.8-4.2-6c-1-2.3-1.5-4.6-1.5-7c0-2.8,0.5-5.2,1.4-7.3		c0.9-2.1,2.3-3.9,4-5.3c1.7-1.4,3.8-2.5,6.1-3.2c2.4-0.7,5-1.1,7.8-1.1c0.9,0,1.8,0,2.7,0.1c0.8,0.1,1.5,0.2,2,0.3v25.9		c3.7-0.4,6.5-1.7,8.4-3.9c2-2.1,2.9-4.9,2.9-8.2c0-1.8-0.3-3.4-0.8-4.9c-0.5-1.5-1.3-3-2.2-4.5l6-3.2c1.3,1.9,2.3,4.1,3.2,6.5		C491.7,243.7,492.1,246.2,492.1,248.8z M466.8,241.6c-3.2,0-5.6,0.7-7.4,2c-1.8,1.4-2.7,3.4-2.7,6.3c0,2.4,0.9,4.6,2.6,6.4		c1.7,1.8,4.2,3,7.6,3.4V241.6z"/>	<path d="M492.1,218.8c0,1.8-0.6,3.3-1.8,4.4c-1.2,1.2-2.8,1.8-4.7,1.8c-1.9,0-3.4-0.6-4.7-1.8c-1.2-1.2-1.8-2.7-1.8-4.4		c0-1.8,0.6-3.2,1.8-4.4c1.2-1.2,2.8-1.7,4.7-1.7c1.9,0,3.4,0.6,4.7,1.7C491.5,215.5,492.1,217,492.1,218.8z"/>	<path d="M443.2,196.5c0,1.7-0.5,3.1-1.5,4.2c-1,1.1-2.3,1.7-3.9,1.7s-2.9-0.6-3.9-1.7c-1-1.1-1.5-2.5-1.5-4.2		c0-1.7,0.5-3.1,1.5-4.2c1-1.1,2.3-1.7,3.9-1.7s2.9,0.6,3.9,1.7C442.7,193.4,443.2,194.8,443.2,196.5z M450.3,201.3v-9.6h40.8v9.6		H450.3z"/>	<path d="M450.3,179.6v-7.9l5.5-0.7v-0.3c-1.8-1.8-3.3-3.8-4.6-5.9c-1.3-2.1-1.9-4.6-1.9-7.4c0-4.4,1.4-7.6,4.2-9.6		c2.8-2,6.8-3,12-3h25.6v9.6h-24.3c-3.4,0-5.8,0.5-7.1,1.5s-2.1,2.6-2.1,4.9c0,1.8,0.4,3.3,1.3,4.7c0.9,1.4,2.1,2.9,3.8,4.6h28.5		v9.6H450.3z"/>	<path d="M440,112.2c-0.7,1.5-1,3-1,4.5c0,3.4,2.3,5.1,6.9,5.1h4.4v-8h7.6v8h33.2v9.6h-33.2v5.5h-7.1l-0.4-5.5h-4.2		c-2.1,0-4.1-0.2-5.9-0.7c-1.8-0.5-3.3-1.3-4.7-2.4c-1.3-1.1-2.3-2.5-3-4.2c-0.7-1.7-1.1-3.8-1.1-6.2c0-1.4,0.1-2.8,0.4-4.1		c0.3-1.3,0.6-2.4,1-3.4L440,112.2z"/>	<path d="M492.1,90.8c0,2.5-0.5,5-1.4,7.3c-0.9,2.3-2.3,4.4-4.2,6.2c-1.8,1.8-4.1,3.2-6.7,4.3c-2.7,1.1-5.7,1.6-9.1,1.6		c-3.4,0-6.4-0.5-9.1-1.6c-2.7-1.1-4.9-2.5-6.7-4.3c-1.8-1.8-3.2-3.9-4.2-6.2c-1-2.3-1.5-4.8-1.5-7.3c0-2.5,0.5-5,1.5-7.4		c1-2.4,2.4-4.4,4.2-6.2c1.8-1.8,4.1-3.2,6.7-4.3c2.7-1.1,5.7-1.6,9.1-1.6c3.4,0,6.4,0.5,9.1,1.6c2.7,1.1,4.9,2.5,6.7,4.3		c1.8,1.8,3.2,3.8,4.2,6.2C491.6,85.8,492.1,88.3,492.1,90.8z M484.3,90.8c0-3-1.2-5.3-3.7-7.1c-2.5-1.7-5.7-2.6-9.8-2.6		c-4.2,0-7.5,0.9-9.9,2.6c-2.5,1.7-3.7,4.1-3.7,7.1s1.2,5.3,3.7,7c2.5,1.7,5.8,2.5,9.9,2.5c4.1,0,7.4-0.8,9.8-2.5		C483,96.2,484.3,93.8,484.3,90.8z"/></g><g>	<path d="M476,593.3c-17.3-4.8-36.3,2.5-47.4,16.2c-11.8,14.5-8.4,32.5-8.3,49.9c-5.5-2.9-10.9-6.8-15.1-11.3		c0.2,0.2,0.1,2.4,0.1,3.2c-0.2-0.2-0.4-0.3-0.5-0.5c0.3,0.3,0.1,1.2,0,2c-1-0.9-1.9-1.8-2.8-2.7c10.2-20.3-6.2-49.6-30.6-41.2		c-12.1,4.2-18.2,17.1-14.8,29.2c3.7,13.1,16.5,17.3,28.9,16.6c-0.3,0-0.7-0.1-1.1-0.2c0.9,0,1.8-0.1,2.7-0.2		c-0.8,0.1-2.5-1.2-3.2-1.5c1,0,2-0.1,2.9-0.1c-0.1,0-0.3-0.1-0.4-0.2c0.9-0.1,1.8-0.1,2.7-0.2c-0.6,0.1-4.5-1.2-4.9-1.5		c1.6,0,3.1-0.2,4.7-0.3c0.1,0-4-1.3-3.7-1.1c0.7,0,1.3-0.1,2-0.1c-2.5,0.2-5.3-3.3-7.2-4.2c-5.8-2.8-10.9-2.8-13.7-9.5		c-6.3-15.1,14.4-24,24.7-14.1c10.7,10.4,5.1,24.5-1.4,35.3c-9.3,15.5-14.3,28.4-12.4,46.6c0,0,0-0.1,0-0.1c0.4,1.8,0.8,3.5,1.1,5.3		c0-0.2,0-0.3-0.1-0.5c0.6,1.8,1.4,3.5,2.2,5.3c0-0.1-0.1-0.2-0.1-0.3c0.9,1.5,1.8,3,2.8,4.5c-0.2-0.4-0.4-0.7-0.6-1.1		c2.4,3.3,5.6,5.4,8.8,8c-0.1-0.1-0.3-0.3-0.4-0.4c1.6,0.8,3.1,1.6,4.5,2.6c-0.2-0.2-0.5-0.3-0.7-0.5c9.2,4.2,18.3,2.2,26.4-3.3		c1.3,20.9,16.4,40.6,37.3,45.2c20,4.5,43.4-7,50.4-26.5c7.5-20.6-0.9-45-21.7-53.5c-23.8-9.7-41.9-0.6-58.3,16.9		c0-10.7-0.1-21.3-0.2-32c24.4,8.8,59.9,12.3,76.2-12.5C521.3,635.1,505.2,599.2,476,593.3z M382.9,716.2c1.6,2,3.9,4.2,5.7,5.9		C386.4,720.7,384.2,718.5,382.9,716.2z M377.6,703.7c-0.3-1.1-0.4-2.3-0.3-3.4c0.4,2.6,1.2,5.4,1.8,7.9		C378.5,706.6,377.9,705.4,377.6,703.7z M408.9,721.4c-0.4,0.2-0.9,0.4-1.3,0.6c1.7-0.6,3.3-1.2,5-1.7c-0.7,0.2-1.3,0.4-2,0.5		c1.7-0.7,3.3-1.5,4.9-2.2c-2.6,2.1-5.5,3.7-8.9,3.5C407.4,721.7,408.1,721.5,408.9,721.4z M408.9,721.4c0.1,0,0.2-0.1,0.3-0.1		C409.1,721.3,409,721.4,408.9,721.4z M380.9,711.7c-0.1-0.4-0.2-0.8-0.3-1.3l2,3.7c0,0-0.1-0.1-0.1-0.1c0.1,0.1,0.2,0.3,0.3,0.5		C382,713.7,381.4,712.8,380.9,711.7z M407.8,722.8c0.7-0.1,1.4-0.2,2-0.3c-1.2,1.2-2.4,1.3-3.6,0.5c0.4,0,0.7,0,1.1-0.1		c-0.1,0-0.3,0.1-0.4,0.1C407.2,722.9,407.5,722.8,407.8,722.8z M414.5,721.2c0,0,0.1,0,0.1,0L414.5,721.2c0.5-0.3,1-0.6,1.4-0.9		c-1.9,1.5-3.5,2.5-5.9,3.2C411.5,722.9,413,722.2,414.5,721.2z M380.7,704.9c0.1-0.3,0.1-0.6,0.2-0.9c0.3,1.1,0.7,2.2,1,3.4		C381.3,706.5,380.9,705.8,380.7,704.9z M406.7,724.4c1-0.1,1.9-0.1,2.9-0.2C408.7,724.9,407.8,724.9,406.7,724.4z M496.9,706.6		c22.2,38.5-30.4,71.6-58.3,39.3c-5.6-6.5-10.5-16.5-9.9-25.4c0.5-8.5,13.8-19.4,21.5-23.7C464.2,688.8,488.2,691.5,496.9,706.6z		 M456.8,669.2c-9.7-0.8-19.3-2.9-28.4-6.3c0.2-15.4-3.6-34.9,6.3-48c9.6-12.6,27.7-18.4,42.5-12.9c18.7,7,28.4,25.4,22.5,44.8		C493.7,666.7,475.3,670.8,456.8,669.2z M390.6,663c2.3-3.9,4.8-7.7,7.1-11.6c-2.2,5.5-5.3,10.7-8.1,16		C389.9,665.9,390.3,664.5,390.6,663z M399.7,722.4c0.5,0.2,0.9,0.3,1.3,0.4c-1.1-0.2-2.2-0.5-3.1-1.1		C398.8,722,397.3,721.6,399.7,722.4z M389.2,668.7c0.3-0.6,0.6-1.1,1-1.7c-0.4,0.8-0.8,1.5-1.2,2.3		C389.1,669.2,389.2,669,389.2,668.7z M382.7,675.5c-0.4,1.9-1.1,3.4-1.8,5.4c0.4-2.6,1.3-5.1,2.5-7.4		C383.2,674.1,382.9,674.8,382.7,675.5z M386.7,712.5c-0.2-0.1-0.3-0.3-0.3-0.5C386.6,712.2,386.7,712.4,386.7,712.5z M388.9,670.1		c0.2-0.4,0.4-0.9,0.6-1.3c-0.2,0.5-0.4,1.1-0.6,1.6C388.9,670.3,388.9,670.2,388.9,670.1z M380.5,678.8c-1,3.9-1.7,8-2.4,12		C378.2,686.5,379.1,682.7,380.5,678.8z M377.7,695.7c0.1-0.2,0.1-0.3,0.2-0.5c0.1,0.8,0.1,1.7-0.1,2.6		C377.6,697.1,377.6,696.4,377.7,695.7z M380.9,711.7c-0.7-1.1-1.4-1.9-1.1-3.2L380.9,711.7z M385.3,665.9		c-1.7,3.6-3.4,7.1-4.9,10.8C381.2,672.9,383.4,669.2,385.3,665.9z M384.6,718.8C384.6,718.8,384.7,718.8,384.6,718.8		C384.7,718.8,384.6,718.8,384.6,718.8z M383.8,717.8c0-0.1-0.1-0.2-0.1-0.2c0.3,0.3,0.5,0.7,0.8,1L383.8,717.8z M402.3,652.7		c-0.1-0.1-0.3-0.3-0.4-0.4c0.4,0.4,0.6,2.4,0.8,3c-0.5-0.4-0.9-0.9-1.4-1.3c0.1,0.1,0.2,0.2,0.2,0.4c-0.2-0.2-0.5-0.5-0.7-0.7		c1.2,1,2,4,3.2,5.3c2.1,2.4,5.7,4.4,8.3,6.1c2.7,1.7,5.4,3.3,8.2,4.7c0.1,7.9,0.1,15.8,0.2,23.8c0,6.3,1.9,15.8-1.3,20.9		c-6,9.6-19.6,8-27,2c-21.6-17.3,1-49,9.6-66.1C402,651,402.2,652.1,402.3,652.7z M380,675.5c-0.3,0.9-0.6,1.7-0.8,2.6		C379.2,677.2,379.4,676.3,380,675.5z M379.7,711.7c-1-1.7-1.6-3.5-1.8-5.4c0.3,0.8,0.6,1.6,0.8,2.5c0,0,0-0.1,0-0.1		c1.2,3.2,3,6,4.8,8.8C381.9,715.9,380.6,713.9,379.7,711.7z"/></g></svg>