<svg id="logo-image" data-name="logo-image" xmlns="http://www.w3.org/2000/svg" viewBox="0 0 145.22 127.48"><defs><style>.logo-image{fill:#000;}</style></defs><title>logo-image</title><path class="logo-image" d="M144,98.51c3.94-14.14-2-29.71-13.25-38.82-11.86-9.62-26.64-6.88-40.88-6.76a46.71,46.71,0,0,1,9.29-12.38,9.27,9.27,0,0,1-2.63.07l.41-.43c-.23.27-1,.11-1.65,0q1.05-1.18,2.19-2.29c16.63,8.36,40.62-5.06,33.75-25A19.46,19.46,0,0,0,107.33.76c-10.72,3-14.18,13.5-13.56,23.65a2.42,2.42,0,0,1,.15-.89c0,.73.07,1.46.13,2.18,0-.64,1-2,1.24-2.6,0,.8,0,1.61.1,2.41a.83.83,0,0,1,.13-.35q.07,1.1.16,2.2a19,19,0,0,1,1.19-4c0,1.27.13,2.55.25,3.82A21.29,21.29,0,0,0,98,24.12c0,.55.06,1.1.1,1.67-.14-2,2.67-4.36,3.44-5.93,2.31-4.72,2.28-8.91,7.76-11.21C121.63,3.47,129,20.46,120.85,28.83c-8.49,8.76-20,4.16-28.91-1.13C79.25,20.12,68.72,16,53.84,17.55h.11l-4.35.93.37,0a45.48,45.48,0,0,0-4.31,1.78l.25-.09-3.68,2.25.88-.49c-2.73,2-4.46,4.61-6.55,7.16l.32-.36a37.66,37.66,0,0,1-2.12,3.69l.39-.59c-3.45,7.51-1.76,15,2.69,21.57-17.11,1-33.2,13.44-37,30.52-3.68,16.37,5.7,35.49,21.7,41.3,16.89,6.12,36.86-.75,43.84-17.79,8-19.48.46-34.32-13.83-47.72,8.73,0,17.46-.08,26.19-.13-7.22,20-10.1,49,10.26,62.41C109.77,135.62,139.15,122.48,144,98.51ZM43.34,22.31A46.64,46.64,0,0,0,38.55,27,14.63,14.63,0,0,1,43.34,22.31ZM53.56,18a6.88,6.88,0,0,1,2.8-.24c-2.11.32-4.4,1-6.45,1.49A15.32,15.32,0,0,1,53.56,18ZM39.14,43.6l-.45-1,1.42,4.1L39.67,45c.55,1.38,1.19,2.73,1.81,4-1.74-2.1-3-4.54-2.85-7.32Q38.92,42.65,39.14,43.6Zm0,0,.1.27A.35.35,0,0,1,39.15,43.58ZM47,20.72l1-.29-3,1.64.1-.1a1.52,1.52,0,0,1-.41.27A7.58,7.58,0,0,1,47,20.72Zm-9,22c.08.56.19,1.11.28,1.67a2.08,2.08,0,0,1-.39-2.94q0,.45.06.89L37.85,42Zm1.27,5.5,0,.1,0-.09q.34.59.73,1.14a12.46,12.46,0,0,1-2.58-4.84A20.71,20.71,0,0,0,39.23,48.18ZM52.65,20.49l.71.17c-.93.26-1.83.58-2.77.78A8.8,8.8,0,0,1,52.65,20.49Zm-16,21.35c0,.8.1,1.59.18,2.4A2.09,2.09,0,0,1,36.67,41.84Zm14.58,73.78C19.7,133.77-7.38,90.71,19.08,67.89c5.29-4.56,13.53-8.58,20.77-8.13,7,.43,15.9,11.3,19.42,17.57C65.76,88.9,63.57,108.53,51.24,115.62ZM81.81,82.84A86.2,86.2,0,0,1,87,59.58c12.58.19,28.55-3,39.27,5.19,10.36,7.87,15.05,22.66,10.56,34.77-5.69,15.35-20.76,23.25-36.71,18.41C83.91,113,80.56,97.95,81.81,82.84Zm5.13-54.2c3.19,1.87,6.28,3.92,9.48,5.79a136.59,136.59,0,0,1-13.1-6.65ZM38.27,36c-.13.37-.25.73-.36,1.09a6.43,6.43,0,0,1,.93-2.55C38.65,35.33,39,34.14,38.27,36Zm43.94-8.52a10.06,10.06,0,0,1,1.38.84l-1.89-1Zm-5.49-5.37a30.91,30.91,0,0,1-4.38-1.44,20.09,20.09,0,0,1,6.1,2C77.86,22.53,77.29,22.33,76.72,22.15ZM46.37,25.46a.42.42,0,0,1,.37-.25A1.7,1.7,0,0,1,46.37,25.46ZM81.1,27.25c.36.16.72.29,1.07.46l-1.34-.52ZM74,20.39c-3.22-.84-6.53-1.37-9.8-2A28.34,28.34,0,0,1,74,20.39ZM60.12,18.07l.4.14a8.55,8.55,0,0,1-2.09,0A4.14,4.14,0,0,1,60.12,18.07ZM47.06,20.68c.89-.58,1.57-1.15,2.63-.9Zm37.5,3.61c-2.93-1.35-5.82-2.82-8.83-4C78.83,20.94,81.83,22.76,84.57,24.29Zm-43.31-.58-.08.07Zm.82-.69.19-.11c-.29.22-.57.43-.85.66ZM95.38,38.18l.35-.35a8,8,0,0,1-2.42.63c.35-.38.7-.77,1.06-1.14a.62.62,0,0,1-.31.17c.19-.2.37-.41.57-.61-.86,1-3.24,1.6-4.35,2.58-2,1.73-3.59,4.64-5,6.78A62.64,62.64,0,0,0,81.45,53L62,53.13c-5.19,0-12.95,1.57-17.14-1.06-7.86-4.93-6.56-16-1.65-22.14,14.13-17.67,40.08.78,54.09,7.9A18.27,18.27,0,0,1,95.38,38.18ZM76.68,20q-1.07-.37-2.16-.68A3.63,3.63,0,0,1,76.68,20ZM47,19.71a10,10,0,0,1,4.39-1.45,17.14,17.14,0,0,1-2,.69l.07,0a40.85,40.85,0,0,0-7.22,4A15.18,15.18,0,0,1,47,19.71Z"/></svg>