<?xml version="1.0" encoding="utf-8"?><svg version="1.1" id="librebike" xmlns="http://www.w3.org/2000/svg" xmlns:xlink="http://www.w3.org/1999/xlink" x="0px" y="0px"	 viewBox="0 0 440 128" style="enable-background:new 0 0 440 128;" xml:space="preserve"><g>	<path d="M173.9,66.7h7.9v37.8h18.5v6.7h-26.4V66.7z"/>	<path d="M210.7,71.9c-1.4,0-2.6-0.4-3.5-1.2c-0.9-0.8-1.4-1.9-1.4-3.2c0-1.3,0.5-2.4,1.4-3.2c0.9-0.8,2.1-1.3,3.5-1.3		c1.4,0,2.6,0.4,3.5,1.3c0.9,0.8,1.4,1.9,1.4,3.2c0,1.3-0.5,2.4-1.4,3.2C213.2,71.5,212.1,71.9,210.7,71.9z M206.7,77.8h7.8v33.4		h-7.8V77.8z"/>	<path d="M240.2,112c-1.5,0-3.1-0.4-4.7-1.1c-1.6-0.7-3-1.8-4.5-3.2h-0.2l-0.7,3.5H224v-48h7.8v12.4l-0.2,5.6c1.4-1.2,2.9-2.2,4.6-3		c1.7-0.8,3.3-1.2,5.1-1.2c2.1,0,3.9,0.4,5.6,1.2c1.6,0.8,3,1.9,4.1,3.4c1.1,1.5,2,3.3,2.6,5.3c0.6,2.1,0.9,4.4,0.9,7		c0,2.9-0.4,5.4-1.2,7.7c-0.8,2.2-1.8,4.1-3.2,5.7c-1.3,1.5-2.8,2.7-4.6,3.5C243.8,111.6,242,112,240.2,112z M238.5,105.5		c2.2,0,4.1-1,5.6-2.9c1.5-1.9,2.2-4.8,2.2-8.6c0-3.4-0.6-6-1.7-7.8c-1.1-1.9-3-2.8-5.5-2.8c-2.4,0-4.8,1.2-7.3,3.7v15.6		c1.2,1,2.3,1.8,3.5,2.2S237.5,105.5,238.5,105.5z"/>	<path d="M261.8,77.8h6.5l0.5,5.9h0.3c1.2-2.2,2.6-3.8,4.3-5c1.7-1.2,3.4-1.7,5.2-1.7c1.6,0,2.9,0.2,3.8,0.7l-1.4,6.8		c-0.6-0.2-1.1-0.3-1.6-0.4c-0.5-0.1-1.1-0.1-1.8-0.1c-1.3,0-2.7,0.5-4.1,1.5c-1.5,1-2.7,2.8-3.7,5.3v20.4h-7.8V77.8z"/>	<path d="M299.5,112c-2.3,0-4.5-0.4-6.5-1.2c-2-0.8-3.7-1.9-5.2-3.4s-2.7-3.3-3.5-5.5c-0.8-2.2-1.3-4.6-1.3-7.4		c0-2.7,0.4-5.2,1.3-7.3c0.9-2.2,2-4,3.4-5.5c1.4-1.5,3.1-2.7,4.9-3.5c1.9-0.8,3.8-1.2,5.7-1.2c2.3,0,4.3,0.4,6,1.2		c1.7,0.8,3.2,1.9,4.3,3.3c1.2,1.4,2,3.1,2.6,5c0.6,1.9,0.9,4.1,0.9,6.4c0,0.8,0,1.5-0.1,2.2c-0.1,0.7-0.1,1.2-0.2,1.6h-21.2		c0.4,3,1.4,5.3,3.2,6.9c1.7,1.6,4,2.4,6.7,2.4c1.5,0,2.8-0.2,4-0.6c1.2-0.4,2.5-1,3.7-1.8l2.7,4.9c-1.6,1-3.4,1.9-5.3,2.6		C303.7,111.6,301.7,112,299.5,112z M305.4,91.3c0-2.6-0.6-4.6-1.7-6.1c-1.1-1.5-2.8-2.2-5.1-2.2c-2,0-3.7,0.7-5.2,2.1		c-1.5,1.4-2.4,3.5-2.8,6.2H305.4z"/>	<path d="M320.4,66.7h14.2c2.3,0,4.4,0.2,6.4,0.6s3.6,1,5,1.8s2.5,2,3.3,3.4c0.8,1.4,1.2,3.1,1.2,5.2c0,2.1-0.5,4.1-1.6,5.9		c-1.1,1.8-2.6,3.1-4.6,3.7v0.3c2.4,0.5,4.5,1.7,6.1,3.4c1.6,1.7,2.4,4.1,2.4,7.1c0,2.2-0.4,4.1-1.3,5.8c-0.9,1.6-2.1,3-3.6,4.1		c-1.5,1.1-3.3,1.9-5.4,2.4c-2.1,0.5-4.4,0.8-6.8,0.8h-15.4V66.7z M333.9,85c3.1,0,5.4-0.6,6.8-1.7c1.4-1.1,2.1-2.7,2.1-4.6		c0-2.2-0.7-3.7-2.2-4.6c-1.5-0.9-3.6-1.4-6.5-1.4h-5.8V85H333.9z M335,105c3.3,0,5.8-0.6,7.5-1.8c1.8-1.2,2.7-3,2.7-5.5		c0-2.4-0.9-4.1-2.6-5.1S338.3,91,335,91h-6.7V105H335z"/>	<path d="M364.3,71.9c-1.4,0-2.6-0.4-3.5-1.2c-0.9-0.8-1.4-1.9-1.4-3.2c0-1.3,0.5-2.4,1.4-3.2c0.9-0.8,2.1-1.3,3.5-1.3		c1.4,0,2.6,0.4,3.5,1.3c0.9,0.8,1.4,1.9,1.4,3.2c0,1.3-0.5,2.4-1.4,3.2C366.8,71.5,365.7,71.9,364.3,71.9z M360.3,77.8h7.8v33.4		h-7.8V77.8z"/>	<path d="M378.1,63.1h7.7v30h0.2l12.4-15.4h8.6l-11.4,13.6l12.6,19.8h-8.5l-8.6-14.5l-5.2,6v8.5h-7.7V63.1z"/>	<path d="M426.3,112c-2.3,0-4.5-0.4-6.5-1.2c-2-0.8-3.7-1.9-5.2-3.4s-2.7-3.3-3.5-5.5c-0.8-2.2-1.3-4.6-1.3-7.4		c0-2.7,0.4-5.2,1.3-7.3c0.9-2.2,2-4,3.4-5.5c1.4-1.5,3.1-2.7,4.9-3.5c1.9-0.8,3.8-1.2,5.7-1.2c2.3,0,4.3,0.4,6,1.2		c1.7,0.8,3.2,1.9,4.3,3.3c1.2,1.4,2,3.1,2.6,5c0.6,1.9,0.9,4.1,0.9,6.4c0,0.8,0,1.5-0.1,2.2c-0.1,0.7-0.1,1.2-0.2,1.6h-21.2		c0.4,3,1.4,5.3,3.2,6.9c1.7,1.6,4,2.4,6.7,2.4c1.5,0,2.8-0.2,4-0.6c1.2-0.4,2.5-1,3.7-1.8l2.7,4.9c-1.6,1-3.4,1.9-5.3,2.6		C430.5,111.6,428.5,112,426.3,112z M432.3,91.3c0-2.6-0.6-4.6-1.7-6.1c-1.1-1.5-2.8-2.2-5.1-2.2c-2,0-3.7,0.7-5.2,2.1		c-1.5,1.4-2.4,3.5-2.8,6.2H432.3z"/></g><g>	<path d="M144.4,98.8c3.9-14.1-2-29.7-13.3-38.8c-11.9-9.6-26.6-6.9-40.9-6.8c2.4-4.5,5.6-8.9,9.3-12.4c-0.2,0.2-2,0.1-2.6,0.1		c0.1-0.1,0.3-0.3,0.4-0.4c-0.2,0.3-1,0.1-1.6,0c0.7-0.8,1.4-1.5,2.2-2.3c16.6,8.4,40.6-5.1,33.7-25c-3.4-9.9-14-14.9-23.9-12.1		C97,4,93.5,14.5,94.1,24.7c0-0.3,0-0.6,0.2-0.9c0,0.7,0.1,1.5,0.1,2.2c0-0.6,1-2,1.2-2.6c0,0.8,0,1.6,0.1,2.4		c0-0.1,0.1-0.2,0.1-0.4c0,0.7,0.1,1.5,0.2,2.2c0-0.5,1-3.7,1.2-4c0,1.3,0.1,2.5,0.3,3.8c0,0.1,1.1-3.3,0.9-3.1		c0,0.6,0.1,1.1,0.1,1.7c-0.1-2,2.7-4.4,3.4-5.9c2.3-4.7,2.3-8.9,7.8-11.2c12.3-5.2,19.7,11.8,11.6,20.2c-8.5,8.8-20,4.2-28.9-1.1		c-12.7-7.6-23.2-11.7-38.1-10.2c0,0,0.1,0,0.1,0c-1.5,0.3-2.9,0.6-4.4,0.9c0.1,0,0.2,0,0.4,0c-1.5,0.5-2.9,1.2-4.3,1.8		c0.1,0,0.2-0.1,0.2-0.1c-1.2,0.8-2.4,1.5-3.7,2.3c0.3-0.2,0.6-0.3,0.9-0.5c-2.7,2-4.5,4.6-6.6,7.2c0.1-0.1,0.2-0.2,0.3-0.4		c-0.6,1.3-1.3,2.5-2.1,3.7c0.1-0.2,0.3-0.4,0.4-0.6c-3.5,7.5-1.8,15,2.7,21.6c-17.1,1-33.2,13.4-37,30.5		c-3.7,16.4,5.7,35.5,21.7,41.3c16.9,6.1,36.9-0.8,43.8-17.8c8-19.5,0.5-34.3-13.8-47.7c8.7,0,17.5-0.1,26.2-0.1		c-7.2,20-10.1,49,10.3,62.4C110.1,135.9,139.5,122.7,144.4,98.8z M43.7,22.6c-1.6,1.3-3.4,3.2-4.8,4.7		C40.1,25.4,41.9,23.6,43.7,22.6z M53.9,18.3c0.9-0.3,1.9-0.3,2.8-0.2c-2.1,0.3-4.4,1-6.5,1.5C51.6,18.9,52.6,18.5,53.9,18.3z		 M39.5,43.9c-0.2-0.3-0.3-0.7-0.5-1c0.5,1.4,0.9,2.7,1.4,4.1c-0.1-0.6-0.3-1.1-0.4-1.7c0.5,1.4,1.2,2.7,1.8,4		c-1.7-2.1-3-4.5-2.8-7.3C39.2,42.6,39.4,43.2,39.5,43.9z M39.5,43.8c0,0.1,0.1,0.2,0.1,0.3C39.5,44,39.5,43.9,39.5,43.8z M47.4,21		c0.3-0.1,0.7-0.2,1-0.3l-3,1.6c0,0,0.1-0.1,0.1-0.1c-0.1,0.1-0.3,0.2-0.4,0.3C45.8,21.9,46.5,21.4,47.4,21z M38.3,42.9		c0.1,0.6,0.2,1.1,0.3,1.7c-1-1-1.1-2-0.4-2.9c0,0.3,0,0.6,0.1,0.9c0-0.1,0-0.2-0.1-0.3C38.3,42.5,38.3,42.7,38.3,42.9z M39.6,48.4		c0,0,0,0.1,0,0.1L39.6,48.4c0.2,0.4,0.5,0.8,0.7,1.2c-1.2-1.6-2.1-2.9-2.6-4.8C38.2,46,38.9,47.2,39.6,48.4z M53,20.8		c0.2,0.1,0.5,0.1,0.7,0.2c-0.9,0.3-1.8,0.6-2.8,0.8C51.7,21.3,52.2,21,53,20.8z M37,42.1c0,0.8,0.1,1.6,0.2,2.4		C36.7,43.7,36.6,42.9,37,42.1z M51.6,115.9C20.1,134-7,91,19.5,68.2c5.3-4.6,13.5-8.6,20.8-8.1c7,0.4,15.9,11.3,19.4,17.6		C66.1,89.2,63.9,108.8,51.6,115.9z M82.2,83.1c0.7-7.9,2.4-15.8,5.2-23.3c12.6,0.2,28.5-3,39.3,5.2c10.4,7.9,15.1,22.7,10.6,34.8		c-5.7,15.3-20.8,23.2-36.7,18.4C84.3,113.3,80.9,98.2,82.2,83.1z M87.3,28.9c3.2,1.9,6.3,3.9,9.5,5.8c-4.5-1.8-8.8-4.3-13.1-6.7		C84.9,28.3,86.1,28.6,87.3,28.9z M38.6,36.3c-0.1,0.4-0.3,0.7-0.4,1.1c0.1-0.9,0.4-1.8,0.9-2.6C39,35.6,39.3,34.4,38.6,36.3z		 M82.6,27.8c0.5,0.2,0.9,0.5,1.4,0.8c-0.6-0.3-1.3-0.6-1.9-1C82.2,27.7,82.4,27.7,82.6,27.8z M77.1,22.4c-1.6-0.3-2.8-0.9-4.4-1.4		c2.1,0.3,4.2,1,6.1,2C78.2,22.8,77.7,22.6,77.1,22.4z M46.7,25.7c0.1-0.2,0.2-0.2,0.4-0.3C47,25.6,46.9,25.7,46.7,25.7z M81.5,27.5		c0.4,0.2,0.7,0.3,1.1,0.5c-0.4-0.2-0.9-0.3-1.3-0.5C81.3,27.5,81.4,27.5,81.5,27.5z M74.4,20.7c-3.2-0.8-6.5-1.4-9.8-2		C68,18.7,71.1,19.5,74.4,20.7z M60.5,18.3c0.1,0,0.3,0.1,0.4,0.1c-0.7,0.1-1.4,0.1-2.1,0C59.4,18.3,59.9,18.3,60.5,18.3z		 M47.4,20.9c0.9-0.6,1.6-1.1,2.6-0.9L47.4,20.9z M84.9,24.6c-2.9-1.4-5.8-2.8-8.8-4C79.2,21.2,82.2,23,84.9,24.6z M41.6,24		C41.6,24,41.6,24,41.6,24C41.6,24,41.6,24,41.6,24z M42.4,23.3c0.1,0,0.1-0.1,0.2-0.1c-0.3,0.2-0.6,0.4-0.8,0.7L42.4,23.3z		 M95.8,38.4c0.1-0.1,0.2-0.2,0.3-0.4c-0.3,0.3-1.9,0.5-2.4,0.6c0.4-0.4,0.7-0.8,1.1-1.1c-0.1,0.1-0.2,0.1-0.3,0.2		c0.2-0.2,0.4-0.4,0.6-0.6c-0.9,1-3.2,1.6-4.3,2.6c-2,1.7-3.6,4.6-5,6.8c-1.4,2.2-2.7,4.4-3.8,6.7c-6.5,0-13,0.1-19.4,0.1		c-5.2,0-12.9,1.6-17.1-1.1c-7.9-4.9-6.6-16-1.7-22.1c14.1-17.7,40.1,0.8,54.1,7.9C97.1,38.3,96.2,38.4,95.8,38.4z M77.1,20.2		c-0.7-0.2-1.4-0.5-2.2-0.7C75.7,19.5,76.4,19.8,77.1,20.2z M47.4,20c1.4-0.8,2.8-1.3,4.4-1.4c-0.7,0.3-1.3,0.5-2,0.7c0,0,0,0,0.1,0		c-2.6,1-4.9,2.5-7.2,4C44,21.8,45.6,20.7,47.4,20z"/></g><g>	<g>		<path d="M-596.3-429.6c1-3.8,1.3-7.7,0.8-11.5c-0.9-7-4.5-13.9-9.4-19c-0.8-0.9-1.7-1.7-2.7-2.4c-0.5-0.4-1-0.8-1.5-1.2			c-3.2-2.3-6.8-4-10.7-4.5c-5.6-0.7-11.3-0.1-16.9,0c-1.8,0-3.6,0-5.5,0c0.8-1.5,1.7-3,2.8-4.4c1.4-2.3,3.1-4.3,5.1-6.1			c-0.2,0.2-1.7,0.1-2.2,0.1c0.1-0.1,0.2-0.2,0.3-0.4c-0.2,0.2-0.8,0.1-1.4,0c0.6-0.7,1.2-1.3,1.9-1.9c2.4,1.2,4.9,2.2,7.5,2.6			c2.3,0.4,4.7,0.3,7-0.3c0.7-0.1,1.4-0.3,2.1-0.5c3.8-1.2,7.5-4.3,9.7-8.1c1-1.5,1.8-3.2,2.3-5c0.1-0.3,0.2-0.7,0.3-1c0,0,0,0,0,0			c0,0,0,0,0,0c0-0.1,0-0.1,0-0.2c1.7-5.8-0.8-12-5.3-15.7c-2.3-2.2-5.1-3.6-8.5-3.9c-1.5-0.1-3.1,0-4.6,0.2			c-3.8,0.4-7.5,2.1-9.7,5.2c-0.2,0.3-0.4,0.6-0.6,0.9c-0.5,0.6-1,1.2-1.4,2c-2.2,3.9-2.3,8-2,12.4c0-0.2,0-0.5,0.1-0.8			c0,0.6,0.1,1.2,0.1,1.8c0-0.3,0.6-1.3,0.7-1.5c0.1-0.2,0.2-0.4,0.4-0.7c0,0.7,0,1.4,0.1,2c0-0.1,0-0.2,0.1-0.3			c0,0.6,0.1,1.2,0.1,1.9c-0.1-0.6,0.8-1.3,0.8-2c0-0.3,0-0.7-0.1-1.1c0.1-0.1,0.2-0.2,0.3-0.3c0,1.1,0.1,2.2,0.2,3.2			c0-0.5,0.8-1.1,0.8-1.6c0-0.3-0.1-0.6-0.1-0.9c0,0,0,0,0.1-0.1c0,0.5,0.1,0.9,0.1,1.4c0-0.6,0.9-1.2,0.9-1.8c0-0.2,0-0.4,0-0.6			c0.2-0.1,0.3-0.2,0.3-0.3c0.3-0.3,1.4-1.2,1.5-1.6c0.3-1.1,0.7-2.1,1.1-3.2c0.3-0.9,0.5-1.8,0.9-2.7c1.2-2.3,3.3-3.9,5.7-4.8			c5.3-2,10.9,2.8,12,7.9c0.3,1.6,0.5,3.4,0,4.9c-0.5,1.1-1.1,2-1.8,3c-0.8,1.2-1.7,2.2-2.8,3c-0.2,0.2-0.4,0.3-0.6,0.4			c-3.7,2.5-8.3,2.8-12.7,1.9c-1.8-0.5-3.4-1.1-5-1.9c-0.2-0.1-0.3-0.2-0.5-0.3c-0.7-0.4-1.3-0.8-2-1.2c-3.9-2.4-7.8-4.9-12-6.7			c-1.8-1-3.7-1.9-5.7-2.5c-4.8-1.5-9.9-2.1-14.9-1.2c-0.5,0.1-1.1,0.2-1.6,0.3c-0.1,0-0.2,0-0.4,0c0,0,0.1,0,0.1,0			c-1,0.1-2.1,0.4-3.1,0.7c-0.2,0-0.4,0.1-0.6,0.1c0.1,0,0.2,0,0.3,0c-1.1,0.4-2.2,0.8-3.3,1.3c-0.1,0.1-0.3,0.1-0.4,0.2			c0.1,0,0.1-0.1,0.2-0.1c-0.7,0.4-1.3,0.8-1.9,1.2c-0.4,0.2-0.8,0.5-1.2,0.7c0.2-0.1,0.5-0.3,0.7-0.4c-1.8,1.3-3.3,2.8-4.5,4.6			c0,0.1-0.1,0.1-0.1,0.2c-0.2,0.3-0.4,0.6-0.6,0.8c-0.1,0.1-0.2,0.3-0.4,0.4c0.1-0.1,0.2-0.2,0.3-0.3c-0.5,0.8-1,1.7-1.4,2.6			c-0.1,0.2-0.2,0.4-0.4,0.6c0.1-0.2,0.2-0.3,0.3-0.5c-0.1,0.1-0.1,0.2-0.1,0.3c-1.2,2.5-1.8,5.2-1.6,8.1c0.1,1.9,0.8,3.7,1.7,5.4			c0.1,0.2,0.2,0.5,0.3,0.7c0.6,1.3,1.3,2.5,2.1,3.7c-1.9,0.1-3.9,0.4-5.8,0.8c-1.7,0.3-3.3,0.8-5,1.4c-3.8,1.5-7.2,3.6-10.2,6.4			c-1.3,1.2-2.4,2.5-3.5,3.9c-0.2,0.3-0.4,0.5-0.6,0.8c-4.4,5.3-7.1,11.9-6.9,18.9c0.1,2.3,0.4,4.5,0.9,6.8c0.5,2.5,1.3,4.9,2.4,7.2			c1.3,2.8,3,5.2,5.1,7.2c1.4,1.7,3.1,3.3,5,4.6c4.3,2.9,9.3,4.3,14.4,4.6c4.2,0.2,8.7-0.2,12.7-1.7c4.1-1.3,7.9-3.7,10.9-7.2			c0.5-0.6,1-1.2,1.4-1.8c2.4-3.1,3.9-6.7,4.8-10.5c1.1-3.4,1.5-6.9,1.6-10.5c0-4-0.8-7.6-2.6-11.1c-1.8-3.5-4.2-6.5-6.9-9.4			c-1.7-1.7-3.4-3.4-5.1-5c2.3,0,4.6,0,6.9,0c5.1,0,10.2-0.1,15.3-0.1c-0.2,0.5-0.4,0.9-0.5,1.4c-2,5.8-3.1,11.8-3.6,17.9			c-0.4,5.5-0.6,11.2,0.8,16.6c0,0,0,0.1,0,0.1c1.2,4.7,3.5,9.2,7.1,12.6c0,0,0.1,0.1,0.2,0.1c1.4,1.5,2.9,2.9,4.7,4.1			c3.8,2.5,8.2,3.7,12.6,4.3c3.3,0.5,6.6,0.3,9.9-0.4c7-1.1,13.2-5.2,17.7-10.7c0.5-0.6,0.9-1.2,1.4-1.8			C-598.9-421.6-597.1-425.5-596.3-429.6z M-681.5-494.1c-0.9,0.7-1.6,1.4-2.3,2.3c-0.6,0.5-1.2,1.1-1.7,1.6			c0.1-0.1,0.2-0.3,0.3-0.4c0.4-0.5,0.8-1,1.3-1.5c0.8-0.6,1.5-1.3,2.3-1.9C-681.7-494.1-681.6-494.1-681.5-494.1z M-672.9-497.8			c0.6-0.1,1.3-0.2,1.9-0.2c0.1,0,0.3,0,0.4,0c-1.1,0.2-2.1,0.4-3.1,0.8c-0.8,0.1-1.5,0.3-2.3,0.5c0.6-0.3,1.2-0.5,1.8-0.8			L-672.9-497.8z M-685.1-476.1c-0.1-0.3-0.3-0.6-0.4-0.9c0.4,1.2,0.8,2.3,1.2,3.5c-0.1-0.5-0.2-0.9-0.4-1.4c0.5,1.2,1,2.3,1.5,3.4			c-0.3-0.3-0.6-0.7-0.8-1c-0.4-0.7-0.8-1.5-1.2-2.3c-0.1-0.3-0.2-0.7-0.2-1c0-0.5-0.1-1.1-0.1-1.6c0-0.1,0-0.1,0-0.2			c0.1,0.5,0.2,0.9,0.4,1.4C-685.1-476.2-685.1-476.2-685.1-476.1z M-685.1-476.1c0,0.1,0.1,0.2,0.1,0.2			C-685-476-685.1-476-685.1-476.1C-685.1-476.1-685.1-476.1-685.1-476.1z M-678.4-495.5c0.3-0.1,0.6-0.2,0.9-0.2l-2.5,1.4			c0,0,0.1-0.1,0.1-0.1c-0.1,0-0.1,0.1-0.2,0.1c-0.1,0-0.1,0.1-0.2,0.1c0.1,0,0.1-0.1,0.2-0.1C-679.6-494.7-679-495.1-678.4-495.5z			 M-686.1-476.9c0,0.1,0,0.1,0,0.2c0,0.1,0,0.2,0,0.3c0.1,0.3,0.1,0.7,0.2,1c-0.3-0.5-0.5-1.1-0.7-1.6c0.1-0.3,0.2-0.6,0.4-0.9			c0,0.3,0,0.5,0.1,0.8c0-0.1,0-0.2-0.1-0.3C-686.1-477.3-686.1-477.1-686.1-476.9z M-685.3-474.5c0-0.1,0-0.3,0-0.4			c0.1,0.2,0.1,0.5,0.2,0.7C-685.2-474.3-685.2-474.4-685.3-474.5z M-685-472.2C-685-472.2-685-472.2-685-472.2L-685-472.2			c0.2,0.3,0.4,0.6,0.5,0.9c0,0,0.1,0.1,0.1,0.1c-0.2-0.2-0.4-0.4-0.5-0.7c-0.4-0.5-0.8-1.1-1.1-1.7c-0.2-0.6-0.4-1.2-0.6-1.8			C-686.2-474.3-685.6-473.3-685-472.2z M-673.6-495.7c0.2,0,0.4,0.1,0.6,0.1c-0.3,0.1-0.6,0.2-1,0.3c-0.3,0.1-0.7,0.2-1,0.3			c-0.1,0-0.3,0.1-0.4,0.1c0.3-0.2,0.7-0.4,1-0.5L-673.6-495.7z M-687.2-477.6c0,0.7,0.1,1.3,0.2,2c-0.1-0.4-0.3-0.7-0.4-1.1			C-687.3-477-687.3-477.3-687.2-477.6z M-674.8-415.1c-3.4,2-7.1,3.1-11.1,3.5c-0.7,0-1.4,0-2.1,0c-2,0.2-3.9-0.1-5.7-1			c-1.9-0.5-3.7-1-5.4-1.9c-8-3.9-11.9-12-12.4-20.6c-0.5-8,3.7-15.3,9.6-20.4c2-1.7,4.3-3.2,6.7-4.3c2.6-1.1,5.4-1.9,8.2-2.3			c1.8-0.2,3.6-0.3,5.4-0.4c2.9,3,6.1,5.8,8.9,8.7c1.3,1.3,2.5,2.8,3.7,4.3c1.6,2.5,2.9,5.2,3.6,8.3c0.8,3.3,0.7,7.2,0,10.6			c-0.6,3.1-1.4,6.2-3,8.9c-0.3,0.6-0.7,1.2-1.1,1.8C-671-418-672.7-416.4-674.8-415.1z M-649-442.9c0.4-4.8,1.3-9.6,2.6-14.3			c0.5-1.8,1.1-3.6,1.8-5.4c0.8,0,1.6,0,2.4,0c2.1,0.1,4.1,0.3,6.2,0.4c1.2-0.1,2.4-0.1,3.6-0.2c2,0,4.1-0.1,6.1-0.1			c1.7,0,3.3,0,5,0c0.5,0.1,1,0.3,1.5,0.4c1.1,0.3,2.1,0.6,3.1,1c0.6,0.2,1.3,0.5,1.9,0.8c0.6,0.3,1.1,0.6,1.6,0.9			c2.5,1.6,4.6,3.5,6.4,5.9c0.7,0.9,1.4,1.9,2,2.9c1.4,2.6,2.4,5.5,3.1,8.4c0.2,0.8,0.3,1.5,0.5,2.3c0,0,0,0,0,0.1			c0.1,0.7,0.2,1.4,0.4,2c0.4,1.9,0.2,3.7-0.6,5.4c-0.9,3.4-1.8,6.5-3.7,9.5c-1,1.5-2.1,3-3.4,4.3c-2.4,2.2-5.1,4.1-8.1,5.2			c-4.6,1.7-9.7,1.8-14.4,0.9c-5-0.9-9.4-3.3-12.9-7c-3.3-3.6-4.8-8.7-5.3-13.5C-649.5-436.2-649.2-439.8-649-442.9z M-644.6-488.8			c0.3,0.2,0.5,0.3,0.8,0.5c0.7,0.5,1.4,0.9,2.1,1.4c1.3,0.8,2.5,1.6,3.8,2.3c0.4,0.3,0.9,0.5,1.3,0.8c-2.4-1-4.7-2.2-6.8-3.3			c-1.4-0.7-2.8-1.5-4.3-2.3C-646.7-489.3-645.7-489-644.6-488.8z M-685.8-482.5c-0.1,0.3-0.2,0.6-0.3,0.9l0.4-1.6			c0.1-0.2,0.2-0.4,0.4-0.6c0,0.1,0,0.1,0,0.2c0,0,0,0,0,0C-685.5-483.2-685.7-482.9-685.8-482.5z M-648.6-489.7c0,0,0.1,0,0.1,0.1			c0.3,0.2,0.7,0.4,1,0.6c-0.5-0.3-1.1-0.5-1.6-0.8C-648.9-489.8-648.8-489.8-648.6-489.7z M-653.3-494.3l-1.6-0.4			c-0.7-0.3-1.4-0.6-2.1-0.8c0.8,0.2,1.7,0.4,2.5,0.6c0.9,0.4,1.8,0.7,2.6,1.1C-652.3-494-652.8-494.1-653.3-494.3z M-674.4-495.9			l-0.7,0.2c-1,0.4-2,0.9-2.9,1.6c-0.8,0.3-1.6,0.6-2.4,1.1c0,0,0,0,0,0c0.9-0.9,1.8-1.6,2.8-2.2c0.5-0.2,1.1-0.4,1.8-0.6			c0.2-0.1,0.5-0.1,0.7-0.1C-674.9-496-674.7-495.9-674.4-495.9z M-679-491.5c0.1-0.1,0.1-0.1,0.2-0.2c0,0,0.1,0,0.1,0			C-678.7-491.6-678.8-491.6-679-491.5C-678.9-491.5-678.9-491.5-679-491.5z M-649.6-490c0.3,0.1,0.6,0.2,0.9,0.4			c-0.4-0.1-0.8-0.3-1.1-0.4C-649.7-490-649.6-490-649.6-490z M-655.6-495.8c-0.8-0.2-1.7-0.4-2.5-0.6c-2.5-0.5-4.3-0.8-5.8-1.1			c0.1,0,0.1,0,0.2,0c1,0.1,2,0.2,2.9,0.2c0.8,0.2,1.6,0.3,2.4,0.5C-657.4-496.4-656.5-496.1-655.6-495.8z M-667.3-497.7			c0.1,0,0.2,0.1,0.3,0.1c0,0,0,0-0.1,0c-0.6,0-1.1,0-1.7,0c0.3,0,0.7-0.1,1-0.1C-667.6-497.7-667.5-497.7-667.3-497.7z			 M-675.8-496.2l0.7,0.2c-0.8,0.2-1.6,0.4-2.3,0.7c0.1,0,0.1-0.1,0.2-0.1c-0.2,0.1-0.3,0.2-0.5,0.2c-0.3,0.1-0.6,0.2-0.9,0.3			c0.4-0.3,0.8-0.5,1.2-0.8c0.4-0.1,0.8-0.2,1.2-0.3c-0.3,0.2-0.6,0.4-1,0.5C-676.8-495.7-676.3-496-675.8-496.2z M-685.5-475.7			c0-0.1-0.1-0.1-0.1-0.2c0.1,0.2,0.1,0.4,0.2,0.6c0.1,0.3,0.1,0.6,0.2,0.9c-0.1-0.2-0.2-0.4-0.4-0.6l-0.1-0.4c0-0.5,0-1-0.1-1.5			c0,0.2,0.1,0.3,0.1,0.5c0,0.1,0,0.2,0.1,0.2C-685.6-476.1-685.6-475.9-685.5-475.7z M-647.2-488.6c3.5,2,6.9,4.2,10.4,6.2			c0.2,0.1,0.4,0.2,0.6,0.3c-4.9-2.1-9.5-5.3-14.1-8C-649.3-489.6-648.3-489.1-647.2-488.6z M-678.4-495.5c0.3-0.2,0.6-0.4,0.8-0.5			c0.1-0.1,0.3-0.1,0.4-0.2c0.2-0.1,0.3-0.1,0.5-0.2c0.2,0,0.4,0.1,0.5,0.1L-678.4-495.5z M-650.8-490.3c2.3,1.2,4.5,2.6,6.7,4			c1.6,1,3.2,2,4.8,2.9c-0.9-0.5-1.8-1-2.7-1.4c-3.5-1.9-7-4.2-10.7-5.9C-652.1-490.5-651.5-490.4-650.8-490.3z M-646.6-492.5			c-0.7-0.3-1.4-0.6-2.1-0.9c-1.6-0.8-3.3-1.6-5-2.3c-0.1-0.1-0.3-0.1-0.4-0.2c0.2,0,0.4,0.1,0.7,0.1c1.7,0.6,3.3,1.4,4.9,2.2			C-647.9-493.2-647.3-492.8-646.6-492.5z M-683.3-492.9C-683.3-492.9-683.3-492.9-683.3-492.9			C-683.4-492.9-683.4-492.9-683.3-492.9C-683.3-492.9-683.3-492.9-683.3-492.9z M-682.6-493.5c0.1,0,0.1-0.1,0.2-0.1			c-0.2,0.2-0.5,0.4-0.7,0.6L-682.6-493.5z M-637.5-480.7c0.1-0.1,0.2-0.2,0.3-0.3c-0.2,0.3-1.6,0.4-2.1,0.5c0.3-0.3,0.6-0.7,0.9-1			c-0.1,0.1-0.2,0.1-0.3,0.1c0.2-0.2,0.3-0.4,0.5-0.5c-0.5,0.6-2.2,0.4-2.7,1c-1.4,1.5-2.6,3.1-3.8,4.8c-0.5,0.7-1,1.4-1.4,2.1			c-0.1,0.1-0.2,0.3-0.3,0.4c-0.1,0.2-0.2,0.3-0.3,0.5c-0.2,0.3-0.4,0.6-0.6,0.9c-0.8,1.3-1.4,2.6-2.1,3.9			c-9.9,0.1-19.8,0.1-29.6,0.2c-0.2,0-0.3,0-0.5,0c-1.8-1.9-3.4-3.9-4.8-6.1l-0.5-1.2c-0.1-0.4-0.2-0.8-0.3-1.2			c0-1.4,0.1-2.9,0.1-4.3c0.8-1.9,1.6-3.7,2.3-5.6c0.6-0.8,1.3-1.6,2.2-2.4c1-1,2.1-1.7,3.1-2.4c0.8-0.4,1.6-0.7,2.4-1			c2.5-0.4,4.9-0.8,7.4-1.2c0.8,0,1.6,0,2.5,0c0.1,0,0.2,0,0.3,0c3.3,0.8,6.7,1.6,10,2.4c5.3,2.2,10.2,5.1,15.1,8.1			c1.2,0.7,2.5,1.5,3.8,2.1C-636.3-480.9-637.1-480.8-637.5-480.7z M-653.3-496.1c-0.6-0.2-1.2-0.4-1.8-0.6c0.2,0,0.4,0,0.6,0			C-654.1-496.5-653.7-496.3-653.3-496.1z M-678.4-496.3c1-0.4,2-0.8,3.1-1.1c0.2,0,0.4-0.1,0.6-0.1c-0.6,0.2-1.1,0.4-1.6,0.6			c0,0-0.1,0-0.1,0c0,0,0,0,0.1,0c-1.4,0.5-2.7,1.2-3.9,2c-0.7,0.4-1.3,0.8-1.9,1.2c-0.1,0.1-0.2,0.1-0.3,0.2c0.5-0.4,1-0.9,1.5-1.3			C-680.1-495.4-679.3-495.9-678.4-496.3z"/>	</g></g></svg>